<?xml version="1.0" encoding="utf-8"?>
<svg version="1.1" id="Layer_1"
xmlns="http://www.w3.org/2000/svg"
xmlns:xlink="http://www.w3.org/1999/xlink"
xmlns:author="http://www.sothink.com"
width="116px" height="164px"
xml:space="preserve">
<g id="PathID_5" transform="matrix(0.705882, 0, 0, 0.705882, 0, 37.8)">
<path style="fill:#000000;fill-opacity:1" d="M4.2 -34.45q-0.85 0 -1.25 0.45q-0.4 0.45 -0.4 1.35q0 0.8 0.4 1.2q0.4 0.4 1.25 0.4l2.65 0l-0.3 3l-0.4 2.5l-1.1 4.35q-0.65 2.25 -1.7 4.6l-0.3 0.9l-0.05 0.45q0 1.1 0.35 1.95q0.35 0.9 1.05 1.6l2.65 2.3l3 2.6l-3 4.1l-3.85 4.05q-0.65 0.6 -0.65 1.2q0 2 2 2l0.7 -0.1l0.75 -0.3l3.7 -3.95l3.15 -4.45l1.9 1.75l2 1.9l1.2 0.7l1.25 0.25l0.65 -0.2l0.5 -0.35l0.45 -1.2q0 -0.8 -0.85 -1.85l-2.45 -2.3l-1.2 -1.1l-1.45 -1.2l2.05 -5.65l1.5 -6.25l0.7 -5.45l0.25 -5.85q0 -3.4 -2.75 -3.4l-5.95 0l0.1 -2.55l0 -2.8q0 -0.95 -0.45 -1.4l-1.35 -0.45q-0.9 0 -1.35 0.45q-0.4 0.45 -0.4 1.4l-0.05 2.8l-0.05 2.55l-2.9 0l0 0M10.4 -31.05l4.55 0q0.4 0 0.6 0.35l0.25 1.05l-0.25 4.2l-0.65 4.8l-1.2 5.5l-1.75 4.8q-1.95 -1.5 -4.15 -3.35q-1.25 -1.1 -1.25 -1.55l0.1 -0.55l0.2 -0.8l1.7 -5l1.1 -4.25l0.75 -5.2l0 0M31.4 -41.45l-0.9 0.25l-0.55 0.75q-1.7 4.85 -3.4 8.8l-3.35 7l-0.05 0.15l-0.1 0.2l-0.65 0.05l-0.65 0l-1.15 0.4q-0.4 0.4 -0.4 1.2q0 1.1 0.4 1.65q0.35 0.55 1.15 0.55l10.75 -0.9l11.3 -1.3l0.15 0l1.2 3.2q0.25 0.7 0.6 1.05q0.4 0.35 0.85 0.35q1.1 0 1.65 -0.4q0.55 -0.4 0.55 -1.2l-0.05 -0.65l-0.15 -0.75q-1.4 -3.75 -3.2 -7.15q-1.75 -3.4 -3.8 -6.45l-0.7 -0.7l-0.7 -0.25l-1.5 0.4q-0.5 0.4 -0.5 1.15l0.1 0.45l0.25 0.55l2.1 3.35l2 4l-7.35 0.8l-8.15 0.5q1.7 -3.1 3.25 -6.75l3 -7.7l0.15 -0.5l0.05 -0.45l-0.2 -0.65l-0.45 -0.55q-0.7 -0.45 -1.55 -0.45l0 0M27 -17.25q-1.75 0 -2.6 0.85q-0.85 0.85 -0.85 2.55l0 14.45q0 1.65 0.85 2.5q0.85 0.85 2.6 0.85l15.2 0q1.75 0 2.7 -0.85q0.9 -0.85 0.9 -2.5l0 -14.45q0 -1.7 -0.9 -2.55q-0.95 -0.85 -2.7 -0.85l-15.2 0l0 0M40.55 0.35l-11.95 0q-0.65 0 -0.9 -0.35q-0.3 -0.35 -0.3 -1.05l0 -11.15q0 -0.7 0.3 -1.1q0.25 -0.35 0.9 -0.35l11.95 0l1.1 0.35q0.35 0.4 0.35 1.1l0 11.15q0 0.7 -0.35 1.05l-1.1 0.35l0 0" />
</g>
<g id="PathID_6" transform="matrix(0.705882, 0, 0, 0.705882, 48, 37.8)">
<path style="fill:#000000;fill-opacity:1" d="M14.6 -42.25q-0.9 0 -1.35 0.5q-0.45 0.45 -0.45 1.3l0 2.4l-7.8 0q-0.85 0 -1.2 0.45q-0.4 0.4 -0.4 1.15q0 0.95 0.4 1.35q0.35 0.45 1.2 0.45l19.6 0q0.75 0 1.15 -0.45q0.4 -0.4 0.45 -1.35q-0.05 -0.75 -0.45 -1.15l-1.15 -0.45l-8 0l0 -2.4q0 -0.85 -0.5 -1.3q-0.5 -0.5 -1.5 -0.5l0 0M8.2 -33.85q-0.9 0 -1.35 0.45q-0.45 0.4 -0.45 1.15l0.1 0.4l0.25 0.65l1.45 2.25l1.4 2.3l0.5 0.3l0.5 0.1q0.9 0 1.35 -0.4q0.45 -0.4 0.45 -1.2l-0.1 -0.55l-0.3 -0.65l-1.4 -2.25l-1.4 -1.95l-0.55 -0.45l-0.45 -0.15l0 0M21.55 -33.85q-1.05 0 -1.35 0.8l-1.85 4l-1.75 3.2l-0.15 0.25l-0.05 0.35l-12.05 0q-0.8 0 -1.2 0.45q-0.35 0.4 -0.35 1.15q0 0.95 0.35 1.35q0.4 0.45 1.2 0.45l8.8 0l0 4.8l-6.75 0q-0.85 0 -1.25 0.4q-0.4 0.45 -0.4 1.2q0 0.9 0.4 1.35q0.4 0.45 1.25 0.45l6.4 0l-1.05 2.15l-1.3 2.05l-2.85 3.75l-4 4.3l-0.8 0.9q-0.25 0.5 -0.25 1.1q0 0.75 0.5 1.15q0.5 0.4 1.5 0.4q0.35 0 0.95 -0.4l1.3 -1.15l2.25 -2.45l2.1 -2.7l1 -1.4l1 -1.7l0 11q0 0.8 0.4 1.2q0.4 0.45 1.25 0.45l1.35 -0.45q0.45 -0.4 0.45 -1.2l0 -11.55l3.7 5.7l0.6 0.65l0.85 0.2q2 0 2 -1.8l-0.1 -0.65l-0.4 -0.7l-6.65 -8.35l0 -0.5l6.6 0q0.8 0 1.2 -0.45q0.4 -0.45 0.4 -1.35q0 -0.75 -0.4 -1.2q-0.4 -0.4 -1.2 -0.4l-6.6 0l0 -4.8l8.2 0q0.75 0 1.15 -0.45q0.45 -0.4 0.45 -1.35q0 -0.75 -0.45 -1.15q-0.4 -0.45 -1.15 -0.45l-4.75 0l1.7 -2.85l1.65 -3.3l0.15 -0.55l0 -0.5l-0.15 -0.5l-0.4 -0.45l-0.7 -0.3l-0.75 -0.15l0 0M45.8 -41.45q-2.25 0.85 -5.7 1.25l-8.1 0.4q-1.4 0 -2.1 0.65q-0.7 0.7 -0.7 2.1l0 15.6q0 3.9 -0.45 7.25q-0.45 3.4 -1.3 6.3l-1.45 4.25l-2.05 3.65l-0.4 0.85l-0.15 0.5q0 0.85 0.5 1.25q0.5 0.45 1.5 0.55l1 -0.25l0.8 -0.55q0.95 -1.3 1.9 -3.35l1.8 -4.8q0.9 -3.2 1.4 -7.1q0.5 -3.95 0.5 -8.55l0 -2.8l6.6 0l0 27.2q0 0.9 0.4 1.35q0.45 0.45 1.4 0.45q1.95 0 1.95 -1.8l0 -27.2l4 0q0.85 0 1.25 -0.45q0.4 -0.45 0.4 -1.35q0 -0.75 -0.4 -1.2q-0.4 -0.4 -1.25 -0.4l-14.35 0l0 -7.4q0 -0.8 0.3 -1.2q0.3 -0.4 0.9 -0.4l7.45 -0.35q3.05 -0.35 4.75 -1.05q0.75 -0.15 1.15 -0.6q0.45 -0.4 0.45 -1q-0.1 -0.85 -0.6 -1.3q-0.5 -0.45 -1.4 -0.5l0 0" />
</g>
<g id="PathID_7" transform="matrix(0.705882, 0, 0, 0.705882, 0, 84)">
<path style="fill:#000000;fill-opacity:1" d="M43.8 -42.45l-9.2 1.1l-9.9 0.7l-8.6 0.45q-4.5 0.15 -9.35 0.15q-0.8 0.05 -1.2 0.45q-0.35 0.4 -0.35 1.15q0 0.95 0.5 1.35q0.5 0.45 1.5 0.45l6.25 -0.15l9.75 -0.5l0 3.25l-20.2 0q-0.8 0 -1.2 0.4q-0.4 0.45 -0.4 1.2q0 0.9 0.4 1.35q0.4 0.45 1.2 0.45l20.2 0l0 3l-14.25 0q-1.45 0 -2.2 0.75q-0.75 0.7 -0.75 2.1l0 12.15q0 1.5 0.75 2.25q0.75 0.75 2.2 0.75l14.25 0l0 3.2l-16.8 0q-0.85 0 -1.25 0.4q-0.4 0.45 -0.4 1.2q0 0.8 0.4 1.2q0.4 0.4 1.25 0.4l16.8 0l0 3.6l-19.6 0q-0.8 0 -1.2 0.4q-0.4 0.4 -0.4 1.2q0 0.9 0.4 1.35q0.4 0.45 1.2 0.45l43.55 0q0.85 0 1.25 -0.45q0.4 -0.45 0.4 -1.35q0 -0.8 -0.4 -1.2q-0.4 -0.4 -1.25 -0.4l-20.35 0l0 -3.6l18 0q0.8 0 1.2 -0.4q0.4 -0.4 0.4 -1.2q0 -0.75 -0.4 -1.2q-0.4 -0.4 -1.2 -0.4l-18 0l0 -3.2l15.2 0q1.45 0 2.2 -0.75q0.75 -0.75 0.75 -2.25l0 -12.15q0 -1.4 -0.75 -2.1q-0.75 -0.75 -2.2 -0.75l-15.2 0l0 -3l21.6 0q0.75 0 1.15 -0.45q0.45 -0.45 0.45 -1.35l-0.45 -1.2q-0.4 -0.4 -1.15 -0.4l-21.6 0l0 -3.45l9.3 -0.65l7.3 -0.7q1 -0.15 1.5 -0.55q0.5 -0.4 0.5 -1.05q-0.05 -1 -0.45 -1.5q-0.4 -0.5 -1.15 -0.5l0 0M40.4 -13.05l-13.6 0l0 -4.2l14.6 0l0 3.05l-0.25 0.85q-0.3 0.3 -0.75 0.3l0 0M23.2 -13.05l-12.6 0q-0.5 0 -0.75 -0.3q-0.25 -0.25 -0.25 -0.85l0 -3.05l13.6 0l0 4.2l0 0M9.6 -20.25l0 -3l0.25 -0.75l0.75 -0.25l12.6 0l0 4l-13.6 0l0 0M26.8 -24.25l13.6 0l0.75 0.25l0.25 0.75l0 3l-14.6 0l0 -4l0 0" />
</g>
<g id="PathID_8" transform="matrix(0.705882, 0, 0, 0.705882, 48, 84)">
<path style="fill:#000000;fill-opacity:1" d="M17.35 -17.85l0 5.85l-5.55 0q-0.8 0 -1.2 0.4q-0.4 0.4 -0.4 1.15q0 0.8 0.4 1.2q0.4 0.4 1.2 0.4l5.55 0l-0.15 1.45l-0.3 1.4l-0.75 1.8l-1.1 1.5l-1.6 1.55l-2.3 1.5l-0.7 0.6q-0.25 0.4 -0.25 1q0 1 0.45 1.5q0.4 0.5 1.35 0.5l0.25 -0.05l0.55 -0.25l2.75 -1.8l2 -1.95l1.55 -2.15l1.05 -2.35l0.4 -2.05l0.25 -2.2l8.4 0l0 11.2q0 0.8 0.4 1.2q0.4 0.4 1.2 0.4q0.85 0 1.3 -0.4q0.45 -0.4 0.5 -1.2l0 -11.2l6.8 0q0.75 0 1.15 -0.4q0.4 -0.4 0.4 -1.2q0 -0.75 -0.4 -1.15q-0.4 -0.4 -1.15 -0.4l-6.8 0l0 -5.85l5 0q0.75 0 1.15 -0.4q0.45 -0.4 0.45 -1.2q0 -0.75 -0.45 -1.15q-0.4 -0.45 -1.15 -0.45l-24.45 0q-0.8 0 -1.2 0.45q-0.35 0.4 -0.35 1.15q0 0.8 0.35 1.2q0.4 0.4 1.2 0.4l4.2 0l0 0M29.2 -12l-8.4 0l0 -5.85l8.4 0l0 5.85l0 0M16.4 -37.45l1.6 0l0.75 0.25l0.25 0.75l0 2.8l-11.6 0l0 -2.2q0 -0.8 0.4 -1.2q0.35 -0.4 1.15 -0.4l7.45 0l0 0M19 -30.65l0 2.4l-0.25 0.9q-0.25 0.35 -0.75 0.35l-10.6 0l0 -3.65l11.6 0l0 0M7.4 -23.65l11.4 0q1.9 0 2.85 -0.95q0.95 -0.9 0.95 -2.85l0 -9.8q0 -1.8 -0.95 -2.7q-0.95 -0.9 -2.85 -0.9l-10.25 0q-2.3 0 -3.4 1.15q-1.15 1.15 -1.15 3.45l0 40.4q0 0.6 0.4 0.9l1.2 0.3l1.35 -0.3q0.45 -0.3 0.45 -0.9l0 -27.8l0 0M34 -40.85l-2 0q-1.9 0 -2.85 0.9q-1 0.9 -1 2.7l0 9.6q0 1.95 1 2.85q0.95 0.95 2.85 0.95l11.8 0l0 22.45q0 1.35 -0.4 2.05q-0.45 0.7 -1.2 0.7l-1.8 -0.2l-3.05 -0.45l-0.6 -0.1l-0.4 0q-0.7 0 -1 0.45q-0.35 0.45 -0.35 1.3q0 0.65 0.35 1.1q0.3 0.5 1 0.7l3.5 0.6l2.75 0.25q2.4 0 3.6 -1.3q1.15 -1.25 1.15 -3.75l0 -36.2q0 -4.6 -4.75 -4.6l-8.6 0l0 0M43.8 -27.25l-10.8 0q-0.65 0.05 -0.9 -0.35q-0.3 -0.35 -0.3 -1.05l0 -2l12 0l0 3.4l0 0M31.8 -33.65l0 -2.6q0 -0.6 0.3 -0.9q0.25 -0.3 0.9 -0.3l9.2 0q0.75 0 1.2 0.4q0.4 0.4 0.4 1.2l0 2.2l-12 0l0 0" />
</g>
</svg>
