<?xml version="1.0" encoding="utf-8"?>
<svg version="1.1" id="Layer_1"
xmlns="http://www.w3.org/2000/svg"
xmlns:xlink="http://www.w3.org/1999/xlink"
xmlns:author="http://www.sothink.com"
width="116px" height="164px"
xml:space="preserve">
<g id="PathID_1" transform="matrix(0.705882, 0, 0, 0.705882, 0, 37.8)">
<path style="fill:#000000;fill-opacity:1" d="M26.8 -17.6q-0.35 -3.25 -2 -5.4q-1.65 -2.1 -4.25 -3.15q-2.6 -1.05 -5.7 -1.05q-4.35 0.05 -7.25 1.95q-2.9 1.85 -4.35 5.05q-1.45 3.2 -1.45 7.25q0 3.95 1.5 7q1.5 3.1 4.35 4.85q2.85 1.8 7 1.85q5.15 -0.05 8.25 -2.75q3.05 -2.75 3.9 -7.9l-5.85 0q-0.45 2.85 -2.1 4.45q-1.65 1.55 -4.2 1.6q-2.5 -0.05 -4.05 -1.4q-1.55 -1.3 -2.25 -3.4q-0.7 -2.05 -0.7 -4.3q0.05 -4 1.2 -6.05q1.15 -2.1 2.85 -2.9q1.65 -0.75 3.2 -0.7q2.45 0 4.1 1.3q1.6 1.25 1.95 3.7l5.85 0" />
</g>
<g id="PathID_2" transform="matrix(0.705882, 0, 0, 0.705882, 48, 37.8)">
<path style="fill:#000000;fill-opacity:1" d="M3.25 0l5.8 0l0 -26.45l-5.8 0l0 26.45M3.25 -31l5.8 0l0 -5.55l-5.8 0l0 5.55" />
</g>
<g id="PathID_3" transform="matrix(0.705882, 0, 0, 0.705882, 0, 84)">
<path style="fill:#000000;fill-opacity:1" d="M3.25 0l5.8 0l0 -9.45l3.5 -3.4l8.1 12.85l7.1 0l-11.1 -16.75l10.15 -9.7l-7.2 0l-10.55 10.7l0 -20.8l-5.8 0l0 36.55" />
</g>
<g id="PathID_4" transform="matrix(0.705882, 0, 0, 0.705882, 48, 84)">
<path style="fill:#000000;fill-opacity:1" d="M3.25 0l5.8 0l0 -36.55l-5.8 0l0 36.55" />
</g>
</svg>
