<?xml version="1.0" encoding="utf-8"?>
<svg version="1.1" id="Layer_1"
xmlns="http://www.w3.org/2000/svg"
xmlns:xlink="http://www.w3.org/1999/xlink"
xmlns:author="http://www.sothink.com"
width="22px" height="45px"
xml:space="preserve">
<g id="56" transform="matrix(1, 0, 0, 1, 11.8, 22.05)">
<path style="fill:#F2DDA2;fill-opacity:1" d="M1.25,-5.45Q0.8 -3.4 -0.15 -1Q-1.15 1.4 -2.35 3.3L-2.4 3.9L-2.6 5.05Q-2.7 5.65 -2.9 5.7L-2.95 5.7L-3.35 5.35L-3.45 5.2L-3.65 5.35L-4.05 5.5L-4.15 5.5L-4.45 5.2L-4.85 5.3L-5.05 5.3L-5.2 4.95L-5.15 4.8L-5.35 4.85L-5.7 4.85L-5.85 4.8L-5.7 4.45L-5.65 4.3L-5.4 3.5Q-5.1 2.85 -4.25 2.7L-0.65 -7.5L-0.15 -8.25Q0.3 -8.85 0.85 -8.95L1.45 -8.4Q1.75 -7.55 1.25 -5.45" />
<path style="fill:#AAAB8E;fill-opacity:1" d="M-5.4,-1.35L-5.55 -0.75L-4.25 0.35L-1.6 2.45Q-0.15 3.45 0.55 3.55Q1.15 3.55 1.05 3.85L0.65 4.35L0.15 4.65L-0.95 3.95L-3.1 2.35L-5.25 0.75L-4.75 3.35L-4.3 6L-4.15 7.35L-4.5 7.6L-5.1 7.8Q-5.55 7.85 -5.25 7.15Q-5.05 6.7 -5.2 5.55L-5.7 3.1L-6.25 0.85L-6.55 -0.15L-7.1 -0.3L-8.1 -1.2Q-8.55 -1.95 -8.35 -3.55L-8.1 -3L-7.45 -1.9Q-7.05 -1.35 -6.45 -1.15Q-6.35 -1.8 -6.7 -2.45L-7.35 -3.45L-7.7 -3.85Q-6.2 -3.35 -5.8 -2.65Q-5.35 -1.9 -5.4 -1.35" />
<path style="fill:#A27DAD;fill-opacity:1" d="M1.85,7.35L-5.6 21.7L-6.85 21.25L-9.45 20.1Q-10.85 19.45 -11 18.7Q-11.2 18 -10.25 18.25L-9.95 18.35L-9.85 18.4L-8.4 18.3L-7.15 17.2L-6.4 16L-5.55 13.65L-4.1 9.75L-2.8 6.05L-2.2 4.45L1.85 7.35" />
<path style="fill:#BCDA22;fill-opacity:1" d="M-3,16.95L-4.1 19.3L-5.7 22.05Q-6.35 21.65 -7.55 21.1L-10 19.85Q-11.25 19.1 -11.8 17.9L-10.9 18L-9.15 18Q-8.25 17.95 -8.05 17.55L-7.45 16.25L-6.75 14.55L-6.4 13.7L-2.55 15.95L-3 16.95" />
<path style="fill:#A27DAD;fill-opacity:1" d="M2.4,4.35L4.4 7.85L6.7 12.35Q7.95 14.65 8.65 16.5Q9.35 18.4 9.25 19.3L8.5 19.6L6.65 20.35L4.6 20.9L2.95 20.75L3.6 20.45Q4.25 20.1 5 19.7L6 18.55L5.15 16.85L3 12.8Q1.7 10.45 0.1 8.4Q-1.5 6.4 -3.15 5.55L1.55 2.9L2.4 4.35" />
<path style="fill:#BCDA22;fill-opacity:1" d="M8.1,14.05L8.9 16.6L9.6 19.65L7.9 20.25L6.85 20.6L4.85 21.05L2.9 20.75L3.65 20.3L4.9 19.3Q5.55 18.75 5.45 18.3L4.95 17L4.3 15.35L3.95 14.5L7.7 13.05L8.1 14.05" />
<path style="fill:#F2DDA2;fill-opacity:1" d="M4.65,-16.55Q4.6 -15.05 3.95 -14.1L2.6 -12.75L1.55 -12.25Q0.95 -12.05 0.95 -11.45L1.05 -10.85L-0.75 -10.85L-0.75 -11.4Q-0.8 -11.9 -1.55 -11.95Q-2.45 -11.95 -3.5 -13.15Q-4.55 -14.35 -4.65 -16.75Q-4.55 -19.2 -3.05 -20.3Q-1.55 -21.35 0.25 -21.35Q1.95 -21.35 3.3 -20.1Q4.6 -18.8 4.65 -16.55" />
<path style="fill:#FFFFFF;fill-opacity:1" d="M2.95,-6.15L3.05 -3.1L3.2 1.2L3.35 5L3.45 6.65L-3.45 4.65L-3.2 2.75L-2.65 -1.45L-2.1 -5.85L-1.85 -8.35L-1.45 -9.7L-0.75 -11.05L-0.35 -11.65L1.35 -11.65Q1.4 -10.65 1.75 -9.85L2.55 -8.2L2.95 -6.15" />
<path style="fill:#F2DDA2;fill-opacity:1" d="M2.4,-8.6Q3 -7.95 3.45 -5.85L4.05 -1.15Q4.15 1.4 3.7 3.6L3.9 4.2L4.15 5.4Q4.3 5.95 4.1 6L3.65 5.9L3.5 5.8L3.3 6.1Q3.15 6.35 2.9 6.4L2.6 6.3L2.5 6.2L2.35 6.35L2 6.5L1.75 6.3L1.7 6.1L1.45 6.25L1.15 6.45L1.1 6.4L1.1 6.05L1.1 5.9L1 5.05Q0.95 4.25 1.7 3.8L0.8 -7L0.9 -7.5L1.25 -8.4L1.85 -8.9L2.4 -8.6" />
<path style="fill:#FFFFFF;fill-opacity:1" d="M3.6,-7.3Q4 -6.15 3.75 -3.7L0.45 -3.7L0.3 -4.55Q0.15 -5.3 0.15 -6.35Q0.15 -7.35 0.5 -8.15Q0.85 -8.9 1.8 -8.95L2.15 -8.9L2.7 -8.7Q3.2 -8.4 3.6 -7.3" />
<path style="fill:#000000;fill-opacity:1" d="M-1.95,-16.2Q-2.4 -16.2 -2.45 -16.5Q-2.4 -16.95 -1.95 -16.9Q-1.6 -16.95 -1.55 -16.5Q-1.6 -16.2 -1.95 -16.2" />
<path style="fill:#000000;fill-opacity:1" d="M1.15,-16.5Q1.15 -16.05 0.85 -16Q0.55 -16.05 0.55 -16.5Q0.55 -16.85 0.85 -16.9L1.15 -16.5" />
<path style="fill:#000000;fill-opacity:1" d="M0.9,-14.45L0.9 -14.25Q0 -13.4 -0.6 -13.45L-1.2 -13.6L-1.6 -13.95L-2 -14.45L-1.9 -14.65L-1.7 -14.55L-1.7 -14.45L-1.4 -14.15Q-1.15 -13.7 -0.6 -13.65Q-0.1 -13.6 0.7 -14.45L0.9 -14.45" />
<path style="fill:#000000;fill-opacity:1" d="M-0.75,-15.95L-1.15 -15.85L-1.25 -15.65Q-1.3 -15.45 -0.85 -15.35L-0.75 -15.25L-0.85 -15.05Q-1.45 -15.15 -1.45 -15.65L-1.35 -16.05L-0.75 -16.25L-0.75 -16.55L-0.65 -16.65L-0.55 -16.55L-0.55 -15.95L-0.75 -15.95" />
<path style="fill:#42481E;fill-opacity:1" d="M8.15,-18.5L8.4 -17L7.9 -17.55L6.95 -18.8L5.85 -20.1L4.75 -20.7L4.05 -20.2L4.45 -19.25L5.05 -16.95Q5.2 -15.65 4.65 -14.5L4.55 -15.55L3.9 -17.65Q3.45 -18.85 2.35 -19.6L1.35 -19.85L0.05 -19.55L-1.25 -18.9Q-1.9 -18.55 -2.45 -18.3L-3.6 -18Q-4.15 -18 -4.65 -18.5L-4.1 -19.45L-2.5 -21.15Q-1.4 -22 0.2 -22.05Q1.5 -22.1 3.05 -21.2L3.6 -21.5L4.95 -21.8Q5.8 -21.8 6.65 -21.15Q7.55 -20.45 8.15 -18.5" />
</g>
</svg>
