<?xml version="1.0" encoding="utf-8"?>
<svg version="1.1" id="Layer_1"
xmlns="http://www.w3.org/2000/svg"
xmlns:xlink="http://www.w3.org/1999/xlink"
xmlns:author="http://www.sothink.com"
width="16px" height="8px"
xml:space="preserve">
<g id="36" transform="matrix(1, 0, 0, 1, 7.6, 3.7)">
<path style="fill:#949611;fill-opacity:1" d="M7.3,-2.3L6.1 -0.3L6.7 -0.4L6.7 -0.5L6.6 -0.6Q6.6 -0.9 6.9 -0.9L7.1 -0.8L7.6 0.1L7.6 0.2L7.4 0.5L7.3 0.4L7.1 0.1L6.9 0.1L5.4 0.4Q5.1 0.4 5.1 0.1L5.3 -0.2L6 -1.2L5.2 -1.8L5.1 -2Q5.1 -2.3 5.4 -2.3L6.1 -3.4L6.3 -3.5L6.5 -3.5L6.6 -3.3L6.6 -3.1L5.9 -2L6.3 -1.6L6.8 -2.5L7 -2.7L7.3 -2.6L7.3 -2.3M7.4,1.2L7.2 1.5L4.5 1.5L5.6 2.1L7.3 2.7L7.5 3.1L7.2 3.4L6.9 3.4L5.5 2.8L4.3 2L4.3 3.4Q4.25 3.7 3.9 3.7Q3.6 3.7 3.6 3.4L3.6 2L2.8 2.6L0.95 3.4L0.75 3.4Q0.45 3.4 0.45 3.1L0.65 2.7L2.6 2L3.4 1.5L0.75 1.5L0.55 1.2L0.75 0.9L3.6 0.9L3.6 0.3L3.3 0.3Q2.8 0.35 2.8 -0.2L2.8 -2.4Q2.8 -2.85 3.3 -2.9L3.5 -2.9L3.5 -3L3.8 -3.6L4 -3.7L4.2 -3.6L4.3 -3.4L4.2 -3.2L4.1 -2.9L4.5 -2.9Q4.95 -2.85 5 -2.4L5 -0.2Q4.95 0.35 4.5 0.3L4.3 0.3L4.3 0.9L7.2 0.9L7.4 1.2M1.85,-3.3L1.85 -3.2L1.15 -2L1.55 -1.7L2.05 -2.6L2.3 -2.7L2.6 -2.7L2.7 -2.5L2.6 -2.3L1.35 -0.2L1.95 -0.3L1.85 -0.5L1.85 -0.7L2.05 -0.9L2.3 -0.8L2.8 0.2L2.8 0.3L2.6 0.5L2.4 0.5L2.3 0.2L2.15 0.2L0.65 0.5Q0.35 0.5 0.35 0.2Q0.35 -0.1 0.65 -0.1L1.35 -1.2L0.35 -1.9L0.35 -2.1Q0.35 -2.4 0.65 -2.4L0.75 -2.4L1.35 -3.4L1.55 -3.6L1.75 -3.5L1.85 -3.3M3.3,-2.1L3.3 -1.6L4.5 -1.6L4.5 -2.1L4.3 -2.3L3.5 -2.3L3.3 -2.1M-3.8,-3.4L-3.8 -3.1L-1.2 -3.1Q-0.9 -3.1 -0.9 -2.8Q-0.9 -2.5 -1.2 -2.5L-2.3 -2.5L-2.7 -1.2L-0.8 -1.2Q-0.5 -1.2 -0.5 -0.8Q-0.5 -0.5 -0.8 -0.5L-7.4 -0.5L-7.6 -0.8L-7.4 -1.2L-5.6 -1.2L-6 -2.5L-7 -2.5L-7.3 -2.8L-7 -3.1L-4.4 -3.1L-4.4 -3.4L-4.1 -3.7Q-3.8 -3.7 -3.8 -3.4M-2,0.7L-2.2 0.5L-5.9 0.5L-6.1 0.7L-6.1 1.4L-2 1.4L-2 0.7M-1.4,0.5L-1.4 3Q-1.4 3.6 -2 3.6L-6.1 3.6Q-6.7 3.6 -6.7 3L-6.7 0.5Q-6.7 -0.1 -6.1 -0.1L-2 -0.1Q-1.4 -0.1 -1.4 0.5M-2,2L-6.1 2L-6.1 2.8L-5.9 3L-2.2 3L-2 2.8L-2 2M4.5,-0.4L4.5 -1L3.3 -1L3.3 -0.4L3.5 -0.2L4.3 -0.2L4.5 -0.4M-2.9,-2.5L-5.3 -2.5L-5 -1.2L-3.3 -1.2L-2.9 -2.5" />
</g>
</svg>
