<?xml version="1.0" encoding="utf-8"?>
<svg version="1.1" id="Layer_1"
xmlns="http://www.w3.org/2000/svg"
xmlns:xlink="http://www.w3.org/1999/xlink"
xmlns:author="http://www.sothink.com"
width="75px" height="8px"
xml:space="preserve">
<g id="28" transform="matrix(1, 0, 0, 1, 37.35, 3.6)">
<path style="fill:#019377;fill-opacity:1" d="M-37.25,-0.25L-36.75 -1.55L-36.35 -3.35L-36.05 -3.45Q-35.75 -3.4 -35.75 -3.25L-35.85 -3.15L-36.15 -1.65L-36.15 3.2Q-36.15 3.5 -36.45 3.5L-36.65 3.2L-36.65 -0.25L-36.85 0.05L-37.05 0.15L-37.35 -0.15L-37.25 -0.25M-32.45,-3.25L-32.45 -2.95L-31.45 -2.95Q-31 -2.9 -30.95 -2.45L-30.95 -1.95L-30.75 -1.95L-30.55 -1.65L-30.75 -1.45L-30.95 -1.45L-30.95 -0.85Q-31 -0.35 -31.45 -0.35L-32.45 -0.35L-32.45 0.15L-31.35 0.15Q-31.05 0.15 -31.05 0.45Q-31.05 0.75 -31.35 0.75L-32.45 0.75L-32.45 1.25L-31.05 1.25L-30.85 1.55L-31.05 1.85L-32.45 1.85L-32.45 2.35Q-32.45 2.65 -32.7 2.65L-30.75 2.65Q-30.6 2.65 -30.55 3Q-30.55 3.3 -30.85 3.3L-33.15 3.3L-34.25 3.1L-35.05 2.55Q-35.2 3.1 -35.65 3.4L-35.75 3.4L-36.05 3.2L-35.95 2.85Q-35.5 2.6 -35.35 2.15L-35.65 1.35L-35.85 0.25Q-35.9 -0.05 -35.65 -0.05L-35.45 0.15Q-35.35 1.05 -35.05 1.45L-34.85 0.75L-34.75 -0.25L-34.95 -0.35L-35.55 -0.35L-35.85 -0.65L-35.75 -1.05L-35.05 -2.45L-35.05 -2.65L-35.45 -2.65L-35.75 -2.95L-35.45 -3.25L-34.65 -3.25Q-34.35 -3.25 -34.35 -2.95L-34.55 -2.35L-35.25 -0.85L-34.55 -0.85Q-34.25 -0.85 -34.25 -0.45L-34.35 0.45L-34.75 1.95L-34.75 2.05L-34.25 2.45L-33.25 2.65L-32.75 2.65L-32.95 2.35L-32.95 1.85L-34.15 1.85Q-34.35 1.85 -34.35 1.55Q-34.35 1.25 -34.15 1.25L-32.95 1.25L-32.95 0.75L-33.95 0.75L-34.15 0.45L-33.95 0.15L-32.95 0.15L-32.95 -0.35L-33.85 -0.35L-34.15 -0.65Q-34.15 -0.9 -33.85 -0.85L-32.95 -0.85L-32.95 -1.45L-34.25 -1.45L-34.55 -1.65L-34.25 -1.95L-32.95 -1.95L-32.95 -2.45L-33.95 -2.45L-34.25 -2.75L-33.95 -2.95L-32.95 -2.95L-32.95 -3.25L-32.75 -3.45Q-32.45 -3.4 -32.45 -3.25M-32.45,-1.95L-31.55 -1.95L-31.55 -2.25L-31.75 -2.45L-32.45 -2.45L-32.45 -1.95M-31.55,-1.05L-31.55 -1.45L-32.45 -1.45L-32.45 -0.85L-31.65 -0.85L-31.55 -1.05M-25.85,-2L-24.35 -2Q-23.75 -2.05 -23.75 -1.5L-23.75 -1.1L-23.35 -1.1Q-23.05 -1.1 -23.05 -0.8Q-23.05 -0.5 -23.35 -0.5L-23.75 -0.5L-23.75 -0.1Q-23.75 0.5 -24.35 0.5L-25.75 0.5L-25.45 1L-24.95 1.7L-24.15 2.2L-23.45 2.6L-23.05 2.8L-23.05 3.05Q-23.05 3.35 -23.35 3.35L-23.85 3.15L-24.75 2.6L-25.35 2.1L-25.85 1.4L-25.85 2.8Q-25.9 3.55 -26.65 3.55L-27.35 3.45L-27.55 3.15Q-27.55 2.8 -27.25 2.8L-27.15 2.8L-26.65 2.9L-26.45 2.6L-26.45 0.5L-28.25 0.5L-28.55 0.2L-28.25 -0.1L-26.45 -0.1L-26.45 -0.5L-28.45 -0.5L-28.75 -0.8L-28.45 -1.1L-26.45 -1.1L-26.45 -1.5L-28.35 -1.5Q-28.55 -1.5 -28.55 -1.8L-28.35 -2L-26.45 -2L-26.45 -2.3L-26.35 -2.5L-28.65 -2.5L-28.85 -2.3L-28.85 -0.1L-28.95 2L-29.25 3.25L-29.55 3.45L-29.85 3.15L-29.55 1.6L-29.45 -0.1L-29.45 -2.6Q-29.45 -3.1 -28.95 -3.1L-26.45 -3.1L-26.45 -3.2L-26.15 -3.6L-25.85 -3.2L-25.85 -3.1L-23.45 -3.1Q-23.15 -3.1 -23.15 -2.8Q-23.15 -2.5 -23.45 -2.5L-25.95 -2.5L-25.85 -2.3L-25.85 -2M-28.55,0.9L-28.25 0.6L-28.05 0.7L-27.85 0.9L-27.45 1.3L-27.45 1.5L-27.65 1.7L-27.85 1.6L-28.25 1.3L-28.45 1.1L-28.55 0.9M-25.85,-1.1L-24.35 -1.1L-24.35 -1.3L-24.45 -1.5L-25.85 -1.5L-25.85 -1.1M-25.85,-0.1L-24.45 -0.1L-24.35 -0.2L-24.35 -0.5L-25.85 -0.5L-25.85 -0.1M-26.85,1.3Q-26.55 1.35 -26.55 1.7L-26.75 2L-27.55 2.6L-28.25 3.05L-28.45 3.15L-28.75 2.8L-28.55 2.5L-27.75 2.1L-26.95 1.4L-26.85 1.3M36.25,-3.45L36.55 -3.15L36.55 0.95L37.05 0.85L37.35 1.15L37.05 1.45L36.55 1.55L36.55 3.2L36.25 3.5Q35.95 3.5 35.95 3.2L35.95 1.65L33.35 2.05Q33.05 2.05 33.05 1.75Q33.05 1.45 33.35 1.45L35.95 1.05L35.95 -3.15Q35.95 -3.45 36.25 -3.45M35.25,0.25L35.05 0.45L34.75 0.45L34.25 -0.35L33.75 -0.85L33.65 -1.05Q33.65 -1.35 33.95 -1.35L34.15 -1.25L34.65 -0.75L35.25 0.05L35.25 0.25M35.45,-1.25L35.15 -1.25L34.55 -2.05L34.05 -2.55L33.95 -2.75Q33.95 -3.05 34.25 -3.05L34.45 -3.05L34.95 -2.45L35.65 -1.65L35.65 -1.45L35.45 -1.25M17.85,-2.75L16.55 -2.75L16.35 -2.55L18.05 -2.55L17.85 -2.75M18.05,-2.05L16.35 -2.05L16.35 -1.95Q16.4 -1.7 16.55 -1.75L17.85 -1.75L18.05 -1.95L18.05 -2.05M19.55,-1.95Q19.6 -1.7 19.75 -1.75L21.15 -1.75L21.35 -1.95L21.35 -2.05L19.55 -2.05L19.55 -1.95M19.55,-2.55L19.55 -2.45L21.35 -2.45L21.35 -2.55L21.15 -2.75L19.75 -2.75L19.55 -2.55M19.05,-2.75Q19 -3.3 19.55 -3.25L21.35 -3.25Q21.85 -3.3 21.85 -2.75L21.85 2.75Q21.85 3.55 21.05 3.5L20.35 3.4Q20.1 3.25 20.15 3.1Q20.1 2.75 20.35 2.75L20.45 2.75L21.05 2.85L21.35 2.55L21.35 -1.25L19.95 -1.25L20.05 -1.05L20.05 -0.95L19.65 -0.45L19.65 -0.35L19.85 -0.15L20.35 -0.85L20.55 -0.95L20.75 -0.75L20.65 -0.55L20.15 0.15L19.95 0.35L20.65 0.25L20.55 0.15L20.55 0.05L20.75 -0.15L20.95 -0.05L21.15 0.55L21.25 0.75L20.95 0.95L20.75 0.75L20.75 0.65L20.65 0.65L19.15 0.85L18.95 0.65L19.15 0.35L19.35 0.35L19.55 0.25L19.45 0.15L19.15 -0.25L18.95 -0.45L18.85 -0.65L19.05 -0.85L19.25 -0.85L19.35 -0.75L19.65 -1.15L19.65 -1.25L19.55 -1.25Q19 -1.2 19.05 -1.75L19.05 -2.75M18.65,-1.75Q18.65 -1.2 18.05 -1.25L17.65 -1.25L17.65 -0.95L17.25 -0.45L17.45 -0.15L17.95 -0.95L18.15 -1.05L18.35 -0.95L18.45 -0.75L18.35 -0.65L17.75 0.15L17.45 0.45L18.25 0.35L18.15 0.15L18.15 0.05L18.35 -0.15L18.55 -0.05L18.85 0.55L18.85 0.75L18.55 0.95L18.45 0.75L18.35 0.75L16.65 0.95L16.45 0.75L16.65 0.45L16.85 0.45L17.15 0.15L16.55 -0.45L16.55 -0.55Q16.55 -0.85 16.85 -0.85L16.95 -0.75L17.25 -1.15L17.25 -1.25L16.35 -1.25L16.35 3.3L16.05 3.5L15.85 3.3L15.85 -2.75Q15.8 -3.3 16.35 -3.25L18.05 -3.25Q18.65 -3.3 18.65 -2.75L18.65 -1.75M17.05,1.05L17.35 1.35L17.35 1.65Q17.3 1.9 17.55 1.85L17.95 1.85L17.95 1.25Q17.95 0.95 18.25 0.95Q18.5 0.95 18.45 1.25L18.45 2.15L18.25 2.75L17.85 3.2L17.25 3.4L17.15 3.4Q16.85 3.4 16.85 3.1L17.05 2.85L17.55 2.65L17.85 2.35L17.25 2.35Q16.85 2.4 16.85 1.95L16.85 1.35Q16.8 1.05 17.05 1.05M19.55,1.25L19.55 1.95L20.05 1.95Q20.3 1.95 20.25 1.65L20.25 1.35Q20.25 1.05 20.55 1.05L20.75 1.35L20.75 1.85Q20.8 2.45 20.25 2.45L19.55 2.45L19.55 3.2L19.35 3.5Q19.05 3.5 19.05 3.2L19.05 1.25Q19.05 0.95 19.35 0.95L19.55 1.25M23.65,-1.65L23.55 0.35L23.15 0.65L22.95 0.45L23.05 0.15L23.15 -1.75Q23.1 -1.95 23.35 -1.95L23.65 -1.65M24.95,-1.65L25.05 -0.75L25.05 -0.55L24.85 -0.35Q24.6 -0.3 24.65 -0.55L24.55 -1.55L24.75 -1.85L24.95 -1.65M24.35,-3.15L24.35 3.3L24.05 3.6Q23.85 3.6 23.85 3.3L23.85 -3.15L24.05 -3.45L24.35 -3.15M28.25,-1.65L28.25 -1.15L28.75 -1.15L28.85 -1.35L28.85 -1.45L28.75 -1.65L28.25 -1.65M29.45,-1.75L29.45 -1.05Q29.4 -0.6 28.95 -0.65L25.75 -0.65Q25.2 -0.6 25.25 -1.05L25.25 -1.75Q25.2 -2.15 25.75 -2.15L28.95 -2.15Q29.4 -2.15 29.45 -1.75M29.35,-3.05L29.65 -2.75L29.35 -2.45L25.15 -2.45Q24.85 -2.45 24.85 -2.75Q24.85 -3.05 25.15 -3.05L26.95 -3.05L26.95 -3.15Q26.95 -3.5 27.25 -3.55L27.65 -3.15L27.65 -3.05L29.35 -3.05M25.95,-1.65L25.75 -1.45L25.75 -1.35Q25.75 -1.1 25.95 -1.15L26.55 -1.15L26.55 -1.65L25.95 -1.65M27.45,-0.15L27.45 0.75L27.45 0.95L27.45 1.05L27.85 1.75L29.05 1.25L29.15 1.15L29.45 1.45L29.35 1.65L28.35 2.15L28.85 2.45L29.55 2.65L29.75 3L29.45 3.3L29.35 3.3L28.55 3L27.85 2.55L27.35 1.95L27.15 1.45L26.35 1.85L26.35 2.55L27.15 2.35L27.25 2.35L27.45 2.55L27.35 2.85L26.35 3.2L25.35 3.4Q25.05 3.4 25.05 3.1Q25.05 2.75 25.35 2.75L25.85 2.65L25.85 2.05L25.15 2.25L24.95 2.25Q24.65 2.25 24.65 1.95L24.85 1.65L26.15 1.35L26.85 0.95L27.05 0.85L26.95 0.75L26.95 -0.15Q26.95 -0.45 27.25 -0.45L27.45 -0.15M25.35,0.45L26.35 0.45L26.65 0.75L26.35 0.95L25.35 0.95Q25.1 0.95 25.15 0.75Q25.1 0.45 25.35 0.45M25.15,-0.05L25.35 -0.35L26.35 -0.35L26.65 -0.05L26.35 0.15L25.35 0.15L25.15 -0.05M29.45,-0.15L29.25 0.15L28.05 0.15Q27.8 0.15 27.85 -0.15Q27.8 -0.35 28.05 -0.35L29.25 -0.35L29.45 -0.15M27.85,0.65Q27.8 0.45 28.05 0.45L29.25 0.45L29.45 0.65L29.25 0.95L28.05 0.95Q27.8 0.95 27.85 0.65M27.65,-1.65L27.05 -1.65L27.05 -1.15L27.65 -1.15L27.65 -1.65M33.45,-3.15L33.15 -2.85L32.45 -2.65L32.45 -1.55L33.15 -1.55L33.45 -1.25L33.15 -0.95L32.45 -0.95L32.45 -0.75L33.45 0.45L33.55 0.65L33.25 0.95Q33.1 1 33.05 0.85L32.45 -0.05L32.45 3.2L32.05 3.5L31.85 3.2L31.85 0.05L31.75 0.15L31.35 0.95L30.95 1.45L30.75 1.55L30.45 1.35L30.55 1.05L31.35 -0.15L31.65 -0.95L30.85 -0.95Q30.55 -0.95 30.55 -1.25Q30.55 -1.55 30.85 -1.55L31.85 -1.55L31.85 -2.55L31.05 -2.55Q30.6 -2.55 30.65 -2.85Q30.65 -3.15 30.95 -3.15L32.05 -3.15L33.15 -3.45L33.45 -3.15M-0.95,-2.65L-0.95 1.25L-0.75 1.25Q-0.45 1.25 -0.45 1.55Q-0.45 1.85 -0.75 1.85L-7.05 1.85L-7.35 1.55L-7.05 1.25L-6.85 1.25L-6.85 -2.45L-6.75 -2.85L-6.05 -3.15L-5.35 -3.25Q-5.05 -3.25 -5.05 -2.95L-5.25 -2.65L-5.95 -2.55Q-6.25 -2.55 -6.25 -2.15L-6.25 -1.65L-5.25 -1.65L-5.05 -1.35L-5.25 -1.15L-6.25 -1.15L-6.25 -0.15L-5.25 -0.15L-5.05 0.05L-5.25 0.35L-6.25 0.35L-6.25 1.25L-4.75 1.25L-4.75 -0.25L-4.55 -0.55Q-4.25 -0.55 -4.25 -0.25L-4.25 1.25L-3.45 1.25L-3.45 -0.95L-3.65 -1.05L-4.45 -1.05Q-4.8 -1.05 -4.85 -1.55L-4.85 -3.15L-4.55 -3.45Q-4.3 -3.45 -4.35 -3.15L-4.35 -2.85L-3.15 -2.85Q-2.85 -2.85 -2.85 -2.55Q-2.85 -2.25 -3.15 -2.25L-4.35 -2.25L-4.35 -1.85L-4.05 -1.65L-3.35 -1.65Q-3 -1.6 -2.95 -1.25L-2.95 1.25L-1.55 1.25L-1.55 0.35L-2.45 0.35L-2.75 0.05L-2.45 -0.15L-1.55 -0.15L-1.55 -1.15L-2.55 -1.15L-2.75 -1.35L-2.55 -1.65L-1.55 -1.65L-1.55 -2.45L-1.75 -2.55L-2.45 -2.55L-2.75 -2.85L-2.45 -3.15L-1.55 -3.15Q-0.95 -3.1 -0.95 -2.65M2.9,-2.65L0.9 -2.65Q0.7 -2.65 0.7 -2.95L0.9 -3.25L2.9 -3.25L3.2 -2.95L2.9 -2.65M3.4,-1.65L3.1 -1.35L2.3 -1.35L2.3 3.2L2 3.5Q1.7 3.5 1.7 3.2L1.7 -1.35L0.7 -1.35L0.5 -1.65L0.7 -1.95L3.1 -1.95L3.4 -1.65M1,-0.75L1.3 -0.45L1.2 1.05L0.9 2.35L0.7 2.45L0.4 2.25L0.4 2.05L0.6 0.95L0.7 -0.45Q0.7 -0.75 1 -0.75M3.6,-1.15Q3.6 -1.45 3.9 -1.45L4.8 -1.45L4.8 -3.15L5.15 -3.45L5.45 -3.15L5.45 -1.45L6.45 -1.45L6.75 -1.15L6.45 -0.85L5.45 -0.85L5.45 2.55L6.85 2.55L7.15 2.85L6.85 3.2L3.5 3.2Q3.2 3.2 3.2 2.85Q3.2 2.55 3.5 2.55L4.8 2.55L4.8 -0.85L3.9 -0.85Q3.6 -0.85 3.6 -1.15M3.2,-0.55L3.3 1.55L3.3 1.95L3.1 2.15L2.8 1.95L2.7 -0.35L2.7 -0.55L2.9 -0.75L3.2 -0.55M8.45,-1.65L8.15 -1.55Q7.85 -1.5 7.85 -1.95L8.05 -2.15L9.75 -2.75Q10.4 -3 11.05 -3.45L11.35 -3.55L11.55 -3.45Q12.3 -2.9 13.15 -2.65L14.55 -2.15L14.75 -1.95Q14.75 -1.5 14.45 -1.55L14.05 -1.65L12.65 -2.15Q12.65 -1.85 12.45 -1.85L10.15 -1.85Q9.9 -1.85 9.95 -2.15L9.75 -2.05L8.45 -1.65M9.35,0.95L13.25 0.95Q13.75 0.9 13.75 1.35L13.75 2.85Q13.75 3.4 13.25 3.4L9.35 3.4Q8.9 3.4 8.85 2.85L8.85 1.35Q8.9 0.9 9.35 0.95M8.35,-0.05L8.35 -1.05Q8.4 -1.5 8.85 -1.55L13.65 -1.55Q14.2 -1.5 14.15 -1.05L14.15 -0.05Q14.2 0.5 13.65 0.45L8.85 0.45Q8.4 0.5 8.35 -0.05M8.95,-0.75L8.95 -0.25L9.15 -0.05L9.95 -0.05L9.55 -0.55L9.55 -0.65Q9.55 -0.95 9.85 -0.95L9.95 -0.85L10.35 -0.45L10.45 -0.25L10.25 -0.05L11.05 -0.05L11.05 -1.05L9.15 -1.05L8.95 -0.75M11.15,-2.85L10.35 -2.35L12.25 -2.35L11.55 -2.85L11.35 -2.95L11.15 -2.85M12.05,-0.05L12.25 -0.25L12.55 -0.75L12.75 -0.95L12.95 -0.85L13.05 -0.65L12.95 -0.45L12.75 -0.05L13.45 -0.05L13.65 -0.25L13.65 -0.75L13.45 -1.05L11.55 -1.05L11.55 -0.05L12.05 -0.05M-21,-3.35L-21 -3.15L-19.2 -3.15L-19 -2.95Q-19 -2.65 -19.2 -2.65L-20 -2.65L-19.9 -2.35L-19.8 -2.25Q-19.8 -1.95 -20.1 -1.95L-20.4 -2.25L-20.5 -2.65L-21.2 -2.65L-21.5 -2.25L-21.8 -2.05L-21.9 -1.95L-22.1 -2.05L-22.2 -2.25L-22.1 -2.45L-21.9 -2.65L-21.7 -2.95L-21.5 -3.35Q-21.5 -3.55 -21.2 -3.55L-21 -3.35M-23.65,0.6Q-23.35 0.6 -23.35 0.8L-23.45 1.2L-24.25 1.7L-24.45 1.8L-24.75 1.5L-24.65 1.3L-23.85 0.7L-23.65 0.6M-20.8,-0.75L-17.2 -0.75Q-16.7 -0.8 -16.7 -0.25L-16.7 0.45Q-16.7 0.9 -17.2 0.95L-20.8 0.95L-20.8 1.45L-16.9 1.45Q-16.4 1.5 -16.4 1.95L-16.4 2.75Q-16.4 3.35 -16.9 3.3L-20.8 3.3Q-21.35 3.35 -21.3 2.75L-21.3 -0.25Q-21.35 -0.8 -20.8 -0.75M-20.8,0.25L-20.6 0.45L-17.4 0.45L-17.3 0.25L-17.3 -0.05L-17.4 -0.25L-20.6 -0.25L-20.8 -0.05L-20.8 0.25M-21.9,-0.15L-22.2 -0.45L-22.2 -1.15Q-22.2 -1.75 -21.6 -1.75L-19.3 -1.75L-19.3 -1.95L-19 -2.25L-18.9 -2.25L-19 -2.45L-18.9 -2.65L-18.7 -2.85L-18.6 -3.05L-18.5 -3.35Q-18.5 -3.55 -18.2 -3.55L-18 -3.45L-18 -3.15L-16 -3.15L-15.7 -2.95Q-15.7 -2.65 -16 -2.65L-16.8 -2.65L-16.7 -2.35L-16.7 -2.25Q-16.7 -1.95 -17 -1.95L-17.2 -2.25L-17.4 -2.65L-18.2 -2.65L-18.3 -2.35L-18.6 -2.15L-18.7 -2.15L-18.7 -1.75L-16.3 -1.75L-15.8 -1.55L-15.7 -0.95L-15.7 -0.35Q-15.8 -0.05 -16.1 -0.05L-16.3 -0.35L-16.3 -0.95L-16.5 -1.25L-21.4 -1.25L-21.6 -1.05L-21.6 -0.45Q-21.6 -0.15 -21.9 -0.15M-11.5,-2.65Q-11.8 -2.7 -11.8 -2.45L-11.8 -1.75L-10.6 -1.75L-10.6 -2.65L-11.5 -2.65M-12.8,-2.55L-13.3 -2.55L-13.3 -0.65L-12.8 -0.65Q-12.55 -0.65 -12.6 -0.35Q-12.55 -0.05 -12.8 -0.05L-13.3 -0.05L-13.3 1.95L-12.7 1.65L-12.6 1.55Q-12.3 1.6 -12.3 1.95L-12.4 2.15L-13.2 2.65L-14.4 3.2L-14.5 3.2L-14.8 2.85L-14.6 2.55L-13.9 2.25L-13.9 -0.05L-14.4 -0.05L-14.7 -0.35L-14.4 -0.65L-13.9 -0.65L-13.9 -2.55L-14.5 -2.55L-14.8 -2.85L-14.5 -3.15L-12.8 -3.15Q-12.5 -3.15 -12.5 -2.85Q-12.5 -2.55 -12.8 -2.55M-11.8,-3.25L-8.9 -3.25Q-8.4 -3.2 -8.4 -2.75L-8.4 -0.25Q-8.4 0.3 -8.9 0.25L-10.1 0.25L-10.1 1.15L-8.6 1.15Q-8.3 1.15 -8.3 1.45Q-8.3 1.75 -8.6 1.75L-10.1 1.75L-10.1 2.75L-8.2 2.75L-8 3L-8.2 3.3L-12.4 3.3L-12.7 3L-12.4 2.75L-10.6 2.75L-10.6 1.75L-12.1 1.75L-12.3 1.45L-12.1 1.15L-10.6 1.15L-10.6 0.25L-11.8 0.25Q-12.35 0.3 -12.3 -0.25L-12.3 -2.75Q-12.35 -3.2 -11.8 -3.25M-10.6,-0.25L-10.6 -1.25L-11.8 -1.25L-11.8 -0.55L-11.5 -0.25L-10.6 -0.25M-10.1,-2.65L-10.1 -1.75L-9 -1.75L-9 -2.45Q-8.95 -2.7 -9.2 -2.65L-10.1 -2.65M-9,-0.55L-9 -1.25L-10.1 -1.25L-10.1 -0.25L-9.2 -0.25Q-8.95 -0.25 -9 -0.55M-6.85,3.4L-7.15 3.1L-7.05 2.75L-5.05 2.05L-4.85 2.05Q-4.7 2.05 -4.65 2.35L-4.75 2.55Q-5.4 3.1 -6.65 3.4L-6.85 3.4M-20.6,1.95L-20.8 2.15L-20.8 2.55L-20.6 2.75L-17.1 2.75L-16.9 2.55L-16.9 2.15L-17.1 1.95L-20.6 1.95M13.15,1.65L12.95 1.45L9.55 1.45L9.45 1.65L9.45 1.85L13.15 1.85L13.15 1.65M13.15,2.35L9.45 2.35L9.45 2.55L9.55 2.85L12.95 2.85L13.15 2.55L13.15 2.35M-0.75,2.75L-0.55 3.1Q-0.55 3.4 -0.85 3.4L-1.05 3.4Q-1.95 2.85 -2.95 2.55L-3.15 2.35L-2.85 2.05L-2.55 2.05L-0.75 2.75" />
</g>
</svg>
