<?xml version="1.0" encoding="utf-8"?>
<svg version="1.1" id="Layer_1"
xmlns="http://www.w3.org/2000/svg"
xmlns:xlink="http://www.w3.org/1999/xlink"
xmlns:author="http://www.sothink.com"
width="47px" height="8px"
xml:space="preserve">
<g id="20" transform="matrix(1, 0, 0, 1, 23.5, 3.8)">
<path style="fill:#E3462D;fill-opacity:1" d="M-23.5,-2.2L-23.2 -2.5L-20.5 -2.5Q-20.2 -2.5 -20.2 -2.2Q-20.2 -1.9 -20.5 -1.9L-23.2 -1.9L-23.5 -2.2M-22.9,-3.5L-20.9 -3.5Q-20.6 -3.5 -20.6 -3.2Q-20.6 -2.9 -20.9 -2.9L-22.9 -2.9L-23.2 -3.2L-22.9 -3.5M-22.9,-1.4L-20.8 -1.4Q-20.5 -1.4 -20.5 -1.1Q-20.5 -0.8 -20.8 -0.8L-22.9 -0.8L-23.2 -1.1L-22.9 -1.4M-22.6,0.8L-21.1 0.8Q-20.5 0.8 -20.5 1.4L-20.5 2.9Q-20.5 3.5 -21.1 3.5L-22.6 3.5Q-23.2 3.5 -23.2 2.9L-23.2 1.4Q-23.2 0.8 -22.6 0.8M-23.2,0L-22.9 -0.3L-20.8 -0.3Q-20.5 -0.3 -20.5 0Q-20.5 0.3 -20.8 0.3L-22.9 0.3L-23.2 0M-19.2,-3.1L-19.2 0.4L-19.4 2.2L-19.9 3.5L-20.1 3.6L-20.5 3.3L-20.4 3.1L-19.9 1.6L-19.8 0.4L-19.8 -3.1L-19.5 -3.4Q-19.2 -3.4 -19.2 -3.1M-17.9,-2.9L-17.9 3Q-17.9 3.3 -18.2 3.3L-18.5 3L-18.5 -2.9L-18.2 -3.2Q-17.9 -3.2 -17.9 -2.9M-22.4,1.4L-22.6 1.6L-22.6 2.6L-22.4 2.9L-21.3 2.9L-21.1 2.6L-21.1 1.6L-21.3 1.4L-22.4 1.4M23.2,3.5L20.3 3.5Q19.7 3.5 19.7 2.9L19.7 -1.3L19.5 -1.1L19.3 -1Q19 -1 19 -1.3L19 -1.5L19.7 -2.3L20.2 -3.5Q20.2 -3.65 20.5 -3.6L20.8 -3.4L20.7 -3.2L20.4 -2.3L21.4 -2.3L21.6 -2.6L22 -3.4L22.2 -3.5L22.4 -3.4L22.5 -3.2L22.5 -2.9L22.2 -2.4L22.1 -2.3L23.1 -2.3L23.4 -2L23.1 -1.7L22 -1.7L22 -0.7L22.9 -0.7L23.2 -0.5Q23.2 -0.05 22.9 -0.1L22 -0.1L22 1.1L22.9 1.1Q23.2 1.05 23.2 1.3L22.9 1.6L22 1.6L22 3L23.2 3Q23.5 2.95 23.5 3.2L23.2 3.5M17.5,-3.5Q17.55 -3.65 17.7 -3.6L18 -3.6L18.1 -3.4L18.1 -3.2L17.4 -2L17.8 -1.5L18.4 -2.6Q18.45 -2.75 18.6 -2.7L18.8 -2.7L18.9 -2.5L18.8 -2.2L18.1 -0.9L17.7 -0.3L18.5 -0.5L18.4 -0.7L18.4 -0.9Q18.4 -1.1 18.7 -1.1L18.9 -1L19.2 -0.1L19.3 0.1Q19.25 0.4 18.9 0.4L18.7 0.2L18.7 0L18.6 0L18.2 0.1L18.2 3.4L18 3.7Q17.7 3.7 17.7 3.4L17.7 0.2L16.7 0.4Q16.4 0.45 16.4 0Q16.4 -0.3 16.7 -0.3L16.9 -0.3L17.5 -1L17.4 -1L17 -1.6L16.6 -2L16.5 -2.2Q16.5 -2.5 16.8 -2.5L17 -2.5L17 -2.4L17.5 -3.5M15,-2.75L15 -0.25Q15 0.35 14.4 0.35L9.6 0.35Q9 0.35 9 -0.25L9 -2.75Q9 -3.35 9.6 -3.35L14.4 -3.35Q15 -3.35 15 -2.75M14.4,-2.55Q14.4 -2.75 14.1 -2.75L12.3 -2.75L12.3 -1.85L14.4 -1.85L14.4 -2.55M14.5,0.95Q15.1 1.75 15.5 2.85L15.5 3.15L15.1 3.35L14.9 3.15L14 1.15L13.9 1.05Q13.9 0.75 14.2 0.75L14.5 0.95M14.4,-0.55L14.4 -1.25L12.3 -1.25L12.3 -0.25L14.1 -0.25L14.4 -0.55M13.8,1.85Q14.1 1.8 14.1 2.25L14 2.85L13.6 3.45L12.1 3.65L10.5 3.45Q10.15 3.25 10.1 2.65L10.1 0.95Q10.1 0.65 10.4 0.65L10.7 0.95L10.7 2.55L10.9 2.95L11.9 3.05L13.1 2.95L13.4 2.85L13.5 2.15Q13.5 1.85 13.8 1.85M17,0.8L17.3 1.1L17.3 1.3L17 3.1L16.7 3.3Q16.4 3.3 16.4 3L16.5 2.8L16.7 1L17 0.8M21.4,-1.7L20.3 -1.7L20.3 -0.7L21.4 -0.7L21.4 -1.7M19,0.9L19.3 2.3L19.3 2.5L19 2.8L18.8 2.5L18.5 1.1L18.5 1Q18.5 0.7 18.8 0.7L19 0.9M20.3,1.1L21.4 1.1L21.4 -0.1L20.3 -0.1L20.3 1.1M20.3,1.6L20.3 2.7L20.5 3L21.4 3L21.4 1.6L20.3 1.6M7,-2.2Q7.05 -1.7 6.5 -1.7L4.3 -1.7Q3.85 -1.7 3.8 -2.2L3.8 -2.9Q3.85 -3.45 4.3 -3.4L6.5 -3.4Q7.05 -3.45 7 -2.9L7 -2.2M6.4,-2.6L6.3 -2.8L4.6 -2.8L4.4 -2.6L4.4 -2.5L4.6 -2.3L6.3 -2.3L6.4 -2.5L6.4 -2.6M7.1,-0.7L6.9 -0.7L6.9 2.3L7.1 2.3L7.4 2.6Q7.4 2.95 7.1 3L6.9 3L6.9 3.4L6.6 3.7Q6.3 3.7 6.3 3.4L6.3 3L3.4 3.2Q3.1 3.2 3.1 2.9L3.1 2.8L2.9 2.9L2.2 2.9L2.2 3.4L1.9 3.7Q1.6 3.7 1.6 3.4L1.6 2.9L0.7 2.9Q0.4 2.95 0.4 2.5Q0.4 2.35 0.7 2.3L1.6 2.3L1.6 1.7L1.1 1.7Q0.65 1.65 0.6 1.2L0.6 -1.4Q0.65 -1.95 1.1 -1.9L1.6 -1.9L1.6 -2.4L0.7 -2.4Q0.4 -2.4 0.4 -2.7Q0.4 -3 0.7 -3L1.6 -3L1.6 -3.5Q1.6 -3.8 1.9 -3.8L2.2 -3.5L2.2 -3L3 -3L3.3 -2.7L3 -2.4L2.2 -2.4L2.2 -1.9L2.6 -1.9Q3.15 -1.95 3.1 -1.4L3.1 1.2Q3.15 1.65 2.6 1.7L2.2 1.7L2.2 2.3L2.9 2.3Q3.2 2.35 3.2 2.5L3.2 2.7Q3.25 2.6 3.4 2.6L3.9 2.5L3.9 -0.7L3.6 -0.7Q3.3 -0.7 3.3 -1Q3.3 -1.3 3.6 -1.3L7.1 -1.3L7.4 -1L7.1 -0.7M4.5,1.1L6.3 1.1L6.3 0.5L4.5 0.5L4.5 1.1M4.5,2.5L6.3 2.4L6.3 1.7L4.5 1.7L4.5 2.5M4.5,-0.7L4.5 -0.1L6.3 -0.1L6.3 -0.7L4.5 -0.7M11.7,-2.75L9.9 -2.75Q9.6 -2.75 9.6 -2.55L9.6 -1.85L11.7 -1.85L11.7 -2.75M9.9,-0.25L11.7 -0.25L11.7 -1.25L9.6 -1.25L9.6 -0.55Q9.6 -0.25 9.9 -0.25M9.7,1.25L9.1 3.35L8.8 3.45Q8.5 3.45 8.5 3.15L8.5 3.05L9.1 1.05L9.4 0.85L9.6 0.95L9.7 1.15L9.7 1.25M11.8,0.45L12 0.55L12.8 2.05L12.9 2.25L12.5 2.55L12.3 2.25L11.5 0.85L11.5 0.65Q11.5 0.45 11.8 0.45M-2.75,-2.75L-3.75 -2.75L-3.75 -2.25L-2.75 -2.25L-2.75 -2.75M-4.35,-2.75L-5.15 -2.75L-5.35 -2.45L-5.15 -2.25L-4.35 -2.25L-4.35 -2.75M-4.65,-1.45L-4.75 -1.25L-5.25 -0.65L-4.95 -0.35L-4.35 -1.25L-4.15 -1.35L-3.95 -1.25L-3.85 -1.05L-3.95 -0.85L-4.65 0.05L-4.95 0.35L-4.25 0.25L-4.35 0.05L-4.35 -0.05L-4.15 -0.25L-3.95 -0.15L-3.65 0.65L-3.55 0.75L-3.85 0.95L-4.05 0.85L-4.05 0.65L-4.55 0.75L-4.55 2.45L-4.75 2.75L-5.05 2.45L-5.05 0.85L-5.85 1.05L-6.15 0.65Q-6.15 0.45 -5.85 0.45L-5.55 0.35L-5.25 0.05L-5.65 -0.35L-5.95 -0.45L-6.05 -0.75L-5.85 -0.95L-5.65 -0.85L-5.15 -1.65L-5.05 -1.75L-5.45 -1.75Q-5.9 -1.75 -5.85 -2.15L-5.85 -2.85L-5.45 -3.25L-1.05 -3.25Q-0.7 -3.2 -0.65 -2.85L-0.65 -2.15Q-0.7 -1.75 -1.05 -1.75L-4.75 -1.75L-4.65 -1.45M-2.65,-1.25L-2.75 -0.95L-2.05 -0.95L-2.05 -1.05L-1.85 -1.45L-1.55 -1.55L-1.35 -1.35L-1.35 -1.15L-1.45 -0.95L-0.85 -0.95Q-0.55 -1 -0.55 -0.75Q-0.55 -0.45 -0.85 -0.45L-1.55 -0.45L-1.55 -0.05L-0.95 -0.05Q-0.65 -0.05 -0.65 0.15Q-0.65 0.45 -0.95 0.45L-1.55 0.45L-1.55 0.95L-0.85 0.95L-0.65 1.15L-0.85 1.45L-1.55 1.45L-1.55 2.05L-0.75 2.05L-0.55 2.35L-0.75 2.55L-2.75 2.55Q-3.35 2.6 -3.35 2.05L-3.35 -0.05L-3.45 0.05L-3.55 0.05L-3.75 -0.05L-3.85 -0.25L-3.75 -0.45L-3.45 -0.65L-3.25 -1.05L-3.05 -1.45L-2.85 -1.65L-2.65 -1.55L-2.65 -1.25M-7.15,-3.35L-6.85 -3.25L-6.55 -3.05L-6.15 -2.65L-6.15 -2.45Q-6.15 -2.2 -6.45 -2.25L-6.65 -2.25L-7.05 -2.65L-7.35 -2.85L-7.35 -3.05L-7.15 -3.35M-6.35,-0.85L-6.65 -0.65L-6.85 -0.75L-7.15 -0.95L-7.45 -1.15L-7.55 -1.35L-7.25 -1.65L-7.05 -1.55L-6.75 -1.45L-6.35 -1.05L-6.35 -0.85M-6.75,-0.05Q-6.2 -0.05 -6.25 0.45L-6.25 1.65L-6.05 2.15L-5.65 1.25L-5.45 1.15L-5.25 1.25L-5.25 1.55L-5.65 2.35L-5.85 2.45L-5.75 2.55Q-5.35 3 -4.45 2.95L-0.55 2.95Q-0.25 2.95 -0.25 3.25Q-0.25 3.55 -0.55 3.55L-4.15 3.55L-5.35 3.45L-6.35 2.85L-6.45 2.75L-6.45 2.85L-7.05 3.45L-7.35 3.55L-7.65 3.25L-7.45 3.05L-6.95 2.55L-6.75 1.65L-6.75 0.65L-6.95 0.55L-7.25 0.55L-7.55 0.25L-7.25 -0.05L-6.75 -0.05M-2.75,-0.05L-2.05 -0.05L-2.05 -0.45L-2.75 -0.45L-2.75 -0.05M-2.75,0.95L-2.05 0.95L-2.05 0.45L-2.75 0.45L-2.75 0.95M-4.05,1.15L-3.85 1.25L-3.55 2.05L-3.55 2.15Q-3.55 2.45 -3.85 2.45L-4.05 2.25L-4.35 1.45L-4.35 1.35Q-4.35 1.1 -4.05 1.15M-2.55,2.05L-2.05 2.05L-2.05 1.45L-2.75 1.45L-2.75 1.75L-2.55 2.05M1.2,-1.2L1.2 -0.4L1.6 -0.4L1.6 -1.4L1.4 -1.4L1.2 -1.2M2.4,-1.4L2.2 -1.4L2.2 -0.4L2.6 -0.4L2.6 -1.2L2.4 -1.4M-1.15,-2.45L-1.35 -2.75L-2.15 -2.75L-2.15 -2.25L-1.35 -2.25L-1.15 -2.45M2.2,0.2L2.2 1.2L2.4 1.2L2.6 0.9L2.6 0.2L2.2 0.2M1.2,0.9Q1.15 1.2 1.4 1.2L1.6 1.2L1.6 0.2L1.2 0.2L1.2 0.9M-12.7,-3L-11 -3L-11 -3.5L-10.7 -3.8Q-10.4 -3.8 -10.4 -3.5L-10.4 -3L-8.6 -3Q-8.3 -3 -8.3 -2.7Q-8.3 -2.4 -8.6 -2.4L-10.4 -2.4L-10.4 -1.9L-9.2 -1.9Q-8.7 -1.9 -8.7 -1.3L-8.7 0.3Q-8.7 0.9 -9.2 0.9L-10.3 0.9L-9.6 1.8L-8.5 2.8L-8.4 3.1L-8.7 3.4L-9 3.3L-9.7 2.6L-10.4 1.6L-10.4 3.5Q-10.4 3.8 -10.7 3.8L-11 3.5L-11 1.7L-12.4 3.3L-12.6 3.4L-13 3.1L-13 2.9L-11.7 1.7L-11.1 0.9L-12.2 0.9Q-12.65 0.9 -12.7 0.3L-12.7 -1.3Q-12.65 -1.9 -12.2 -1.9L-11 -1.9L-11 -2.4L-12.7 -2.4L-13 -2.7L-12.7 -3M-13.3,-2.5L-13.3 -2.1L-14 -0.8L-14.4 -0.1L-13.6 -0.2L-13.7 -0.5L-13.7 -0.7L-13.4 -0.9L-13.2 -0.8L-12.9 0.3L-12.9 0.5L-13.2 0.7L-13.4 0.5L-13.5 0.3L-13.8 0.4L-13.8 3.4Q-13.8 3.7 -14.1 3.7L-14.4 3.4L-14.4 0.5L-15.2 0.6Q-15.5 0.65 -15.5 0.2L-15.2 -0.1L-15.1 -0.1L-14.6 -0.9L-15 -1.5L-15.4 -1.8L-15.5 -2L-15.2 -2.3L-15.1 -2.3L-14.5 -3.5L-14.3 -3.7L-14 -3.6L-13.9 -3.4L-14 -3.3L-14.6 -1.9L-14.2 -1.5L-13.8 -2.5L-13.5 -2.6L-13.3 -2.5M-16.9,-3.6Q-16.6 -3.6 -16.6 -3.3L-16.6 3.4Q-16.6 3.7 -16.9 3.7L-17.2 3.4L-17.2 -3.3L-16.9 -3.6M-15,0.9Q-14.7 0.9 -14.7 1.2L-14.8 1.4L-14.9 3.4L-15.2 3.5L-15.5 3.3L-15.5 3.1L-15.3 1.1Q-15.3 0.9 -15 0.9M-12.9,2L-12.8 2.2Q-12.8 2.5 -13.1 2.5L-13.4 2.2L-13.5 1.2L-13.5 1.1L-13.3 0.9L-13 1.1L-12.9 2M-9.7,-1L-9.5 -0.9L-9.4 -0.8L-9.5 -0.7L-9.7 0L-9.9 0.1L-10.2 -0.2L-10.2 -0.3L-9.9 -0.9L-9.7 -1M-9.5,-1.3L-10.4 -1.3L-10.4 0.3L-9.5 0.3Q-9.2 0.3 -9.2 0L-9.2 -1Q-9.2 -1.3 -9.5 -1.3M-12.2,-1L-12.2 0L-11.9 0.3L-11 0.3L-11 -1.3L-11.9 -1.3L-12.2 -1M-12,-0.8L-11.8 -1L-11.6 -0.9L-11.2 -0.4L-11.2 -0.1L-11.5 0.1L-11.7 -0.1L-12 -0.7L-12 -0.8" />
</g>
</svg>
