<?xml version="1.0" encoding="utf-8"?>
<svg version="1.1" id="Layer_1"
xmlns="http://www.w3.org/2000/svg"
xmlns:xlink="http://www.w3.org/1999/xlink"
xmlns:author="http://www.sothink.com"
width="17px" height="45px"
xml:space="preserve">
<g id="55" transform="matrix(1, 0, 0, 1, 8.45, 22.2)">
<path style="fill:#F2DDA2;fill-opacity:1" d="M1.2,-5.6L-0.2 -1.15Q-1.2 1.25 -2.4 3.15L-2.45 3.75L-2.65 4.9Q-2.75 5.5 -2.95 5.55L-3 5.55L-3.4 5.2L-3.5 5.05L-3.7 5.2L-4.1 5.35L-4.2 5.35L-4.5 5.05L-4.9 5.15L-5.1 5.15L-5.25 4.8L-5.2 4.65L-5.4 4.7L-5.75 4.7L-5.9 4.65L-5.75 4.3L-5.7 4.15L-5.45 3.35Q-5.15 2.7 -4.3 2.55L-0.7 -7.65L-0.2 -8.4Q0.25 -9 0.8 -9.1L1.4 -8.55Q1.7 -7.7 1.2 -5.6" />
<path style="fill:#AAAB8E;fill-opacity:1" d="M-5.45,-1.5L-5.6 -0.9L-4.3 0.2L-1.65 2.3Q-0.2 3.3 0.55 3.4Q1.15 3.4 1.05 3.7L0.65 4.2L0.15 4.5L-1 3.8L-3.15 2.2L-5.3 0.6L-4.8 3.2L-4.35 5.85L-4.2 7.2L-4.55 7.45L-5.15 7.65Q-5.6 7.7 -5.3 7Q-5.1 6.55 -5.25 5.4L-5.75 2.95L-6.3 0.7L-6.6 -0.3L-7.15 -0.45L-8.15 -1.35Q-8.6 -2.1 -8.4 -3.7L-8.15 -3.15L-7.5 -2.05Q-7.1 -1.5 -6.5 -1.3Q-6.4 -1.95 -6.75 -2.6L-7.4 -3.6L-7.75 -4Q-6.25 -3.5 -5.85 -2.8Q-5.4 -2.05 -5.45 -1.5" />
<path style="fill:#A27DAD;fill-opacity:1" d="M1.7,5.85L-0.85 21.85L-2.2 21.8L-5.05 21.55Q-6.55 21.35 -6.95 20.7Q-7.35 20.1 -6.35 20.05L-6.05 20.05L-5.95 20.05Q-5.15 20 -4.6 19.45Q-4.05 18.85 -3.8 18.05L-3.45 16.65L-3.35 14.2L-3.25 10L-3.2 6.1L-3.15 4.35L1.7 5.85" />
<path style="fill:#BCDA22;fill-opacity:1" d="M0.2,16.5L-0.15 19.1L-0.8 22.2L-2.85 21.9L-5.6 21.5Q-7 21.15 -7.9 20.2L-7 20L-5.35 19.45L-4.4 18.7L-4.3 17.25L-4.15 15.4L-4.1 14.5L0.3 15.4L0.2 16.5" />
<path style="fill:#A27DAD;fill-opacity:1" d="M2.9,4.85L3.65 8.8L4.45 13.8L4.95 18.35Q5 20.4 4.65 21.2L3.8 21.3L1.8 21.4L-0.3 21.25L-1.85 20.6L-1.1 20.5L0.45 20.2Q1.3 19.95 1.75 19.5L1.5 17.55L0.75 13.05Q0.25 10.4 -0.6 7.95Q-1.5 5.5 -2.75 4.2L2.55 3.2L2.9 4.85" />
<path style="fill:#BCDA22;fill-opacity:1" d="M5.15,15.85L5.1 18.5L4.8 21.65L3 21.65L1.9 21.7L-0.15 21.45Q-1.15 21.25 -1.9 20.55L-1.05 20.35L0.45 19.85Q1.25 19.5 1.3 19.05L1.25 17.65L1.15 15.85L1.1 14.95L5.1 14.75L5.15 15.85" />
<path style="fill:#F2DDA2;fill-opacity:1" d="M4.65,-16.7Q4.6 -15.2 3.95 -14.25Q3.25 -13.35 2.55 -12.9L1.5 -12.4Q0.9 -12.2 0.9 -11.6L1 -11L-0.8 -11L-0.8 -11.55Q-0.85 -12.05 -1.6 -12.1Q-2.5 -12.1 -3.55 -13.3Q-4.6 -14.5 -4.7 -16.9Q-4.6 -19.35 -3.1 -20.45Q-1.6 -21.5 0.2 -21.5Q1.9 -21.5 3.25 -20.25Q4.6 -18.95 4.65 -16.7" />
<path style="fill:#FFFFFF;fill-opacity:1" d="M2.9,-6.3L3 -3.25L3.15 1.05L3.3 4.85L3.4 6.5L-3.5 4.5L-3.25 2.6L-2.7 -1.6L-2.15 -6L-1.9 -8.5L-1.5 -9.85L-0.8 -11.2L-0.4 -11.8L1.3 -11.8Q1.35 -10.8 1.7 -10L2.5 -8.35L2.9 -6.3" />
<path style="fill:#F2DDA2;fill-opacity:1" d="M2.4,-8.75Q3 -8.1 3.45 -6L4.05 -1.3Q4.15 1.25 3.7 3.45L3.9 4.05L4.15 5.25Q4.3 5.8 4.1 5.85L3.65 5.75L3.5 5.65L3.3 5.95Q3.15 6.2 2.9 6.25L2.6 6.15L2.5 6.05L2.35 6.2L2 6.35L1.75 6.15L1.7 5.95L1.45 6.1L1.15 6.3L1.1 6.25L1.1 5.9L1.1 5.75L1 4.9Q0.95 4.1 1.7 3.65L0.8 -7.15L0.9 -7.65L1.25 -8.55L1.85 -9.05L2.4 -8.75" />
<path style="fill:#FFFFFF;fill-opacity:1" d="M3.6,-7.45Q4 -6.3 3.75 -3.85L0.45 -3.85L0.3 -4.7Q0.15 -5.45 0.15 -6.5Q0.15 -7.5 0.5 -8.3Q0.85 -9.05 1.8 -9.1L2.15 -9.05L2.7 -8.85Q3.2 -8.55 3.6 -7.45" />
<path style="fill:#000000;fill-opacity:1" d="M-2,-16.35Q-2.45 -16.35 -2.5 -16.65Q-2.45 -17.1 -2 -17.05Q-1.65 -17.1 -1.6 -16.65Q-1.65 -16.35 -2 -16.35" />
<path style="fill:#000000;fill-opacity:1" d="M1.15,-16.65Q1.15 -16.2 0.85 -16.15Q0.55 -16.2 0.55 -16.65Q0.55 -17 0.85 -17.05L1.15 -16.65" />
<path style="fill:#000000;fill-opacity:1" d="M0.85,-14.6L0.85 -14.4Q-0.05 -13.55 -0.65 -13.6L-1.25 -13.75L-1.65 -14.1L-2.05 -14.6L-1.95 -14.8L-1.75 -14.7L-1.75 -14.6L-1.45 -14.3L-0.65 -13.8Q-0.15 -13.75 0.65 -14.6L0.85 -14.6" />
<path style="fill:#000000;fill-opacity:1" d="M-0.8,-16.1L-1.2 -16L-1.3 -15.8L-0.9 -15.5L-0.8 -15.4L-0.9 -15.2Q-1.5 -15.3 -1.5 -15.8L-1.4 -16.2L-0.8 -16.4L-0.8 -16.7L-0.7 -16.8L-0.6 -16.7L-0.6 -16.1L-0.8 -16.1" />
<path style="fill:#42481E;fill-opacity:1" d="M8.15,-18.65L8.4 -17.15L7.9 -17.7L6.95 -18.95L5.85 -20.25L4.75 -20.85L4.05 -20.35L4.45 -19.4L5.05 -17.1Q5.2 -15.8 4.65 -14.65L4.55 -15.7L3.9 -17.8Q3.4 -19 2.3 -19.75L1.3 -20L0 -19.7L-1.3 -19.05L-2.5 -18.45L-3.65 -18.15Q-4.2 -18.15 -4.7 -18.65L-4.15 -19.6L-2.55 -21.3Q-1.45 -22.15 0.15 -22.2Q1.45 -22.25 3 -21.35L3.55 -21.65L4.95 -21.95Q5.8 -21.95 6.65 -21.3Q7.55 -20.6 8.15 -18.65" />
</g>
</svg>
