<?xml version="1.0" encoding="utf-8"?>
<svg version="1.1" id="Layer_1"
xmlns="http://www.w3.org/2000/svg"
xmlns:xlink="http://www.w3.org/1999/xlink"
xmlns:author="http://www.sothink.com"
width="37px" height="7px"
xml:space="preserve">
<g id="30" transform="matrix(1, 0, 0, 1, 18.5, 3.5)">
<path style="fill:#019377;fill-opacity:1" d="M16.8,-1.35L16.5 -1.05L16.3 -1.15L15.7 -1.95L15.2 -2.45L15.1 -2.65Q15.1 -2.95 15.4 -2.95L15.6 -2.85L16.1 -2.35L16.8 -1.55L16.8 -1.35M17.7,-3.05L17.7 1L18.2 0.9L18.5 1.2L18.2 1.5L17.7 1.6L17.7 3.3L17.4 3.5L17.1 3.3L17.1 1.7L14.4 2.1L14.2 1.8Q14.25 1.5 14.4 1.5L17.1 1.1L17.1 -3.05Q17.1 -3.35 17.4 -3.35L17.7 -3.05M14.6,-3.05Q14.6 -2.8 14.3 -2.65L13.5 -2.55L13.5 -1.45L14.3 -1.45L14.5 -1.15L14.3 -0.85L13.5 -0.85L13.5 -0.65L14.6 0.5L14.7 0.7L14.4 1L14.1 0.9L13.5 0L13.5 3.3L13.2 3.5Q12.95 3.55 13 3.3L13 0.1L12.9 0.2L12.5 1L12.1 1.5L11.9 1.7Q11.6 1.7 11.6 1.4L11.7 1.2L12.4 -0.1L12.8 -0.85L12 -0.85Q11.7 -0.85 11.7 -1.15Q11.7 -1.45 12 -1.45L13 -1.45L13 -2.45L12.2 -2.35Q11.8 -2.4 11.8 -2.75L12.1 -2.95L13.2 -3.05L14.3 -3.35L14.6 -3.05M15.3,-1.15L15.8 -0.65L16.4 0.1L16.4 0.3L16.1 0.5L15.9 0.5L15.4 -0.25L14.9 -0.75L14.8 -0.95Q14.8 -1.25 15.1 -1.25L15.3 -1.15M7.5,-3.35L7.8 -3.05L7.8 -2.45L10.5 -2.45L10.8 -2.15L10.5 -1.85L9.7 -1.85L9.7 -1.65Q9.4 -0.5 8.9 0.2L8 1.4L9.1 2.1L10.6 2.8Q10.85 2.8 10.8 3.1L10.5 3.4L10.3 3.4L8.5 2.5Q7.9 2.25 7.5 1.8L6.6 2.5L4.7 3.4L4.5 3.5L4.3 3.4L4.2 3.2Q4.15 2.9 4.3 2.9L6.2 2L7.1 1.4L6 0.1Q5.55 -0.8 5.2 -1.85L4.5 -1.85Q4.2 -1.85 4.2 -2.15Q4.2 -2.45 4.5 -2.45L7.2 -2.45L7.2 -3.05Q7.2 -3.35 7.5 -3.35M8.4,-0.1L9.2 -1.85L5.8 -1.85L6.6 -0.1L7.5 1L8.4 -0.1M-4.25,-1.65L-4.05 -1.35Q-4.05 -1.05 -4.45 -1.05L-4.65 -1.05L-6.05 -1.65L-7.35 -2.55L-7.55 -2.65L-7.65 -2.65L-9.05 -1.65Q-9.65 -1.2 -10.45 -1.05L-10.65 -0.95L-10.95 -1.35L-10.75 -1.65L-9.25 -2.25L-7.95 -3.15L-7.55 -3.35L-6.85 -3.05L-5.75 -2.25L-4.25 -1.65M-5.85,0.7L-9.25 0.7Q-9.5 0.7 -9.45 1L-9.45 2.5Q-9.5 2.8 -9.25 2.8L-5.85 2.8Q-5.55 2.8 -5.55 2.5L-5.55 1Q-5.55 0.7 -5.85 0.7M-4.95,0.8L-4.95 2.7Q-4.95 3.3 -5.55 3.3L-9.45 3.3Q-10.05 3.3 -10.05 2.7L-10.05 0.8Q-10.05 0.2 -9.45 0.2L-5.55 0.2Q-4.95 0.2 -4.95 0.8M-5.55,-0.45L-9.55 -0.45L-9.85 -0.75L-9.55 -1.05L-5.55 -1.05Q-5.25 -1.05 -5.25 -0.75Q-5.25 -0.45 -5.55 -0.45M0.3,-3.2L0.3 -2.4L0.5 -1.2Q0.65 -0.45 1.1 0.25L2.1 1.65L3.3 2.75L3.4 3.05L3.1 3.45L2.8 3.35L1.4 1.95Q0.85 1.3 0.6 0.65L0 -0.6L-0.6 0.65L-1.4 1.95L-2.8 3.35L-3 3.45L-3.4 3.05L-3.3 2.75L-2 1.55Q-1.35 0.8 -1 0.05L-0.5 -1.2L-0.3 -2.4L-0.3 -3.2L0 -3.5L0.3 -3.2M-13.55,-2.75L-12.35 -2.75L-11.85 -2.55L-11.75 -1.95L-11.75 -1.55L-12.05 -1.25L-12.35 -1.55L-12.35 -1.95L-12.55 -2.25L-15.05 -2.25L-15.35 -1.95L-15.35 -1.65Q-15.35 -1.35 -15.65 -1.35Q-16 -1.35 -16 -1.65L-16 -2.15Q-16 -2.75 -15.35 -2.75L-14.15 -2.75L-14.15 -3.05L-13.85 -3.35Q-13.55 -3.35 -13.55 -3.05L-13.55 -2.75M-16.3,-1.95L-16.9 -0.75L-17.3 -0.35L-16.7 -0.45L-16.7 -0.65L-16.5 -0.85L-16.3 -0.75L-16 0.1L-16 0.3Q-16 0.6 -16.3 0.6L-16.5 0.4L-16.5 0L-16.6 0L-16.9 0.1L-16.9 3.3L-17.2 3.5L-17.5 3.3L-17.5 0.2L-18.2 0.4Q-18.5 0.45 -18.5 0L-18.2 -0.25L-18 -0.25L-17.5 -0.95L-18 -1.35Q-18.15 -1.55 -18.4 -1.55L-18.5 -1.85Q-18.5 -2.05 -18.2 -2.05L-18 -2.05L-17.4 -3.25L-17.2 -3.35L-16.9 -3.25L-16.8 -3.15L-16.9 -2.95L-17.5 -1.75L-17.2 -1.45L-16.7 -2.35L-16.5 -2.35L-16.3 -2.35L-16.2 -2.15L-16.3 -1.95M-15.15,-1.05L-14.95 -1.35L-12.75 -1.35L-12.55 -1.05Q-12.6 -0.75 -12.75 -0.75L-14.95 -0.75Q-15.2 -0.75 -15.15 -1.05M-15.55,-0.15L-12.05 -0.15L-11.85 0.1Q-11.9 0.4 -12.05 0.4L-13.55 0.4L-13.55 2.9Q-13.55 3.5 -14.15 3.5L-14.75 3.4L-14.95 3.1L-14.75 2.8L-14.65 2.8L-14.25 2.9L-14.05 2.7L-14.05 0.4L-15.55 0.4L-15.9 0.1L-15.55 -0.15M-16.7,1.1Q-16.7 0.85 -16.4 0.9Q-16.25 0.85 -16.2 1L-16 2.1L-16 2.3L-16.2 2.6L-16.5 2.3L-16.6 1.2L-16.7 1.1M-14.95,0.9L-14.75 1L-14.65 1.2L-14.65 1.3L-15.35 3L-15.65 3.1L-16 2.9L-15.9 2.7L-15.15 1.1L-14.95 0.9M-12.65,1L-12.45 1.1L-11.75 2.7L-11.75 3L-12.05 3.2L-12.25 3L-12.85 1.3L-12.95 1.2Q-12.95 0.95 -12.65 1M-18,0.8Q-17.7 0.8 -17.7 1.1L-17.8 1.3L-18 3L-18.3 3.2L-18.5 3L-18.5 2.8L-18.3 1Q-18.25 0.85 -18 0.8" />
</g>
</svg>
