<?xml version="1.0" encoding="utf-8"?>
<svg version="1.1" id="Layer_1"
xmlns="http://www.w3.org/2000/svg"
xmlns:xlink="http://www.w3.org/1999/xlink"
xmlns:author="http://www.sothink.com"
width="15px" height="8px"
xml:space="preserve">
<g id="16" transform="matrix(1, 0, 0, 1, 7.4, 3.7)">
<path style="fill:#D87720;fill-opacity:1" d="M2.1,-3.6L2.4 -3.3L2.4 -2L2.9 -2L3.1 -1.7L2.9 -1.4L2.4 -1.4L2.4 0.3Q2.7 0.3 2.8 0.1L2.9 0.1L3.2 0.4L3.1 0.6L2.4 1.1L2.4 3.4L2.1 3.7L1.9 3.4L1.9 1.4L1 1.8L0.8 1.8Q0.5 1.8 0.5 1.5Q0.5 1.2 0.8 1.2L1.8 0.7L1.9 0.7L1.9 -1.4L1.3 -1.4L1 -0.2Q0.95 0.1 0.6 0.1L0.4 -0.1L0.4 -0.4Q0.85 -1.4 0.8 -2.9Q0.8 -3.2 1.1 -3.2L1.4 -2.9L1.3 -2L1.9 -2L1.9 -3.3L2.1 -3.6M-1.1,-1.7L-3.5 -1.7L-3.5 0.2L-1.3 0.2L-1.1 0.5L-1.3 0.8L-3.5 0.8L-3.5 2.8L-0.8 2.8Q-0.45 2.8 -0.45 3.1Q-0.45 3.4 -0.8 3.4L-7.1 3.4L-7.4 3.1L-7.1 2.8L-4.1 2.8L-4.1 0.8L-6.5 0.8L-6.8 0.5L-6.5 0.2L-4.1 0.2L-4.1 -1.7L-5.9 -1.7L-5.9 -1.6L-6.7 -0.3L-7 -0.2Q-7.4 -0.2 -7.4 -0.5L-7.3 -0.7L-6.6 -1.8Q-6.3 -2.35 -6.3 -3.2L-6 -3.5L-5.6 -3.2L-5.8 -2.3L-4.1 -2.3L-4.1 -3.4L-3.8 -3.7Q-3.5 -3.7 -3.5 -3.4L-3.5 -2.3L-1.1 -2.3Q-0.8 -2.3 -0.8 -2Q-0.8 -1.7 -1.1 -1.7M7.4,-2L7.3 2Q7.15 2.95 6.8 3.3Q6.5 3.65 5.9 3.7L5 3.5L4.8 3.1Q4.8 2.75 5.1 2.7L5.9 3L6.4 2.7L6.7 1.8L6.8 -1.7L6.6 -2L6.4 -2L6.4 -1.7L5.9 0.4L5.1 2L3.9 3.4L3.7 3.5L3.5 3.4L3.4 3.1L3.5 2.9L4.7 1.6L5.4 0.1L5.8 -2L5.3 -2L5.2 -1.9Q5.1 -0.85 4.8 -0.3L4.1 1.1L3.4 2L3.2 2L3 1.9L2.9 1.7L3 1.4L3.7 0.6L4.3 -0.6L4.7 -2L4.1 -2L4 -1.8L3.4 -0.5L3.1 -0.3Q2.8 -0.3 2.8 -0.6L2.8 -0.8L3.5 -2L3.7 -3.3Q3.7 -3.6 4 -3.6L4.3 -3.3L4.2 -2.6L6.8 -2.6Q7.4 -2.6 7.4 -2" />
</g>
</svg>
