<?xml version="1.0" encoding="utf-8"?>
<svg version="1.1" id="Layer_1"
xmlns="http://www.w3.org/2000/svg"
xmlns:xlink="http://www.w3.org/1999/xlink"
xmlns:author="http://www.sothink.com"
width="55px" height="8px"
xml:space="preserve">
<g id="33" transform="matrix(1, 0, 0, 1, 27.5, 3.75)">
<path style="fill:#4EA7A3;fill-opacity:1" d="M-10.85,-2.15L-10.85 -3.35L-10.55 -3.65Q-10.25 -3.65 -10.25 -3.35L-10.25 -2.15L-9.85 -2.15Q-9.55 -2.15 -9.55 -1.85Q-9.55 -1.45 -9.85 -1.45L-10.25 -1.45L-10.25 -0.15L-9.95 -0.35L-9.85 -0.35Q-9.55 -0.35 -9.55 -0.05L-9.65 0.15L-10.25 0.55L-10.25 2.95Q-10.2 3.65 -10.95 3.65L-11.45 3.55L-11.65 3.25L-11.45 2.95L-11.35 2.95L-11.05 3.05Q-10.8 3.05 -10.85 2.75L-10.85 0.85L-11.25 1.05L-11.35 1.05L-11.65 0.75L-11.45 0.35L-10.85 0.15L-10.85 -1.45L-11.35 -1.45Q-11.65 -1.45 -11.65 -1.85L-11.35 -2.15L-10.85 -2.15M-13.75,-3.65Q-13.3 -3.65 -13.35 -3.35L-13.35 1.15L-12.75 1.05Q-12.45 1.05 -12.45 1.35Q-12.45 1.65 -12.75 1.65L-13.35 1.75L-13.35 3.45Q-13.3 3.75 -13.75 3.75L-14.05 3.45L-14.05 1.95L-16.45 2.25L-16.75 1.95L-16.45 1.65L-14.05 1.25L-14.05 -3.35L-13.75 -3.65M-14.85,-1.75L-15.55 -2.25L-16.05 -2.65L-16.15 -2.85L-15.85 -3.15L-15.65 -3.05L-15.05 -2.65L-14.35 -2.05L-14.35 -1.85L-14.65 -1.65L-14.85 -1.75M-14.65,0.05L-14.65 0.15Q-14.65 0.45 -14.95 0.45L-15.15 0.35L-15.85 -0.35L-16.35 -0.75L-16.45 -0.95L-16.15 -1.25L-15.95 -1.15L-15.35 -0.75L-14.65 0.05M-6.95,-3.35L-6.95 0.45L-5.55 0.45Q-5.1 0.4 -5.05 0.85L-5.25 1.25L-6.35 2.25L-6.55 2.45L-5.95 2.65L-4.75 2.95L-4.55 3.25Q-4.5 3.65 -4.95 3.65L-6.05 3.35L-7.25 2.85L-7.45 2.95L-9.05 3.55L-9.45 3.65Q-9.85 3.65 -9.85 3.25L-9.55 2.95L-8.35 2.65L-7.95 2.55L-8.85 1.75L-9.05 1.45L-8.75 1.15L-8.55 1.25L-7.35 2.05L-7.15 2.15L-6.95 2.05L-5.95 1.25L-5.85 1.05L-5.85 0.95L-9.15 0.95L-9.45 0.65Q-9.45 0.45 -9.15 0.45L-7.55 0.45L-7.55 -3.35Q-7.55 -3.75 -7.25 -3.75Q-6.95 -3.75 -6.95 -3.35M-5.55,-3.35Q-4.95 -3.35 -4.95 -2.75L-4.95 -0.75Q-4.95 -0.15 -5.55 -0.15L-6.45 -0.15L-6.75 -0.45L-6.45 -0.75L-5.65 -0.75L-5.45 -0.95L-5.45 -1.45L-6.35 -1.45L-6.65 -1.75L-6.35 -2.05L-5.45 -2.05L-5.45 -2.55Q-5.45 -2.65 -5.75 -2.75L-6.45 -2.75L-6.75 -3.05L-6.45 -3.35L-5.55 -3.35M-8.85,-3.25L-8.25 -3.45L-8.15 -3.45Q-7.85 -3.45 -7.85 -3.15L-8.05 -2.85L-8.65 -2.75L-8.85 -2.45L-8.85 -2.05L-8.15 -2.05Q-7.85 -2.05 -7.85 -1.75Q-7.85 -1.45 -8.15 -1.45L-8.85 -1.45L-8.85 -1.15Q-8.85 -0.75 -8.45 -0.75L-7.95 -0.75Q-7.65 -0.75 -7.65 -0.45Q-7.65 -0.15 -7.95 -0.15L-8.85 -0.15Q-9.45 -0.15 -9.45 -0.75L-9.45 -2.55L-9.25 -3.05L-8.85 -3.25M-22.85,-2.85L-22.85 -2.35L-22.65 -2.05L-22.05 -1.85L-20.95 -1.65L-20.65 -1.35Q-20.65 -1.05 -20.95 -1.05L-22.25 -1.25L-22.95 -1.55L-23.15 -1.85L-23.35 -1.55Q-23.5 -1.4 -23.95 -1.25L-25.2 -1.05L-25.5 -1.35L-25.3 -1.65L-24.15 -1.85L-23.55 -2.05L-23.45 -2.35L-23.45 -2.85L-24.35 -2.85L-24.35 -2.75L-24.8 -2.15L-25.1 -2.05L-25.4 -2.35L-25.4 -2.45L-24.9 -2.95L-24.7 -3.45L-24.55 -3.75Q-24.25 -3.75 -24.25 -3.45L-24.25 -3.35L-21.25 -3.35Q-20.65 -3.35 -20.65 -2.75L-20.75 -2.55L-20.85 -2.05L-21.15 -1.95L-21.45 -2.25L-21.45 -2.35L-21.25 -2.55L-21.45 -2.85L-22.85 -2.85M-25.6,-1.65L-26.2 -1.35Q-26.8 -1.05 -27.1 -1.05L-27.3 -0.95L-27.5 -1.35L-27.3 -1.65L-26.7 -1.85L-25.9 -2.15L-25.8 -2.15Q-25.5 -2.15 -25.5 -1.85L-25.6 -1.65M-21.65,0.65L-26.5 0.65L-26.5 0.95L-21.65 0.95L-21.65 0.65M-21.65,-0.05L-21.85 -0.25L-26.3 -0.25L-26.5 -0.05L-26.5 0.15L-21.65 0.15L-21.65 -0.05M-21.05,-0.35L-21.05 1.95Q-21.1 2.5 -21.55 2.45L-22.85 2.45L-20.85 3.05L-20.65 3.25Q-20.65 3.65 -20.95 3.65L-21.15 3.65L-23.25 2.95L-23.45 2.75L-23.35 2.45L-24.8 2.45L-24.65 2.75L-24.7 2.95L-26.9 3.65L-27.1 3.65L-27.4 3.35L-27.3 3.05L-25.1 2.45L-26.5 2.45Q-27.05 2.5 -27 1.95L-27 -0.35Q-27.05 -0.8 -26.5 -0.85L-21.55 -0.85Q-21.1 -0.8 -21.05 -0.35M-16.45,-2.85L-16.45 -2.65L-16.85 -1.35L-17.05 -1.15L-17.35 -1.45L-17.35 -1.55L-16.95 -2.85L-16.75 -3.05L-16.55 -2.95L-16.45 -2.85M-17.65,-3.35L-17.65 -0.65L-16.85 -0.65Q-16.55 -0.65 -16.55 -0.35Q-16.55 -0.05 -16.85 -0.05L-17.65 -0.05L-16.75 1.05L-16.65 1.25Q-16.65 1.55 -16.95 1.55L-17.15 1.45L-17.65 0.75L-17.65 3.45Q-17.65 3.75 -17.95 3.75L-18.25 3.45L-18.25 1.05L-18.55 1.45L-19.15 2.35L-19.45 2.55L-19.75 2.25L-19.55 1.95L-18.65 0.55L-18.35 -0.05L-19.35 -0.05L-19.65 -0.35L-19.35 -0.65L-18.25 -0.65L-18.25 -3.35Q-18.25 -3.75 -17.95 -3.75Q-17.65 -3.75 -17.65 -3.35M-18.95,-2.85L-18.65 -1.65L-18.65 -1.45Q-18.65 -1.15 -18.95 -1.15L-19.15 -1.45L-19.45 -2.75L-19.55 -2.85L-19.25 -3.05Q-19.1 -3.05 -18.95 -2.85M-21.65,1.55L-26.5 1.55L-26.5 1.65L-26.3 1.95L-21.85 1.95L-21.65 1.65L-21.65 1.55M9.05,-2.75L6.45 -2.75L6.35 -1.35L8.85 -1.35L9.25 -2.55L9.05 -2.75M4.75,-2.75Q4.45 -2.75 4.45 -3.05Q4.45 -3.35 4.75 -3.35L9.45 -3.35Q10 -3.3 9.95 -2.85L9.55 -1.35L10.65 -1.35Q11.1 -1.3 11.05 -0.85L10.85 -0.15L9.95 1.15L9.25 1.85L9.95 2.25L11.25 2.75L11.45 3.15Q11.45 3.55 11.15 3.55L10.95 3.55Q10.05 3.15 9.45 2.75L8.65 2.25L8.65 2.35Q7.6 3.1 6.25 3.55L5.95 3.65Q5.6 3.6 5.55 3.25Q5.55 2.95 5.85 2.95L7.95 1.95L8.15 1.85L7.35 0.85L6.65 -0.75L6.25 -0.75L6.05 0.55Q5.65 2.05 4.75 3.45L4.45 3.55Q4.2 3.55 4.25 3.25L4.25 3.15L5.45 0.35L5.85 -2.75L4.75 -2.75M7.95,0.65L8.75 1.45L9.35 0.85L10.15 -0.25L10.35 -0.55L10.25 -0.75L7.35 -0.75L7.95 0.65M14.35,-0.85L13.75 -0.75L13.55 -0.95L13.75 -1.25L14.35 -1.35L14.35 -1.65Q14.35 -1.9 14.65 -1.85Q14.95 -1.9 14.95 -1.65L14.95 -1.35L17.45 -1.75L17.75 -1.45L17.45 -1.25L14.95 -0.85L15.25 -0.65L16.35 -0.65L17.45 -0.75Q17.55 -0.7 17.65 -0.85L17.85 -1.15L18.15 -0.85L17.95 -0.25L17.65 -0.15L16.35 -0.15L14.75 -0.25Q14.35 -0.3 14.35 -0.65L14.35 -0.85M13.25,-1.75L13.25 0.05L13.15 2.15L12.85 3.25L12.55 3.45Q12.25 3.45 12.25 3.15L12.55 1.75L12.65 0.05L12.65 -1.95Q12.65 -2.55 13.25 -2.55L14.85 -2.55L14.85 -3.45Q14.85 -3.75 15.15 -3.75L15.45 -3.45L15.45 -3.35L18.05 -3.35L18.25 -3.15Q18.25 -2.85 18.05 -2.85L15.45 -2.85L15.45 -2.55L18.65 -2.55Q19.2 -2.55 19.15 -1.95L19.15 -1.65L19.05 -1.05L18.75 -0.85Q18.45 -0.85 18.45 -1.15L18.45 -1.35L18.55 -1.65L18.55 -1.75L18.45 -1.95L13.45 -1.95L13.25 -1.75M14.35,0.85L14.25 1.15L14.75 2.15L14.85 2.25L15.35 1.55L15.55 0.95L15.35 0.75L14.55 0.75L14.35 0.85M14.45,0.25L15.55 0.25Q16.15 0.25 16.15 0.75L15.85 1.75L15.25 2.65L15.55 2.75L16.65 2.95L17.55 2.95L19.05 2.85L19.35 3.15L19.05 3.55L16.15 3.55L15.55 3.45Q15.15 3.3 14.85 2.95L13.75 3.55L13.45 3.65Q13.3 3.65 13.25 3.25L13.35 2.95L14.45 2.55L14.05 1.75L13.75 1.95L13.65 2.05Q13.35 2.05 13.35 1.75L13.35 1.45L13.75 1.05L14.05 0.45Q14.05 0.3 14.45 0.25M-2.45,-2.45L-2.45 -1.95L-0.35 -1.95L-0.35 -2.45L-2.45 -2.45M-2.15,-3.05L-0.25 -3.05L0.05 -3.55L0.25 -3.75L0.45 -3.65L0.55 -3.35L0.45 -3.25L0.35 -3.05L2.85 -3.05L3.15 -2.75L2.85 -2.45L0.25 -2.45L0.25 -1.95L2.65 -1.95Q2.95 -1.95 2.95 -1.75L2.65 -1.35L0.25 -1.35L0.25 -0.95L2.65 -0.95L2.95 -0.65L2.65 -0.35L0.25 -0.35L0.25 0.15L2.95 0.15L3.25 0.45L2.95 0.75L0.15 0.75L0.25 1.05L0.25 1.25L3.05 1.25Q3.35 1.25 3.35 1.65L3.05 1.95L0.55 1.95L1.55 2.35L3.15 2.95L3.35 3.35L3.05 3.65L2.75 3.55L1.45 3.05L0.25 2.35L0.25 3.45L-0.05 3.75L-0.35 3.45L-0.35 2.45L-1.25 2.85L-3.15 3.55L-3.35 3.55L-3.65 3.25L-3.45 2.95L-1.45 2.35L-0.65 1.95L-3.35 1.95L-3.65 1.65Q-3.65 1.25 -3.35 1.25L-0.35 1.25L-0.35 1.05L-0.25 0.75L-2.45 0.75Q-3.05 0.75 -3.05 0.15L-3.05 -1.65L-3.45 -1.45L-3.75 -1.75L-3.65 -1.85L-3.05 -2.65L-2.65 -3.55L-2.35 -3.75Q-2.05 -3.75 -2.05 -3.45L-2.05 -3.35L-2.15 -3.05M-0.35,-1.35L-2.45 -1.35L-2.45 -0.95L-0.35 -0.95L-0.35 -1.35M-2.25,0.15L-0.35 0.15L-0.35 -0.35L-2.45 -0.35L-2.45 -0.15L-2.25 0.15M27,-2.85L27 -0.25Q26.95 0.35 26.5 0.35L25.2 0.35L25.2 1.25L26.8 1.25L27.1 1.55L26.8 1.85L25.2 1.85L25.2 2.85L27.2 2.85L27.5 3.15L27.2 3.45L22.7 3.45L22.5 3.15Q22.5 2.85 22.7 2.85L24.6 2.85L24.6 1.85L23.1 1.85Q22.85 1.85 22.9 1.55Q22.85 1.25 23.1 1.25L24.6 1.25L24.6 0.35L23.4 0.35Q22.85 0.35 22.9 -0.25L22.9 -2.85Q22.85 -3.45 23.4 -3.45L26.5 -3.45Q26.95 -3.45 27 -2.85M25.2,-2.85L25.2 -1.85L26.4 -1.85L26.4 -2.55L26.2 -2.85L25.2 -2.85M25.2,-1.35L25.2 -0.25L26.2 -0.25L26.4 -0.55L26.4 -1.35L25.2 -1.35M16.95,0.25L17.85 0.25Q18.45 0.25 18.45 0.75L18.45 1.85L18.55 2.05L18.75 1.95L18.75 1.75L18.85 1.35Q18.8 1.15 19.05 1.15L19.35 1.45L19.25 2.25L19.05 2.55L18.75 2.65L18.35 2.65Q17.9 2.6 17.85 1.95L17.85 1.05L17.75 0.75L17.25 0.75L17.15 1.05L17.15 1.25L16.95 2.05L16.65 2.65L16.35 2.75L16.15 2.45L16.15 2.25L16.45 1.75L16.55 1.15L16.55 0.75Q16.6 0.25 16.95 0.25M23.7,-2.85Q23.4 -2.85 23.4 -2.55L23.4 -1.85L24.6 -1.85L24.6 -2.85L23.7 -2.85M21.8,-2.75L21.8 -0.65L22.3 -0.65L22.6 -0.35L22.3 -0.05L21.8 -0.05L21.8 2.15L22.4 1.75L22.6 1.65L22.9 2.05L22.7 2.25L21.9 2.75L20.7 3.35L20.5 3.35Q20.2 3.35 20.2 3.05L20.4 2.65L21.2 2.45L21.2 -0.05L20.6 -0.05Q20.35 -0.05 20.4 -0.35Q20.35 -0.65 20.6 -0.65L21.2 -0.65L21.2 -2.75L20.5 -2.75Q20.2 -2.75 20.2 -3.05Q20.2 -3.35 20.5 -3.35L22.4 -3.35L22.6 -3.05L22.4 -2.75L21.8 -2.75M23.7,-0.25L24.6 -0.25L24.6 -1.35L23.4 -1.35L23.4 -0.55Q23.4 -0.25 23.7 -0.25M-25.7,-3.25Q-25.4 -3.25 -25.4 -2.95Q-25.4 -2.65 -25.7 -2.65L-27.2 -2.65L-27.4 -2.95L-27.2 -3.25L-25.7 -3.25" />
</g>
</svg>
