<?xml version="1.0" encoding="utf-8"?>
<svg version="1.1" id="Layer_1"
xmlns="http://www.w3.org/2000/svg"
xmlns:xlink="http://www.w3.org/1999/xlink"
xmlns:author="http://www.sothink.com"
width="25px" height="54px"
xml:space="preserve">
<g id="54" transform="matrix(1, 0, 0, 1, 8.9, 31.6)">
<path style="fill:#BABB56;fill-opacity:1" d="M-2.65,-22.2Q-3.45 -22.2 -4.65 -22.8Q-6.35 -23.55 -6.9 -25L-7.05 -26Q-6.9 -26.85 -5.65 -28.35L-2.95 -30.85Q-1.45 -31.9 -0.55 -31.5Q-0.15 -31.35 0 -30.8Q0.35 -29.65 0.1 -27.9L-0.55 -24.6Q-1 -23.05 -1.4 -22.75Q-2 -22.3 -2.65 -22.2" />
<path style="fill:#9C5D32;fill-opacity:1" d="M-4.1,-22.65L-5.05 -20.6L-6.6 -17L-7.7 -14.75Q-7.9 -14.4 -8.35 -14.55L-8.9 -15L-8.85 -15.4L-7.65 -17.65L-5.9 -21.3L-5.05 -23.15L-4.35 -23.35L-4.05 -23L-4.1 -22.65" />
<path style="fill:#FEDEA2;fill-opacity:1" d="M-2,-10.55Q-0.75 -9.3 0.4 -8.5Q1.5 -7.75 2.2 -7.7Q2.95 -7.65 2.95 -8.25Q3 -8.8 2.65 -9.35L2.35 -9.95L-5.3 -17.65Q-5.05 -18.25 -5.3 -18.65L-5.85 -19.4L-6.15 -19.7L-6.25 -19.75L-6.45 -20.05L-6.65 -19.75L-6.75 -19.4L-6.95 -19.55L-7.25 -19.5L-7.45 -19.15L-7.45 -18.95L-7.6 -18.9L-7.85 -18.8L-8 -18.35L-7.95 -18.05L-8.15 -18L-8.55 -17.75Q-8.65 -17.55 -8.2 -17.25L-7.2 -16.55L-6.65 -16.15L-4.6 -13.3Q-3.4 -11.85 -2 -10.55" />
<path style="fill:#3C85AE;fill-opacity:1" d="M0.5,4.35L0.5 5.5L0.45 8.3L0.4 11.8L0.3 14.9L0.25 16.65L-0.1 18.15L-0.95 19.5Q-1.55 20.1 -2.4 20.05Q-3.25 20.05 -3.4 20.35L-2.95 21.1L-1.45 21.55L0.55 21.75L2.15 21.85L2.8 21.95L5.25 5.85L0.5 4.35" />
<path style="fill:#F2E503;fill-opacity:1" d="M-0.45,15.45L-0.55 17.25L-0.65 18.7Q-0.75 19.15 -1.55 19.5L-3.2 20.05L-4.1 20.2Q-3.2 21.2 -1.85 21.55L0.9 21.9L2.95 22.2L3.6 19.15L3.95 16.55L4.05 15.45L-0.4 14.55L-0.45 15.45" />
<path style="fill:#3C85AE;fill-opacity:1" d="M6.5,4.9L6.2 3.25L0.9 4.25Q1.9 5.25 2.7 7.05L3.95 11L4.8 15.05L5.25 18.2L5.4 19.5Q4.95 19.95 4.1 20.2L2.55 20.5L1.85 20.55Q2.4 21.1 3.45 21.3L5.6 21.45L7.5 21.35L8.3 21.3Q8.65 20.45 8.6 18.4L8.1 13.8L7.3 8.85L6.5 4.9" />
<path style="fill:#F2E503;fill-opacity:1" d="M4.8,15.9L4.95 17.7L5 19.2L4.2 19.95L2.65 20.4L1.8 20.6Q2.75 21.4 4.1 21.6L6.6 21.7L8.5 21.7L8.75 18.6L8.8 15.95L8.75 14.85L4.8 15L4.8 15.9" />
<path style="fill:#FEDEA2;fill-opacity:1" d="M-0.45,-14.2Q0.1 -13.15 0.8 -12.6Q1.55 -12.05 2.1 -12.05Q2.9 -12 2.95 -11.55L2.9 -10.95L4.75 -10.95L4.65 -11.6Q4.6 -12.15 5.2 -12.3L6.25 -12.8L7.65 -14.2Q8.25 -15.15 8.3 -16.65Q8.25 -18.9 6.9 -20.2Q5.6 -21.45 3.85 -21.5L1.6 -21Q0.5 -20.55 -0.2 -19.5Q-0.95 -18.5 -1 -16.9Q-0.95 -15.3 -0.45 -14.2" />
<path style="fill:#F2FAB7;fill-opacity:1" d="M2.9,-11.1L2.25 -9.75Q1.9 -8.95 1.85 -8.4L1.65 -6.6L1.3 -3.35L0.8 0.3L0.4 3.35L0.2 4.6L7.1 6.6L7.05 5.5L6.9 2.8L6.75 -0.6L6.6 -3.9L6.55 -6.15L6.15 -8.25L5.4 -9.9Q5 -10.7 5 -11.7L3.25 -11.7L2.9 -11.1" />
<path style="fill:#000000;fill-opacity:1" d="M1.6,-17.05Q1.25 -17 1.2 -16.65Q1.25 -16.3 1.6 -16.25Q2 -16.3 2.05 -16.65L1.6 -17.05" />
<path style="fill:#000000;fill-opacity:1" d="M4.1,-16.6Q4.1 -16.2 4.4 -16.15L4.75 -16.6L4.4 -17L4.1 -16.6" />
<path style="fill:none;stroke-width:0.25;stroke-linecap:round;stroke-linejoin:round;stroke-miterlimit:3;stroke:#000000;stroke-opacity:1" d="M1.8,-14.55L2.1 -14.1Q2.35 -13.7 2.95 -13.6Q3.55 -13.5 4.45 -14.35" />
<path style="fill:none;stroke-width:0.25;stroke-linecap:round;stroke-linejoin:round;stroke-miterlimit:3;stroke:#000000;stroke-opacity:1" d="M2.95,-16.6L2.95 -16.2L2.75 -16.2L2.35 -16L2.3 -15.55Q2.4 -15.3 2.8 -15.3" />
<path style="fill:#452725;fill-opacity:1" d="M0.2,-21.1Q-1.05 -20.05 -1.55 -18.55L-2 -15.55L-1.75 -13.1L-1.55 -12.1L0.15 -12.1L0.5 -18.85L6.65 -18.35L6.6 -13L5.45 -12.2L6.6 -12.2L9.05 -12.15L11.25 -12.1L11.6 -12.1L11.4 -12.4L11.25 -13.8L10.35 -17.55Q9.75 -19.5 8.7 -20.5Q7.6 -21.55 6.55 -21.9L4.7 -22.3L3.95 -22.35Q1.5 -22.15 0.2 -21.1" />
<path style="fill:#FEDEA2;fill-opacity:1" d="M6.9,-10.65L5.35 -7.85Q4.85 -6.6 4.85 -5.95Q4.95 -5.15 5.45 -5.25Q6.05 -5.3 6.55 -5.7L7.15 -6.15L13.4 -14.9Q13.95 -14.85 14.35 -15.1L14.95 -15.7L15.15 -16.05L15.3 -16.2L15.5 -16.45Q15.6 -16.6 15.25 -16.6L14.85 -16.6L15 -16.8L14.95 -17.15L14.5 -17.3L14.25 -17.25L14.25 -17.4L14.1 -17.65L13.6 -17.7L13.3 -17.6L13.25 -17.8L12.95 -18.2L12.5 -17.75L11.95 -16.65L11.7 -16.05L9.2 -13.6L6.9 -10.65" />
<path style="fill:#F2FAB7;fill-opacity:1" d="M4.6,-7.7Q4.2 -6.65 4.4 -6.1L4.65 -5.6Q5.5 -4.65 6.25 -4.95Q7.05 -5.2 7.75 -6L8.85 -7.55L9.3 -8.4L6.85 -10.45Q5.05 -8.75 4.6 -7.7" />
</g>
</svg>
