<?xml version="1.0" encoding="utf-8"?>
<svg version="1.1" id="Layer_1"
xmlns="http://www.w3.org/2000/svg"
xmlns:xlink="http://www.w3.org/1999/xlink"
xmlns:author="http://www.sothink.com"
width="15px" height="8px"
xml:space="preserve">
<g id="22" transform="matrix(1, 0, 0, 1, 7.05, 3.55)">
<path style="fill:#019377;fill-opacity:1" d="M-6.55,-2.35L-5.55 -2.35L-6.05 -2.95L-6.05 -3.15L-5.75 -3.45L-5.65 -3.35L-5.05 -2.75L-5.05 -2.35L-4.15 -2.35L-4.15 -3.25L-3.85 -3.55Q-3.55 -3.55 -3.55 -3.25L-3.55 -2.35L-2.75 -2.35L-2.55 -2.55L-2.05 -3.25Q-1.9 -3.45 -1.75 -3.45L-1.55 -3.35L-1.55 -2.85L-1.95 -2.45L-2.05 -2.35L-1.15 -2.35L-0.65 -2.15L-0.55 -1.55L-0.55 -0.95Q-0.7 -0.7 -0.95 -0.75Q-1.2 -0.75 -1.15 -1.05L-1.15 -1.55L-1.35 -1.75L-6.25 -1.75L-6.55 -1.45L-6.55 -1.05Q-6.5 -0.75 -6.75 -0.75L-7.05 -1.05L-7.05 -1.85Q-7 -2.3 -6.55 -2.35M-5.45,-0.35L-5.25 -0.15L-2.25 -0.15L-2.05 -0.35L-2.05 -0.55L-2.25 -0.75L-5.25 -0.75L-5.45 -0.55L-5.45 -0.35M-5.45,-1.25L-2.05 -1.25Q-1.6 -1.25 -1.55 -0.75L-1.55 -0.15Q-1.6 0.35 -2.05 0.35L-3.55 0.35L-3.55 0.95L-1.55 0.95Q-0.95 0.95 -0.95 1.55L-0.95 2.55Q-1 3.2 -1.75 3.25L-2.65 3.05L-2.85 2.85Q-2.9 2.55 -2.65 2.55L-2.45 2.55L-1.75 2.65Q-1.6 2.65 -1.55 2.25L-1.55 1.75Q-1.55 1.55 -1.85 1.55L-3.55 1.55L-3.55 3.25Q-3.55 3.55 -3.85 3.55L-4.15 3.25L-4.15 1.55L-5.75 1.55L-5.95 1.75L-5.95 2.85Q-6 3.15 -6.35 3.15L-6.55 2.85L-6.55 1.55Q-6.55 0.95 -5.95 0.95L-4.15 0.95L-4.15 0.35L-5.45 0.35Q-5.95 0.35 -5.95 -0.15L-5.95 -0.75Q-5.95 -1.25 -5.45 -1.25M0.55,-2.9L0.75 -3.2L1.95 -3.2L2.15 -2.9Q2.2 -2.6 1.95 -2.6L0.75 -2.6Q0.5 -2.6 0.55 -2.9M0.55,-2.3L2.15 -2.3L2.35 -2L2.15 -1.7L0.55 -1.7Q0.4 -1.7 0.35 -2L0.55 -2.3M0.45,-1.1Q0.45 -1.35 0.75 -1.3L1.95 -1.3L2.15 -1.1Q2.2 -0.8 1.95 -0.8L0.75 -0.8Q0.45 -0.8 0.45 -1.1M3.25,-1.9L3.45 -1.3L3.45 -1.2Q3.45 -0.9 3.25 -0.9L3.05 -1L2.75 -1.5L2.75 -1.7Q2.75 -2 3.05 -2L3.25 -1.9M3.55,-3Q3.55 -3.3 3.85 -3.3L4.15 -3L4.15 -2.6L4.95 -2.6L5.25 -2.6L5.25 -3.1Q5.2 -3.3 5.45 -3.3L5.75 -3.1L5.85 -0.8L6.85 -0.8L7.05 -0.6Q7.05 -0.3 6.85 -0.3L5.85 -0.3L5.95 0.6L6.05 1.3L6.35 0.1Q6.35 -0.05 6.65 -0.1L6.85 0.1L6.75 0.3L6.45 1.6L6.25 2.1L6.35 2.4L6.45 2.6L6.45 2.5L6.55 1.9L6.75 1.6L7.05 1.9L6.85 3.1Q6.75 3.4 6.45 3.4Q6.2 3.4 6.05 3.1L5.85 2.8L5.35 3.4L5.25 3.5L5.05 3.4L4.95 3.2L5.05 3L5.55 2.3L5.65 2.1L5.65 2Q5.35 1 5.35 -0.3L2.55 -0.3Q2.3 -0.3 2.35 -0.6Q2.3 -0.85 2.55 -0.8L3.85 -0.8L3.95 -1.1L4.35 -1.9L4.55 -2L4.75 -1.9L4.85 -1.7L4.85 -1.5L4.55 -1L4.45 -0.8L5.25 -0.8L5.25 -2.2L4.95 -2.1L2.65 -2.1Q2.4 -2.1 2.45 -2.4Q2.4 -2.65 2.65 -2.6L3.55 -2.6L3.55 -3M1.95,-0.5L2.15 -0.2L1.95 0.1L0.75 0.1Q0.45 0.1 0.45 -0.2Q0.45 -0.5 0.75 -0.5L1.95 -0.5M5.95,-2.6L6.15 -2.8L6.45 -2.7L6.85 -1.8L6.95 -1.5L6.65 -1.3L6.45 -1.5L5.95 -2.5L5.95 -2.6M4.25,0.7L3.35 0.7L3.25 0.9L3.25 1.4L4.45 1.4L4.45 0.9L4.25 0.7M4.45,2L3.25 2L3.25 2.5L3.35 2.7L4.25 2.7L4.45 2.5L4.45 2M4.95,0.6L4.95 2.8Q4.9 3.25 4.45 3.3L3.15 3.3Q2.7 3.25 2.65 2.8L2.65 0.6Q2.7 0.1 3.15 0.1L4.45 0.1Q4.9 0.1 4.95 0.6M1.15,1.1L0.95 1.3L0.95 2.6L1.15 2.8L1.65 2.8L1.85 2.6L1.85 1.3L1.65 1.1L1.15 1.1M2.35,1L2.35 2.8Q2.35 3.35 1.85 3.3L0.85 3.3Q0.45 3.35 0.45 2.8L0.45 1Q0.45 0.55 0.85 0.6L1.85 0.6Q2.35 0.55 2.35 1" />
</g>
</svg>
