<?xml version="1.0" encoding="utf-8"?>
<svg version="1.1" id="Layer_1"
xmlns="http://www.w3.org/2000/svg"
xmlns:xlink="http://www.w3.org/1999/xlink"
xmlns:author="http://www.sothink.com"
width="45px" height="8px"
xml:space="preserve">
<g id="27" transform="matrix(1, 0, 0, 1, 22.25, 3.55)">
<path style="fill:#019377;fill-opacity:1" d="M19.35,-3.05L19.85 -2.45L20.55 -1.65L20.55 -1.45L20.25 -1.25L20.05 -1.25L19.45 -2.05L18.95 -2.55L18.85 -2.75Q18.85 -3.05 19.15 -3.05L19.35 -3.05M21.15,-3.45L21.45 -3.15L21.45 0.95L21.95 0.85L22.25 1.15L21.95 1.45L21.45 1.55L21.45 3.15L21.15 3.45Q20.85 3.45 20.85 3.15L20.85 1.65L18.15 2.05Q17.85 2.05 17.85 1.75Q17.85 1.45 18.15 1.45L20.85 1.05L20.85 -3.15Q20.85 -3.45 21.15 -3.45M20.15,0.25L19.85 0.45L19.65 0.45L19.05 -0.35L18.65 -0.85L18.55 -1.05Q18.55 -1.35 18.85 -1.35L19.05 -1.25L19.55 -0.75L20.15 0.05L20.15 0.25M3.45,-3.15Q3.45 -3.45 3.75 -3.45L4.05 -3.15L4.05 -2.85L6.35 -2.85L6.75 -2.55L6.95 -2.05L6.85 -1.45L6.55 -1.25Q6.25 -1.25 6.25 -1.55L6.35 -1.95L6.15 -2.25L1.35 -2.25Q1.05 -2.25 1.05 -1.95L1.05 -1.55L0.75 -1.25Q0.45 -1.25 0.45 -1.55L0.45 -2.25Q0.45 -2.85 1.05 -2.85L3.45 -2.85L3.45 -3.15M-0.8,1.25Q-0.5 1.25 -0.5 1.55Q-0.5 1.85 -0.8 1.85L-7.1 1.85L-7.3 1.55L-7.1 1.25L-6.8 1.25L-6.8 -2.45L-6.7 -2.85L-6 -3.15L-5.4 -3.25Q-5.1 -3.25 -5.1 -2.95L-5.3 -2.65L-5.9 -2.55L-6.3 -2.15L-6.3 -1.65L-5.3 -1.65Q-5 -1.65 -5 -1.35L-5.3 -1.15L-6.3 -1.15L-6.3 -0.15L-5.3 -0.15Q-5 -0.1 -5 0.05Q-5 0.35 -5.3 0.35L-6.3 0.35L-6.3 1.25L-4.8 1.25L-4.8 -0.25L-4.5 -0.55Q-4.2 -0.55 -4.2 -0.25L-4.2 1.25L-3.5 1.25L-3.5 -0.95L-3.7 -1.05L-4.4 -1.05Q-4.85 -1.05 -4.8 -1.55L-4.8 -3.15L-4.6 -3.45Q-4.3 -3.45 -4.3 -3.15L-4.3 -2.85L-3.1 -2.85L-2.9 -2.55L-3.1 -2.25L-4.3 -2.25L-4.3 -1.85L-4.1 -1.65L-3.4 -1.65Q-3 -1.6 -3 -1.25L-3 1.25L-1.5 1.25L-1.5 0.35L-2.5 0.35L-2.7 0.05L-2.5 -0.15L-1.5 -0.15L-1.5 -1.15L-2.5 -1.15L-2.8 -1.35L-2.5 -1.65L-1.5 -1.65L-1.5 -2.45L-1.7 -2.55L-2.5 -2.55Q-2.7 -2.55 -2.7 -2.85L-2.5 -3.15L-1.5 -3.15Q-1.05 -3.1 -1 -2.65L-1 1.25L-0.8 1.25M0.75,-0.25L6.65 -0.25L6.95 0.05L6.65 0.25L4.15 0.25L4.15 2.75Q4.15 3.35 3.35 3.35L2.45 3.25Q2.2 3.1 2.25 2.95Q2.25 2.65 2.45 2.65L2.55 2.65L3.25 2.85L3.55 2.55L3.55 0.25L0.75 0.25L0.45 0.05Q0.45 -0.25 0.75 -0.25M2.55,1.05L2.35 1.45Q1.8 2.5 1.05 3.05L0.85 3.05Q0.55 3.05 0.55 2.75L0.65 2.55L1.95 0.95L2.25 0.75L2.55 1.05M1.35,-1.25Q1.35 -1.55 1.65 -1.55L5.65 -1.55L5.95 -1.25L5.65 -0.95L1.65 -0.95Q1.35 -0.95 1.35 -1.25M8.25,-2.75L9.15 -2.75L9.15 -3.25Q9.15 -3.55 9.45 -3.55L9.75 -3.25L9.75 -2.75L10.35 -2.75L10.55 -2.65L10.75 -3.05Q10.75 -3.3 11.05 -3.25L11.15 -3.25L11.25 -3.05L11.25 -2.85Q11 -1.95 10.55 -1.35L11.15 -1.35L11.35 -1.15L11.15 -0.85L10.25 -0.85L9.85 -0.35L10.65 -0.35L10.95 0.05L10.85 0.35L10.25 1.05L10.15 1.05L10.25 1.15L11.15 0.85L11.25 0.85Q11.55 0.9 11.55 1.05Q11.55 1.35 11.35 1.35L10.55 1.65L10.55 1.75L10.65 2.35L10.35 3.25L9.55 3.45L8.65 3.25L8.45 3.05L8.75 2.65L9.55 2.85L9.95 2.75L10.15 2.35L10.05 1.85L9.85 1.85L8.15 2.25Q8 2.25 7.95 1.95Q8 1.65 8.15 1.65L9.55 1.35L9.75 1.35L9.65 1.15L9.55 1.05L9.65 0.75L10.25 0.25L10.25 0.15L9.35 0.15L8.25 1.05L8.15 1.05L7.95 0.95L7.85 0.75L7.95 0.55L9.05 -0.35L9.55 -0.85L8.15 -0.85Q7.85 -0.85 7.85 -1.15Q7.85 -1.35 8.15 -1.35L9.15 -1.35L9.15 -2.25L8.25 -2.25Q8 -2.25 8.05 -2.45L8.25 -2.75M5.55,0.85L6.15 1.55L6.95 2.55L6.95 2.85L6.65 3.05L6.35 3.05L5.75 1.95L5.15 1.25L5.15 1.05Q5.1 0.75 5.35 0.75L5.55 0.85M11.75,-3.15Q11.75 -3.45 12.05 -3.45L12.35 -3.15L12.35 -2.45L14.25 -2.45L14.55 -2.15L14.25 -1.85L13.95 -1.85L13.85 -0.75L13.55 0.85L13.35 1.35L13.55 1.85L14.55 2.75L14.65 3.05L14.35 3.35L13.85 3.05L12.95 1.95L12.75 2.25L11.45 3.35L11.25 3.35Q10.95 3.35 10.95 3.05L11.15 2.85L12.35 1.75L12.65 1.35L12.45 0.95L11.95 -0.55L11.65 0.25L11.35 0.35Q11.05 0.35 11.05 0.05L11.15 -0.15L11.65 -1.75L11.75 -3.15M12.25,-1.85Q12.3 -0.8 12.75 0.25L12.95 0.75L13.05 0.45L13.45 -1.85L12.25 -1.85M9.75,-2.25L9.75 -1.35L9.95 -1.35L10.05 -1.55L10.35 -2.25L9.75 -2.25M18.35,-3.15L18.05 -2.85L17.25 -2.65L17.25 -1.55L18.05 -1.55L18.25 -1.25Q18.25 -0.95 18.05 -0.95L17.25 -0.95L17.25 -0.75L18.35 0.45L18.35 0.65L18.15 0.95L17.85 0.85L17.25 -0.05L17.25 3.15L16.95 3.45Q16.65 3.45 16.65 3.15L16.65 0.15L16.25 0.95L15.85 1.45L15.65 1.55L15.35 1.35L15.45 1.05L16.15 -0.15L16.45 -0.95L15.75 -0.95Q15.45 -0.95 15.45 -1.25Q15.45 -1.55 15.75 -1.55L16.65 -1.55L16.65 -2.55L15.85 -2.55Q15.55 -2.55 15.55 -2.85Q15.55 -3.15 15.85 -3.15L16.95 -3.15L18.05 -3.45L18.35 -3.15M-1,3.35L-2.9 2.55L-3.1 2.35L-2.8 2.05L-2.5 2.05L-0.7 2.75L-0.5 3.05Q-0.5 3.35 -0.8 3.35L-1 3.35M-16.8,-2.65L-15.6 -2.15L-15.4 -1.95Q-15.4 -1.5 -15.7 -1.55L-15.9 -1.55L-17 -2.15L-18 -2.85L-18.1 -2.95L-18.2 -2.85Q-18.7 -2.4 -19.3 -2.05Q-19.6 -1.7 -20.25 -1.55L-20.35 -1.55L-20.65 -1.85L-20.45 -2.15Q-19.75 -2.35 -19.4 -2.65L-18.4 -3.35L-18.1 -3.55L-17.6 -3.25L-16.8 -2.65M-20.75,-3.45Q-20.45 -3.45 -20.45 -3.25L-20.45 -3.05L-20.95 -1.35L-20.95 3.25Q-20.95 3.55 -21.25 3.55L-21.55 3.25L-21.55 -0.25L-21.65 0.05L-21.95 0.15L-22.25 -0.15L-22.15 -0.35L-21.45 -1.55L-20.95 -3.35L-20.75 -3.45M-19.1,0.95L-19.1 -0.25L-19.65 -0.25L-19.85 0.05L-19.85 0.95L-19.1 0.95M-19.85,-0.75L-16.3 -0.75Q-15.7 -0.75 -15.7 -0.15L-15.7 2.75Q-15.75 3.35 -16.4 3.35L-16.8 3.35L-17 3.05Q-17.05 2.75 -16.8 2.75L-16.7 2.75L-16.5 2.85L-16.3 2.45L-16.3 1.55L-17.2 1.55L-17.2 3.15L-17.5 3.35L-17.8 3.15L-17.8 1.55L-18.6 1.55L-18.6 3.15L-18.9 3.35L-19.1 3.15L-19.1 1.55L-19.85 1.55L-19.85 3.15Q-19.85 3.45 -20.15 3.45L-20.45 3.15L-20.45 -0.15Q-20.45 -0.75 -19.85 -0.75M-19.75,-1.55L-19.5 -1.75L-16.6 -1.75L-16.3 -1.55Q-16.3 -1.25 -16.6 -1.25L-19.5 -1.25Q-19.75 -1.25 -19.75 -1.55M-17.2,-0.25L-17.2 0.95L-16.3 0.95L-16.3 0.05L-16.5 -0.25L-17.2 -0.25M-18.6,0.95L-17.8 0.95L-17.8 -0.25L-18.6 -0.25L-18.6 0.95M-11.7,-2.45L-11.7 -1.75L-10.6 -1.75L-10.6 -2.65L-11.5 -2.65L-11.7 -2.45M-13.3,-2.55L-13.3 -0.65L-12.7 -0.65L-12.5 -0.35L-12.7 -0.05L-13.3 -0.05L-13.3 1.95L-12.7 1.65L-12.5 1.55L-12.3 1.95L-12.4 2.15L-13.2 2.65L-14.3 3.15L-14.5 3.15L-14.8 2.85L-14.5 2.55L-13.8 2.25L-13.8 -0.05L-14.4 -0.05Q-14.6 -0.05 -14.6 -0.35L-14.4 -0.65L-13.8 -0.65L-13.8 -2.55L-14.5 -2.55Q-14.75 -2.55 -14.7 -2.85L-14.5 -3.15L-12.7 -3.15Q-12.45 -3.15 -12.5 -2.85Q-12.45 -2.55 -12.7 -2.55L-13.3 -2.55M-11.8,-3.25L-8.8 -3.25Q-8.35 -3.2 -8.3 -2.75L-8.3 -0.25Q-8.35 0.3 -8.8 0.25L-10 0.25L-10 1.15L-8.5 1.15L-8.3 1.45L-8.5 1.75L-10 1.75L-10 2.75L-8.2 2.75Q-7.9 2.8 -7.9 2.95Q-7.9 3.25 -8.2 3.25L-12.4 3.25L-12.6 2.95L-12.4 2.75L-10.6 2.75L-10.6 1.75L-12 1.75L-12.3 1.45L-12 1.15L-10.6 1.15L-10.6 0.25L-11.8 0.25Q-12.3 0.3 -12.3 -0.25L-12.3 -2.75Q-12.3 -3.2 -11.8 -3.25M-11.7,-0.55Q-11.7 -0.25 -11.5 -0.25L-10.6 -0.25L-10.6 -1.25L-11.7 -1.25L-11.7 -0.55M-10,-2.65L-10 -1.75L-8.9 -1.75L-8.9 -2.45L-9.1 -2.65L-10 -2.65M-8.9,-1.25L-10 -1.25L-10 -0.25L-9.1 -0.25L-8.9 -0.55L-8.9 -1.25M-4.6,2.35L-4.7 2.55Q-5.45 3.05 -6.6 3.35L-6.8 3.35L-7.2 3.05L-7 2.75Q-5.85 2.5 -5.1 2.05L-4.9 2.05Q-4.6 2.05 -4.6 2.35" />
</g>
</svg>
