<?xml version="1.0" encoding="utf-8"?>
<svg version="1.1" id="Layer_1"
xmlns="http://www.w3.org/2000/svg"
xmlns:xlink="http://www.w3.org/1999/xlink"
xmlns:author="http://www.sothink.com"
width="15px" height="7px"
xml:space="preserve">
<g id="25" transform="matrix(1, 0, 0, 1, 7.2, 3.5)">
<path style="fill:#019377;fill-opacity:1" d="M6.7,-2.2L6.7 -0.4Q6.7 0.2 6.1 0.2L4.2 0.2L4.2 0.6Q4.2 1.7 3.7 2.3L4.7 2.5L7 2.7Q7.2 2.7 7.2 3Q7.2 3.45 6.9 3.4L5.6 3.3L4 3L3.3 2.8Q2.45 3.25 0.7 3.5Q0.3 3.45 0.3 3.1Q0.3 2.8 0.6 2.8L2.5 2.4L2.3 2.3L1 1.1L0.9 0.9Q0.9 0.6 1.3 0.6L1.4 0.7L2.9 1.9L3.1 2Q3.6 1.55 3.6 0.6L3.6 0.2L1.4 0.2Q0.95 0.2 0.9 -0.4L0.9 -2.2Q0.95 -2.8 1.4 -2.8L3.6 -2.8L3.6 -3.3L3.9 -3.5L4.2 -3.3L4.2 -2.8L6.1 -2.8Q6.7 -2.8 6.7 -2.2M5.9,-2.2L4.2 -2.2L4.2 -0.4L5.9 -0.4L6.1 -0.6L6.1 -1.9L5.9 -2.2M3.6,-2.2L1.7 -2.2Q1.45 -2.2 1.5 -1.9L1.5 -0.6Q1.45 -0.4 1.7 -0.4L3.6 -0.4L3.6 -2.2M-3.9,-2.5L-3.7 -2.2L-4 -1.9L-4.4 -1.9L-4.4 -1.4L-3.8 -1.4L-3.6 -1.1Q-3.6 -0.85 -3.8 -0.9L-4.3 -0.9L-3.7 -0.3L-3.7 -0.1Q-3.65 0.15 -3.9 0.1L-4.1 0.1L-4.4 -0.4L-4.4 0.8L-4.7 1L-5 0.8L-5 -0.4L-5.7 0.7L-5.9 0.7L-6.2 0.5L-6.3 1.8L-6.6 3.1L-6.9 3.3L-7.2 3L-6.8 1.4L-6.7 -0.5L-6.7 -2.8Q-6.75 -3.25 -6.2 -3.3L-0.9 -3.3Q-0.6 -3.3 -0.6 -3Q-0.6 -2.7 -0.9 -2.7L-6 -2.7L-6.2 -2.5L-6.2 -0.5L-6.2 0.5L-6.1 0.3L-5.2 -0.9L-5.8 -0.9L-6 -1.1L-5.8 -1.4L-5 -1.4L-5 -1.8L-5.6 -1.8L-5.9 -2.1L-5.7 -2.3L-4.8 -2.4L-3.9 -2.5M-3.5,-1.1L-3.2 -1.4L-2.5 -1.4L-2.5 -1.8L-3 -1.8L-3.3 -2.1L-3.1 -2.3L-2.2 -2.3L-1.2 -2.5Q-0.95 -2.5 -1 -2.2Q-1 -1.9 -1.3 -1.9L-1.9 -1.8L-1.9 -1.4L-0.9 -1.4Q-0.6 -1.4 -0.6 -1.1Q-0.6 -0.85 -0.9 -0.9L-1.7 -0.9L-1.3 -0.4L-0.5 0.3L-0.4 0.6L-0.6 0.9L-0.8 0.8L-1.4 0.3L-1.9 -0.4L-1.9 0.8L-2.2 1L-2.5 0.8L-2.5 -0.4L-3.5 0.7L-3.7 0.8L-3.9 0.5L-3.9 0.3Q-3.2 -0.15 -2.7 -0.9L-3.2 -0.9L-3.5 -1.1M-3.4,0.9Q-3.1 0.9 -3.1 1.2L-3.1 1.5L-1.4 1.5Q-1.15 1.5 -1.2 1.8Q-1.15 2.1 -1.4 2.1L-3.1 2.1L-3.1 2.7L-0.8 2.7Q-0.5 2.7 -0.5 3Q-0.5 3.3 -0.8 3.3L-6.1 3.3L-6.4 3L-6.1 2.7L-5.3 2.7L-5.3 1.7L-5 1.4Q-4.7 1.4 -4.7 1.7L-4.7 2.7L-3.7 2.7L-3.7 1.2L-3.4 0.9" />
</g>
</svg>
