<?xml version="1.0" encoding="utf-8"?>
<svg version="1.1" id="Layer_1"
xmlns="http://www.w3.org/2000/svg"
xmlns:xlink="http://www.w3.org/1999/xlink"
xmlns:author="http://www.sothink.com"
width="23px" height="11px"
xml:space="preserve">
<g id="62" transform="matrix(1, 0, 0, 1, 0, 0)">
<path style="fill:#65AE3A;fill-opacity:1" d="M22.3,0.3Q20.75 1.1 20.05 2Q19.35 2.9 18.95 3.9L17.85 5.9L15.8 7.8L14 8.3Q12.5 8.3 11.6 7.1L10.85 7.5L10.2 7.9L10.6 10.9L9.7 10.9L9.75 10.15L9.8 8.65L9.7 7.8L8.9 7.1Q8.05 8.15 6.8 8.15Q5.95 8.15 5.2 7.6Q4 6.65 3.5 5.65L2.65 3.65L1.8 1.7Q1.25 0.8 0 0L0.2 0Q0.9 0.05 1.85 0.65L3.8 1.7L6.1 2.05Q7.35 2 8.2 2.6Q9.05 3.3 9.35 4.5Q9.7 5.7 9.2 6.7L10.1 7.3Q10.85 7.1 11.3 6.7Q10.75 5.6 11.15 4.45Q11.6 3.25 12.7 2.6Q13.7 2.1 15.1 2.15L17.8 1.9L20.05 0.9Q21.2 0.35 22.05 0.3L22.3 0.3" />
</g>
</svg>
