<?xml version="1.0" encoding="utf-8"?>
<svg version="1.1" id="Layer_1"
xmlns="http://www.w3.org/2000/svg"
xmlns:xlink="http://www.w3.org/1999/xlink"
xmlns:author="http://www.sothink.com"
width="40px" height="8px"
xml:space="preserve">
<g id="17" transform="matrix(1, 0, 0, 1, 19.6, 3.75)">
<path style="fill:#D87720;fill-opacity:1" d="M19.1,-2.8L19.1 -0.15Q19.15 0.45 18.6 0.45L17.4 0.45L17.4 1.35L18.9 1.35L19.2 1.65L18.9 1.95L17.4 1.95L17.4 2.95L19.3 2.95L19.6 3.25L19.3 3.55L14.9 3.55Q14.6 3.55 14.6 3.25Q14.6 2.95 14.9 2.95L16.8 2.95L16.8 1.95L15.3 1.95Q15 1.95 15 1.65Q15 1.35 15.3 1.35L16.8 1.35L16.8 0.45L15.5 0.45Q15.05 0.45 15 -0.15L15 -2.8Q15.05 -3.4 15.5 -3.4L18.6 -3.4Q19.15 -3.4 19.1 -2.8M18.5,-2.5L18.3 -2.8L17.4 -2.8L17.4 -1.8L18.5 -1.8L18.5 -2.5M15.6,-1.8L16.8 -1.8L16.8 -2.8L15.8 -2.8L15.6 -2.5L15.6 -1.8M15.6,-1.25L15.6 -0.45Q15.65 -0.15 15.8 -0.15L16.8 -0.15L16.8 -1.25L15.6 -1.25M18.5,-0.45L18.5 -1.25L17.4 -1.25L17.4 -0.15L18.3 -0.15Q18.55 -0.15 18.5 -0.45M14.9,2.35L14 2.85L12.8 3.45L12.6 3.45Q12.3 3.45 12.3 3.15Q12.3 2.9 12.6 2.75L13.3 2.55L13.3 0.05L12.8 0.05Q12.5 0.05 12.5 -0.25Q12.5 -0.55 12.8 -0.55L13.3 -0.55L13.3 -2.7L12.6 -2.7Q12.45 -2.7 12.4 -3L12.6 -3.3L14.5 -3.3L14.8 -3L14.5 -2.7L13.9 -2.7L13.9 -0.55L14.5 -0.55L14.7 -0.25Q14.75 0.05 14.5 0.05L13.9 0.05L13.9 2.25L14.6 1.85L14.7 1.75L15 2.15L14.9 2.35M7.8,-2.8L5.8 -2.8Q5.55 -2.8 5.6 -2.5L5.6 -0.15L5.4 2.15L5 3.35L4.7 3.55Q4.4 3.55 4.4 3.25L4.8 1.65L5 -0.15L5 -2.8Q5 -3.4 5.6 -3.4L11.2 -3.4Q11.5 -3.4 11.5 -3.2L11.2 -2.8L8.4 -2.8L8.5 -2.7L8.4 -2.5L8.1 -2.2L10.5 -2.2Q11.1 -2.2 11.1 -1.6L11.1 0.05Q11.1 0.75 10.5 0.75L8.8 0.75L8.8 3.05Q8.85 3.75 8.1 3.75L7.1 3.55L6.9 3.25L7.1 2.85L7.3 2.85L8 3.05L8.2 2.85L8.2 0.75L6.6 0.75Q6 0.75 6 0.05L6 -1.6Q6 -2.2 6.6 -2.2L7.3 -2.2L7.4 -2.4L7.8 -2.8M6.6,-1.35L6.6 -1.05L10.5 -1.05L10.5 -1.35L10.3 -1.6L6.8 -1.6Q6.55 -1.6 6.6 -1.35M6.6,-0.15Q6.55 0.15 6.8 0.15L10.3 0.15L10.5 -0.15L10.5 -0.55L6.6 -0.55L6.6 -0.15M7.1,1.85L5.9 3.45L5.7 3.45Q5.4 3.45 5.4 3.15L5.4 2.95L6.6 1.35Q6.75 1.1 6.9 1.15L7.2 1.45L7.1 1.85M9.6,1.45Q9.6 1.15 9.9 1.15L10.2 1.25L10.7 1.95L11.5 3.05L11.5 3.25L11.2 3.55L10.9 3.45L10.3 2.35L9.7 1.75L9.6 1.45M-0.45,-3.45L-0.25 -3.35L0.15 -3.15L0.45 -3.55L0.75 -3.55L0.85 -3.35L0.75 -3.15L0.55 -2.85L0.75 -2.75L0.75 -2.55L0.55 -2.35L0.25 -2.35L0.15 -2.55L-0.05 -2.35L-0.65 -2.05L-0.85 -2.05L-0.95 -2.15L-1.05 -2.35L-0.85 -2.55L-0.35 -2.85L-0.65 -2.95L-0.75 -3.15L-0.45 -3.45M-1.05,-3.05L-1.85 -2.95L-2.15 -2.65L-2.15 -2.45L-1.45 -2.45L-1.25 -2.25Q-1.25 -1.95 -1.45 -1.95L-2.15 -1.95L-2.15 -1.55L-1.35 -1.55L-1.15 -1.2Q-1.2 -0.9 -1.35 -0.9L-2.15 -0.9L-2.15 -0.6L2.45 -0.6L2.45 -1L1.55 -1Q1.25 -1 1.25 -1.3L1.55 -1.55L2.45 -1.55L2.45 -1.95L1.45 -1.95Q1.2 -1.95 1.25 -2.25Q1.2 -2.55 1.45 -2.55L2.45 -2.55L2.45 -2.75L2.25 -2.85L1.45 -2.85Q1.15 -2.8 1.15 -3.25L1.45 -3.45L2.45 -3.45Q3 -3.5 2.95 -2.95L2.95 -0.6L3.45 -0.3L3.55 0.3L3.55 0.7L3.25 1Q2.95 1 2.95 0.7L2.95 0.3L2.75 0L-2.55 0L-2.75 0.2L-2.75 0.7Q-2.75 1 -3.05 1L-3.35 0.7L-3.35 -0.1Q-3.35 -0.55 -2.95 -0.6L-2.75 -0.6L-2.75 -2.95L-2.65 -3.35L-1.95 -3.55L-1.15 -3.65Q-0.85 -3.65 -0.85 -3.35Q-0.9 -3.05 -1.05 -3.05M-0.65,-1.85L-0.45 -2.05L-0.25 -2.05L0.15 -1.85L0.25 -1.85L0.65 -2.25L0.85 -2.35L0.95 -2.25L1.05 -2.05L1.05 -1.85L0.65 -1.45L0.95 -1.2L1.05 -1L0.75 -0.7L0.55 -0.8L0.15 -1.1L0.05 -1L-0.65 -0.7L-0.85 -0.7L-0.95 -0.8L-1.05 -1L-0.85 -1.2Q-0.55 -1.3 -0.35 -1.45L-0.55 -1.65L-0.65 -1.85M-4.6,-0.6L-5.9 -0.6L-5.9 3.4Q-5.9 3.7 -6.2 3.7L-6.5 3.4L-6.5 -0.6L-7.9 -0.6Q-8.2 -0.55 -8.2 -1L-7.9 -1.3L-6.5 -1.3L-6.5 -3.35L-6.2 -3.65Q-5.9 -3.65 -5.9 -3.35L-5.9 -1.3L-4.6 -1.3Q-4.3 -1.3 -4.3 -1Q-4.3 -0.55 -4.6 -0.6M-3.15,1.7L0.05 1.7L-0.25 1.5L-0.35 1.4L-0.15 1.3L0.95 0.9L0.75 0.9L-1.85 0.9L-2.15 0.6L-1.85 0.3L1.55 0.3Q2.3 0.35 2.25 0.7L2.05 0.9L0.65 1.4L0.55 1.5L0.65 1.5L0.75 1.7L3.25 1.7L3.55 2L3.25 2.3L0.95 2.3L0.95 2.6L0.65 3.5L-0.25 3.7L-1.35 3.5L-1.65 3.2L-1.25 2.9L-0.25 3.1L0.15 3L0.35 2.6L0.35 2.3L-3.15 2.3L-3.35 2L-3.15 1.7M-11,-1.45L-8.7 -1.45L-8.5 -1.1Q-8.5 -0.8 -8.7 -0.8L-11 -0.8L-11.2 -1.1Q-11.25 -1.45 -11 -1.45M-12.3,-2.05Q-12.3 -1.6 -12.6 -1.65L-13 -1.65L-14.5 -2.25Q-14.5 -1.95 -14.7 -1.95L-17.2 -1.95L-17.4 -2.25L-17.6 -2.15L-18.9 -1.75L-19.2 -1.65Q-19.6 -1.6 -19.6 -2.05L-19.3 -2.35L-17.6 -2.85L-16.2 -3.65L-15.9 -3.75L-15.7 -3.65Q-14.85 -3.05 -14 -2.75L-12.5 -2.35L-12.3 -2.05M-11.3,-2.55L-8.4 -2.55Q-8.1 -2.55 -8.1 -2.25Q-8.1 -1.85 -8.4 -1.85L-11.3 -1.85Q-11.6 -1.8 -11.6 -2.25L-11.3 -2.55M-10.9,-3.45L-8.8 -3.45Q-8.5 -3.45 -8.5 -3.25Q-8.5 -2.8 -8.8 -2.85L-10.9 -2.85Q-11.2 -2.8 -11.2 -3.25L-10.9 -3.45M-13.7,-1L-15.7 -1L-15.7 0L-15.1 0L-15 -0.2L-14.6 -0.8L-14.4 -0.9L-14.2 -0.8L-14.1 -0.6L-14.1 -0.4L-14.4 0L-13.7 0Q-13.45 0.05 -13.5 -0.2L-13.5 -0.8L-13.7 -1M-14,1.8Q-13.95 1.55 -14.1 1.6L-17.8 1.6L-17.9 1.8L-17.9 2L-14 2L-14 1.8M-13.4,1.5L-13.4 3Q-13.4 3.6 -13.9 3.6L-18 3.6Q-18.55 3.6 -18.5 3L-18.5 1.5Q-18.55 1 -18 1L-13.9 1Q-13.4 1 -13.4 1.5M-12.9,0Q-12.9 0.6 -13.4 0.6L-18.5 0.6Q-18.95 0.6 -19 0L-19 -1Q-18.95 -1.6 -18.5 -1.55L-13.4 -1.55Q-12.9 -1.6 -12.9 -1L-12.9 0M-11,-0.4L-8.7 -0.4L-8.5 -0.1L-8.7 0.2L-11 0.2L-11.2 -0.1L-11 -0.4M-10.6,0.7L-9 0.7Q-8.4 0.7 -8.4 1.3L-8.4 2.9Q-8.4 3.65 -9 3.6L-10.6 3.6Q-11.2 3.65 -11.2 2.9L-11.2 1.3Q-11.2 0.7 -10.6 0.7M-10.4,1.3L-10.6 1.5L-10.6 2.7L-10.4 3L-9.2 3L-9 2.7L-9 1.5L-9.2 1.3L-10.4 1.3M-16.9,-2.45L-14.9 -2.45L-15.7 -2.95L-15.9 -3.05L-16.1 -3.05L-16.9 -2.45M-18.4,-0.2L-18.2 0L-17.3 0L-17.8 -0.5L-17.8 -0.7L-17.5 -0.9L-17.3 -0.9L-16.9 -0.4L-16.9 -0.2L-17 0L-16.3 0L-16.3 -1L-18.2 -1L-18.4 -0.8L-18.4 -0.2M-17.9,2.8L-17.8 3L-14.1 3L-14 2.8L-14 2.5L-17.9 2.5L-17.9 2.8" />
</g>
</svg>
