<?xml version="1.0" encoding="utf-8"?>
<svg version="1.1" id="Layer_1"
xmlns="http://www.w3.org/2000/svg"
xmlns:xlink="http://www.w3.org/1999/xlink"
xmlns:author="http://www.sothink.com"
width="16px" height="8px"
xml:space="preserve">
<g id="14" transform="matrix(1, 0, 0, 1, 7.6, 3.7)">
<path style="fill:#D87720;fill-opacity:1" d="M2.5,-2.5L2.5 -0.9L3.2 -0.9L3.5 -0.6L3.2 -0.3L2.5 -0.3L2.5 2.1L3.3 1.7L3.4 1.7L3.7 2L3.5 2.3L2.4 2.9L0.7 3.5L0.5 3.5Q0.2 3.5 0.2 3.2L0.4 2.9L0.6 2.8L0.6 -0.9Q0.6 -1.2 0.9 -1.2L1.2 -0.9L1.2 2.6L1.8 2.4L1.9 2.4L1.9 -2.5L0.6 -2.5Q0.3 -2.5 0.3 -2.8Q0.3 -3.1 0.6 -3.1L3.5 -3.1L3.8 -2.8L3.5 -2.5L2.5 -2.5M-0.8,-2.8L-0.7 -2.2L-0.7 -1.5Q-0.8 -1.3 -1.1 -1.3L-1.4 -1.6L-1.3 -2.1Q-1.3 -2.45 -1.6 -2.5L-6.6 -2.5L-6.9 -2.1L-6.9 -1.6Q-6.95 -1.3 -7.3 -1.3L-7.6 -1.6L-7.6 -2.5Q-7.6 -3.1 -7 -3.1L-4.4 -3.1L-4.4 -3.4L-4.1 -3.7Q-3.8 -3.7 -3.8 -3.4L-3.8 -3.1L-1.4 -3.1Q-0.95 -3.1 -0.8 -2.8M-1.4,-0.3L-2.3 0.6L-2.5 0.6L-2.8 0.4L-2.8 0.2L-1.8 -0.8L-1.5 -1Q-1.2 -1 -1.2 -0.7L-1.4 -0.3M3.4,0L4 -1.5L4.2 -3.4Q4.2 -3.7 4.5 -3.7L4.9 -3.4L4.8 -2.6L7.1 -2.6L7.4 -2.3L7.1 -2L6.8 -2L6.7 -0.7L6.2 1L5.9 1.7L6.3 2.1L7.5 3L7.6 3.2L7.2 3.6L7 3.6L5.8 2.6L5.5 2.2L5.2 2.5Q4.6 3.2 3.7 3.6L3.5 3.7Q3.1 3.75 3.1 3.3L3.3 3.1L4.8 1.9L5.1 1.6L5 1.5L4.5 -0.1L4.4 -0.6L4 0.3L3.7 0.5Q3.4 0.5 3.4 0.2L3.4 0M5.7,0.5Q6.05 -0.35 6.2 -2L4.8 -2L5 -0.4Q5.1 0.35 5.5 1L5.7 0.5M-7.4,0.1L-7.1 -0.3Q-6.2 -0.45 -5.5 -0.9L-4.8 -1.4L-6.3 -1.4L-6.6 -1.7L-6.3 -2L-2 -2Q-1.7 -2 -1.7 -1.7Q-1.7 -1.4 -2 -1.4L-4.1 -1.4L-4.3 -1.2L-3.4 0.1L-3.4 0.3L-2.2 1.7Q-1.7 2.15 -0.8 2.6L-0.7 2.9Q-0.7 3.35 -1 3.3L-1.3 3.2L-2.7 2L-3.2 1.4L-3.2 1.8L-3.3 2.6L-3.7 3.4Q-3.95 3.7 -4.4 3.7L-5.4 3.5L-5.5 3.2L-5.2 2.9L-4.4 3.1L-4.1 2.9L-3.9 2.5L-3.8 1.7L-3.8 1.2L-5 2.2L-6.4 3L-7.3 3.3L-7.6 2.9L-7.3 2.6Q-6.1 2.25 -5.2 1.7L-3.9 0.6L-4 0.2L-4.1 0L-5.2 0.9Q-5.7 1.35 -6.4 1.6L-7.2 1.8L-7.5 1.5L-7.2 1.2L-5.4 0.4L-4.3 -0.4L-4.7 -0.8L-5 -0.6Q-5.6 -0.15 -6.3 0.1L-7.2 0.4L-7.4 0.1" />
</g>
</svg>
