<?xml version="1.0" encoding="utf-8"?>
<svg version="1.1" id="Layer_1"
xmlns="http://www.w3.org/2000/svg"
xmlns:xlink="http://www.w3.org/1999/xlink"
xmlns:author="http://www.sothink.com"
width="71px" height="8px"
xml:space="preserve">
<g id="10" transform="matrix(1, 0, 0, 1, 35.35, 3.75)">
<path style="fill:#1B3C22;fill-opacity:1" d="M31.95,-3.7L32.25 -3.4L32.15 -2.4L34.65 -2.4Q35.3 -2.45 35.35 -1.7L35.25 1.5Q35.1 2.75 34.75 3.1Q34.35 3.5 33.65 3.5L32.05 3.3L31.85 2.9Q31.85 2.55 32.15 2.5L33.55 2.8L34.25 2.5L34.55 1.2L34.65 -1.4L34.25 -1.7L32.15 -1.7L31.75 0.2L30.75 2.1L29.25 3.5L28.95 3.6Q28.6 3.55 28.55 3.2L28.75 2.9Q29.8 2.3 30.25 1.5L31.15 -0.2L31.45 -1.7L28.95 -1.7Q28.65 -1.75 28.65 -2.1Q28.65 -2.4 28.95 -2.4L31.55 -2.4L31.65 -3.5Q31.65 -3.7 31.95 -3.7M27.05,-2.7L26.25 -2.3L25.55 -2.1L24.95 -2L24.95 -1.2L25.05 -0.8L25.65 -0.7L26.65 -0.8Q26.8 -0.75 26.85 -0.9L26.95 -1.4Q26.95 -1.7 27.25 -1.7L27.55 -1.3L27.45 -0.8Q27.45 -0.4 27.15 -0.3L25.85 -0.1L24.65 -0.3Q24.35 -0.5 24.35 -1.1L24.35 -3.3Q24.35 -3.6 24.65 -3.6L24.95 -3.3L24.95 -2.6L25.95 -2.9Q26.45 -3.05 26.95 -3.4L27.25 -3.1L27.05 -2.7M27.05,1.1L26.25 1.5L25.55 1.7L24.95 1.8L24.95 2.4L25.05 2.9L25.55 3L26.65 2.9L26.85 2.8L26.95 2.3Q26.95 2 27.25 2Q27.55 1.95 27.55 2.4L27.45 2.9L27.15 3.4L25.75 3.6L24.65 3.4Q24.35 3.15 24.35 2.6L24.35 0.4Q24.35 0.1 24.65 0.1L24.95 0.4L24.95 1.2L25.95 0.9L26.95 0.3Q27.25 0.35 27.25 0.7L27.05 1.1M23.15,-3.2L23.35 -3.1L23.65 -2.6L24.05 -1.7L24.15 -1.5L23.85 -1.2L23.65 -1.3L23.45 -1.7L23.35 -1.7L20.85 -1.3Q20.55 -1.35 20.55 -1.7Q20.55 -2 20.85 -2L20.95 -2L21.25 -2.5L21.75 -3.6L22.05 -3.7L22.25 -3.6L22.35 -3.4L22.35 -3.2L21.85 -2.3L21.75 -2.1L23.15 -2.3L22.95 -2.7L22.85 -2.9Q22.85 -3.2 23.15 -3.2M19.25,-2.9L19.05 -2.6L17.15 -2.6L17.15 -2.1L19.35 -2.1L19.55 -1.8Q19.6 -1.5 19.35 -1.5L18.35 -1.5L18.15 -0.7L19.15 -0.7L19.45 -0.4L19.15 -0.1L17.15 -0.1L17.15 0.3L18.85 0.3L19.15 0.6L18.85 0.9L17.15 0.9L17.15 1.4L19.25 1.4L19.55 1.7L19.25 2L17.15 2L17.15 2.4L16.85 2.8Q16.55 2.75 16.55 2.4L16.55 2L14.65 2L14.45 1.7L14.65 1.4L16.55 1.4L16.55 0.9L15.05 0.9Q14.75 0.9 14.75 0.6Q14.75 0.3 15.05 0.3L16.55 0.3L16.55 -0.1L14.75 -0.1Q14.45 -0.1 14.45 -0.4Q14.45 -0.7 14.75 -0.7L15.65 -0.7L15.45 -1.5L14.65 -1.5Q14.35 -1.5 14.35 -1.8Q14.35 -2.1 14.65 -2.1L16.55 -2.1L16.55 -2.6L14.85 -2.6Q14.65 -2.6 14.65 -2.9L14.85 -3.2L16.55 -3.2L16.55 -3.4Q16.55 -3.7 16.85 -3.7L17.15 -3.4L17.15 -3.2L19.05 -3.2L19.25 -2.9M21.35,0.2L23.25 0.2L23.25 -0.2L23.05 -0.4L21.45 -0.4L21.35 -0.2L21.35 0.2M21.25,-1L23.35 -1Q23.8 -1.05 23.85 -0.6L23.85 2.9Q23.85 3.6 23.15 3.6L22.25 3.4L22.05 3.2Q22.1 2.85 22.25 2.8L22.45 2.9L23.05 3Q23.3 3 23.25 2.6L23.25 2L21.35 2L21.35 3.3L21.05 3.6Q20.75 3.6 20.75 3.3L20.75 -0.6Q20.7 -1 21.25 -1M17.75,-1.5L16.05 -1.5L16.25 -0.7L17.55 -0.7L17.75 -1.5M21.35,1.4L23.25 1.4L23.25 0.8L21.35 0.8L21.35 1.4M19.45,3.5L15.95 3.5L14.85 3.3Q14.25 3.2 13.95 2.8L13.85 2.8L13.75 2.9L13.15 3.4L12.95 3.6L12.55 3.3L12.75 3L13.25 2.6L13.45 1.8L13.45 0.7L13.25 0.6L12.95 0.6Q12.65 0.6 12.65 0.3Q12.65 0 12.95 0L13.55 0Q14 0.05 14.05 0.5L14.05 1.8Q14.05 2.3 14.45 2.5Q14.85 2.9 15.75 2.9L19.45 2.9L19.75 3.2L19.45 3.5M-28.35,-3.3L-28.35 3.3Q-28.35 3.6 -28.65 3.6L-28.95 3.3L-28.95 -3.3L-28.65 -3.7Q-28.35 -3.75 -28.35 -3.3M-24.45,-3.05L-22.85 -3.05L-22.85 -3.45L-22.55 -3.75Q-22.25 -3.75 -22.25 -3.45L-22.25 -3.05L-20.35 -3.05L-20.15 -2.75Q-20.2 -2.45 -20.35 -2.45L-22.25 -2.45L-22.25 -1.85L-21.05 -1.85Q-20.45 -1.85 -20.45 -1.25L-20.45 0.25Q-20.45 0.85 -21.05 0.85L-22.15 0.85L-21.35 1.75L-20.35 2.85Q-20.25 2.85 -20.25 3.15L-20.55 3.35L-20.75 3.35L-21.45 2.55L-22.25 1.55L-22.25 3.45Q-22.25 3.75 -22.55 3.75L-22.85 3.45L-22.85 1.65L-24.15 3.25L-24.45 3.35Q-24.8 3.35 -24.85 3.05L-24.75 2.85L-23.45 1.65L-22.95 0.85L-23.95 0.85Q-24.55 0.85 -24.55 0.25L-24.55 -1.25Q-24.55 -1.85 -23.95 -1.85L-22.85 -1.85L-22.85 -2.45L-24.45 -2.45L-24.75 -2.75L-24.45 -3.05M-25.75,-3.45L-25.75 -3.25L-26.35 -1.95L-26.45 -1.95L-26.05 -1.55L-25.55 -2.55L-25.35 -2.65L-25.15 -2.55L-25.05 -2.35L-25.15 -2.15L-25.75 -0.75L-26.15 -0.15L-25.35 -0.25L-25.45 -0.55L-25.55 -0.65L-25.25 -0.85L-25.05 -0.75L-24.75 0.25L-24.75 0.45Q-24.75 0.75 -25.05 0.75L-25.25 0.45L-25.25 0.25L-25.35 0.25L-25.55 0.35L-25.55 3.35Q-25.55 3.65 -25.85 3.65L-26.15 3.35L-26.15 0.45L-27.05 0.55Q-27.3 0.55 -27.25 0.15L-27.05 -0.15L-26.95 -0.15L-26.35 -0.95L-26.85 -1.45L-27.15 -1.85L-27.25 -2.05L-26.95 -2.35L-26.85 -2.25L-26.35 -3.55Q-26.35 -3.75 -26.05 -3.75L-25.85 -3.65L-25.75 -3.45M-31.05,-3.2L-31.05 0.3L-31.25 2.2L-31.65 3.5L-31.95 3.6L-32.35 3.2L-32.25 3Q-31.85 2.25 -31.75 1.5L-31.65 0.3L-31.65 -3.2L-31.35 -3.5Q-31.05 -3.5 -31.05 -3.2M-32.45,-3.3Q-32.45 -3 -32.75 -3L-34.75 -3L-34.95 -3.3L-34.75 -3.6L-32.75 -3.6Q-32.45 -3.6 -32.45 -3.3M-29.75,-3L-29.75 2.9Q-29.75 3.35 -30.05 3.3Q-30.35 3.35 -30.35 2.9L-30.35 -3L-30.05 -3.3Q-29.75 -3.3 -29.75 -3M-32.35,-0.1L-32.55 0.2L-34.75 0.2L-34.95 -0.1L-34.75 -0.3L-32.55 -0.3L-32.35 -0.1M-32.35,-1.2Q-32.4 -0.9 -32.55 -0.9L-34.75 -0.9L-34.95 -1.2L-34.75 -1.4L-32.55 -1.4L-32.35 -1.2M-32.35,-1.9L-35.05 -1.9L-35.35 -2.2L-35.05 -2.6L-32.35 -2.6Q-32.05 -2.65 -32.05 -2.2Q-32.05 -1.9 -32.35 -1.9M-32.35,1.3L-32.35 2.8Q-32.3 3.4 -32.85 3.4L-34.45 3.4Q-35 3.4 -34.95 2.8L-34.95 1.3Q-35 0.7 -34.45 0.7L-32.85 0.7Q-32.3 0.7 -32.35 1.3M-34.15,1.3L-34.45 1.6L-34.45 2.6L-34.15 2.8L-33.15 2.8L-32.85 2.6L-32.85 1.6Q-32.85 1.3 -33.15 1.3L-34.15 1.3M-27.15,1.05L-26.85 0.85Q-26.55 0.85 -26.55 1.15L-26.55 1.35L-26.75 3.35L-27.05 3.45L-27.35 3.25L-27.25 3.05L-27.15 1.05M-25.35,1.15L-25.05 0.85L-24.85 1.05L-24.65 2.05L-24.65 2.25L-24.95 2.45L-25.15 2.25L-25.35 1.25L-25.35 1.15M-7.35,-2.7L-7.55 -2.5L-7.55 -1.6L-4.45 -1.6Q-4.15 -1.65 -4.15 -1.2Q-4.15 -0.9 -4.45 -0.9L-5.35 -0.9L-5.35 3.3Q-5.35 3.6 -5.65 3.6L-5.95 3.3L-5.95 -0.9L-7.55 -0.9L-7.55 -0.3L-7.65 1.4L-8.25 3.1L-8.55 3.3L-8.95 3L-8.85 2.8L-8.25 1.2L-8.15 -0.3L-8.15 -2.9Q-8.15 -3.4 -7.55 -3.4L-5.15 -3.6L-4.85 -3.6Q-4.55 -3.65 -4.55 -3.2L-4.85 -3L-7.35 -2.7M-9.45,-3.4L-9.45 -2.2L-8.85 -2.2Q-8.55 -2.2 -8.55 -1.9Q-8.55 -1.6 -8.85 -1.6L-9.45 -1.6L-9.45 -1.3L-8.45 0.2L-8.45 0.5Q-8.45 0.8 -8.75 0.8Q-8.9 0.85 -8.95 0.7L-9.45 -0.3L-9.45 3.3Q-9.45 3.75 -9.75 3.7Q-10.05 3.75 -10.05 3.3L-10.05 -0.1L-10.55 1Q-10.7 1.6 -10.95 1.8L-11.15 2L-11.45 1.7L-11.35 1.4L-10.55 -0.3L-10.15 -1.6L-11.05 -1.6L-11.35 -1.9L-11.05 -2.2L-10.05 -2.2L-10.05 -3.4L-9.75 -3.7Q-9.45 -3.7 -9.45 -3.4M-13.45,0.05L-13.55 2.25Q-13.7 3 -13.95 3.35Q-14.25 3.65 -14.85 3.65L-16.25 3.35L-16.45 3.05Q-16.45 2.6 -16.15 2.65L-14.85 2.95L-14.35 2.75L-14.15 1.95L-14.05 0.35Q-14.05 -0.1 -14.35 -0.05L-15.95 -0.05L-16.35 1.55L-17.15 2.85L-18.85 3.65L-19.25 3.25L-19.05 2.95Q-18.05 2.7 -17.55 2.25L-16.85 1.25L-16.55 -0.05L-17.65 -0.05L-17.95 -0.35L-17.65 -0.65L-14.05 -0.65Q-13.45 -0.7 -13.45 0.05M-12.25,-0.35L-12.15 -0.15L-12.45 0.25L-12.75 0.15L-13.35 -0.45Q-13.8 -0.9 -14.05 -1.45Q-14.4 -1.9 -14.55 -2.65L-14.75 -2.85L-16.85 -2.85L-17.15 -3.15L-16.85 -3.45L-14.55 -3.45Q-14.1 -3.5 -13.95 -2.95L-13.35 -1.65L-12.85 -0.95L-12.25 -0.35M-17.55,-2.75L-17.35 -2.75L-17.25 -2.55L-17.25 -2.35L-17.75 -1.25L-18.25 -0.35L-18.95 0.35L-19.15 0.35L-19.35 0.25L-19.45 -0.05L-19.35 -0.25L-18.75 -0.85L-18.25 -1.65L-17.85 -2.55Q-17.85 -2.8 -17.55 -2.75M-21.25,-1.35L-22.25 -1.35L-22.25 0.25L-21.25 0.25L-21.05 -0.05L-21.05 -1.05L-21.25 -1.35M-21.25,-0.85L-21.25 -0.65L-21.55 -0.05L-21.75 0.05L-21.95 -0.15L-21.95 -0.35L-21.75 -0.95L-21.55 -1.05L-21.35 -0.95L-21.25 -0.85M-23.95,-1.05L-23.95 -0.05L-23.75 0.25L-22.85 0.25L-22.85 -1.35L-23.75 -1.35L-23.95 -1.05M-23.05,-0.15L-23.35 0.05L-23.55 -0.15L-23.75 -0.65L-23.85 -0.85Q-23.85 -1.05 -23.55 -1.05L-23.35 -0.95L-23.05 -0.35L-23.05 -0.15M12.75,-3.2Q12.75 -3.65 13.05 -3.6L13.25 -3.5L13.65 -3.2L14.05 -2.8L14.15 -2.6L13.85 -2.3L13.55 -2.4L13.15 -2.8L12.85 -3L12.75 -3.2M8.4,-3.45L8.4 -3.15L11.1 -3.15L11.3 -2.95L11.1 -2.65L8.4 -2.65L8.4 -2.05L10.7 -2.05L11 -1.75L10.7 -1.45L8.4 -1.45L8.4 -0.75L11.4 -0.75L11.6 -0.45Q11.6 -0.15 11.4 -0.15L8.6 -0.15Q8.75 0.7 9.2 1.15L10.4 0.25L10.6 0.15L11 0.45L10.8 0.85L9.5 1.65L10.2 2.25L11.5 2.95L11.6 3.35L11.3 3.65L11 3.55L9.8 2.85L8.7 1.65Q8.25 1.05 8 -0.15L7.4 -0.15L7.4 -0.05L6.7 0.85L6.7 2.65L8 2.25L8.1 2.25Q8.4 2.25 8.4 2.45L8.2 2.85L6.8 3.35L5.2 3.65Q4.9 3.65 4.9 3.35Q4.9 2.9 5.2 2.95L6.1 2.75L6.1 1.25L4.9 1.95L4.8 1.95L4.4 1.65L4.6 1.35L6.1 0.45L6.7 -0.15L4.9 -0.15Q4.6 -0.15 4.6 -0.45Q4.6 -0.75 4.9 -0.75L7.8 -0.75L7.8 -1.45L5.4 -1.45Q5.1 -1.45 5.1 -1.75Q5.1 -2.05 5.4 -2.05L7.8 -2.05L7.8 -2.65L5.1 -2.65Q4.8 -2.65 4.8 -2.95Q4.8 -3.2 5.1 -3.15L7.8 -3.15L7.8 -3.45Q7.8 -3.75 8.1 -3.75L8.4 -3.45M14.05,-1L13.75 -0.7Q13.6 -0.65 13.55 -0.8L13.15 -1.1L12.75 -1.4L12.65 -1.6Q12.65 -1.9 12.95 -1.9L13.15 -1.8L13.55 -1.6L14.05 -1.2L14.05 -1M2.35,-2.9L1.85 -1.4L2.95 -1.4Q3.4 -1.4 3.45 -0.8L3.25 -0.2L2.35 1.1L1.55 1.8Q1.85 2.1 2.35 2.2Q2.8 2.5 3.55 2.8L3.85 3.1L3.45 3.5L3.25 3.5L1.75 2.8L0.95 2.3Q-0.1 3.05 -1.45 3.5L-1.75 3.6L-2.05 3.2L-1.85 2.9Q-0.5 2.4 0.25 1.9L0.45 1.8L-0.35 0.8L-0.95 -0.8L-1.45 -0.8L-1.65 0.5Q-2 2.05 -2.85 3.4L-3.15 3.5L-3.45 3.2L-3.45 3.1Q-2.55 1.75 -2.25 0.4Q-1.9 -0.9 -1.85 -2.8L-2.95 -2.8L-3.25 -3.1L-2.95 -3.4L1.75 -3.4Q2.35 -3.35 2.35 -2.9M1.45,-2.8L-1.25 -2.8L-1.35 -1.4L1.25 -1.4L1.65 -2.6L1.45 -2.8M1.05,1.4L1.75 0.8L2.55 -0.3L2.65 -0.6L2.55 -0.8L-0.35 -0.8Q-0.1 0.05 0.35 0.6L1.05 1.4" />
</g>
</svg>
