<?xml version="1.0" encoding="utf-8"?>
<svg version="1.1" id="Layer_1"
xmlns="http://www.w3.org/2000/svg"
xmlns:xlink="http://www.w3.org/1999/xlink"
xmlns:author="http://www.sothink.com"
width="60px" height="7px"
xml:space="preserve">
<g id="26" transform="matrix(1, 0, 0, 1, 29.9, 3.5)">
<path style="fill:#019377;fill-opacity:1" d="M29.1,3.2L28.8 3.5Q28.5 3.5 28.5 3.2L28.5 1.75L25.8 2.15Q25.5 2.15 25.5 1.85Q25.5 1.55 25.8 1.55L28.5 1.05L28.5 -3.05Q28.5 -3.35 28.8 -3.35L29.1 -3.05L29.1 0.95L29.6 0.95L29.9 1.25L29.6 1.55L29.1 1.65L29.1 3.2M2.1,-3Q2.1 -3.3 2.4 -3.3L2.7 -3L2.7 -2.2L4.9 -2.2L4.9 -3Q4.9 -3.3 5.2 -3.3L5.5 -3L5.5 -2.2L6.5 -2.2L6.8 -1.9Q6.8 -1.5 6.5 -1.5L5.5 -1.5L5.5 0.3L6.8 0.3L7.1 0.6L6.8 0.9L0.8 0.9Q0.5 0.9 0.5 0.6Q0.5 0.3 0.8 0.3L2.1 0.3L2.1 -1.5L1.1 -1.5Q0.8 -1.45 0.8 -1.9Q0.8 -2.2 1.1 -2.2L2.1 -2.2L2.1 -3M-0.95,0.1L-1.55 -0.5L-2.15 -1.3L-2.65 -2.5L-2.85 -2.7L-4.65 -2.7L-4.95 -3L-4.65 -3.3L-2.65 -3.3Q-2.2 -3.25 -2.05 -2.8L-1.55 -1.5L-1.05 -0.9L-0.45 -0.4L-0.35 -0.1Q-0.35 0.2 -0.65 0.2L-0.95 0.1M2.7,0.3L4.9 0.3L4.9 -1.5L2.7 -1.5L2.7 0.3M8.3,-3.1L11.1 -3.1L11.1 -3.3L11.4 -3.5L11.7 -3.3L11.7 -3.1L14.4 -3.1L14.6 -2.9Q14.6 -2.6 14.4 -2.6L11.7 -2.6L11.7 -2.3L13.6 -2.3Q14.1 -2.25 14.1 -1.8L14.1 -1.2Q14.1 -0.7 13.6 -0.7L11.7 -0.7L11.7 -0.4L13.7 -0.4Q14.2 -0.35 14.2 0.1L14.2 0.6L14.5 0.6Q14.8 0.65 14.8 0.8L14.5 1.1L14.2 1.1L14.2 1.6Q14.2 2.1 13.7 2.1L11.7 2.1L11.7 2.75Q11.7 3.4 10.9 3.45L9.7 3.25L9.5 2.95Q9.5 2.65 9.8 2.65L9.9 2.65L10.8 2.75L11.1 2.55L11.1 2.1L8.9 2.1Q8.6 2.1 8.6 1.8Q8.6 1.5 8.9 1.5L11.1 1.5L11.1 1.1L8.2 1.1L8 0.8L8.2 0.6L11.1 0.6L11.1 0.1L8.8 0.1L8.6 -0.1L8.8 -0.4L11.1 -0.4L11.1 -0.7L9.2 -0.7Q8.65 -0.7 8.7 -1.2L8.7 -1.8Q8.65 -2.25 9.2 -2.3L11.1 -2.3L11.1 -2.6L8.3 -2.6Q8.15 -2.6 8.1 -2.9L8.3 -3.1M-9.15,-2.65L-9.65 -1.25L-8.65 -1.25Q-8.2 -1.25 -8.15 -0.65L-8.35 -0.05Q-8.65 0.55 -9.25 1.15L-9.95 1.85L-9.15 2.25L-8.05 2.7Q-7.75 2.7 -7.75 3Q-7.8 3.35 -8.15 3.4L-8.25 3.3L-9.75 2.7L-10.45 2.25L-10.55 2.25Q-11.45 2.95 -12.75 3.4L-13.05 3.4L-13.35 3.1Q-13.35 2.8 -13.15 2.8L-11.15 1.95L-10.95 1.85L-11.65 0.85L-12.35 -0.65L-12.75 -0.65L-12.95 0.55Q-13.25 2.05 -14.15 3.2L-14.35 3.4L-14.65 3.1L-14.65 3Q-13.9 1.75 -13.55 0.45L-13.05 -2.55L-14.15 -2.55L-14.45 -2.85L-14.15 -3.15L-9.75 -3.15Q-9.15 -3.15 -9.15 -2.65M-10.05,-2.55L-12.55 -2.55L-12.65 -1.25L-10.25 -1.25L-9.85 -2.35L-10.05 -2.55M-8.95,-0.15L-8.85 -0.45L-8.95 -0.65L-11.75 -0.65Q-11.5 0.15 -11.05 0.65L-10.35 1.45L-9.75 0.85L-8.95 -0.15M-6.45,-0.7L-5.95 -1.4L-5.65 -2.3L-5.35 -2.5L-5.15 -2.4L-5.05 -2.3L-5.15 -2L-5.45 -1L-5.95 -0.2L-6.55 0.3L-6.75 0.4L-6.95 0.3L-7.05 0.1L-6.95 -0.2L-6.45 -0.7M-4.15,-0.8L-3.85 -0.7L-3.75 -0.5L-3.85 -0.4Q-4.5 1.35 -5.25 2.55L-1.65 2.3Q-2.15 1.35 -2.75 0.7L-2.75 0.5L-2.45 0.3L-2.15 0.4Q-1.2 1.55 -0.55 2.95L-0.45 3.15L-0.85 3.45L-1.15 3.15L-1.35 2.75L-6.55 3.25Q-6.85 3.3 -6.85 2.85L-6.55 2.55L-5.95 2.55L-5.85 2.5Q-5.1 1.35 -4.35 -0.6L-4.15 -0.8M7.1,3.05L6.8 3.35L6.6 3.25L5.7 2.4L5.1 1.8L5 1.6Q5 1.3 5.3 1.3L5.5 1.3L6.2 1.9L7.1 2.85L7.1 3.05M2.7,1.4L2.8 1.6L2.8 1.8L2.3 2.4L1.7 2.85L1 3.25L0.7 3.35L0.6 3.25L0.5 2.95Q0.45 2.8 0.7 2.65L1.4 2.3L1.9 1.9L2.3 1.3L2.5 1.3L2.7 1.4M21.7,-2.4L21.7 -2.2L21.3 -1.4L20.9 -1L21.1 -0.9L21.8 -0.6L22.2 -0.4L22.2 -0.2L21.9 0.1L21.4 -0.1Q20.95 -0.25 20.6 -0.6L20.5 -0.6L20.1 -0.4L19.2 0L18.9 0L18.7 -0.1L18.7 -0.3L18.8 -0.5L19.7 -0.9L20 -1L19.9 -1L19.4 -1.6L19.2 -2.1L19.1 -1.8L18.7 -1.5L18.5 -1.4L18.3 -1.5L18.3 -1.9L18.7 -2.2L18.9 -2.7L19.1 -3.3L19.4 -3.5L19.6 -3.4L19.7 -3.3L19.6 -3.1L19.6 -2.9L21.9 -2.9L22.2 -2.7L21.9 -2.4L21.7 -2.4M23.2,-2.75L23.4 -3.05L24.5 -3.15L25.7 -3.35L26 -3.05Q26.05 -2.75 25.6 -2.75L24.9 -2.55L24.9 -1.45L25.6 -1.45L25.9 -1.15L25.6 -0.85L24.9 -0.85L24.9 -0.75L25.9 0.55L26 0.75L25.8 1.05L25.5 0.95L24.9 0.05L24.9 3.2L24.6 3.5Q24.3 3.5 24.3 3.2L24.3 0.25L23.9 0.95L23.5 1.55L23.3 1.65L23 1.45L23.1 1.15L23.8 -0.05L24.1 -0.85L23.3 -0.85Q23.15 -0.85 23.1 -1.15L23.3 -1.45L24.3 -1.45L24.3 -2.55L23.5 -2.45Q23.2 -2.45 23.2 -2.75M19.9,-1.9L20.4 -1.4L20.8 -1.8L21.2 -2.4L19.7 -2.4L19.9 -1.9M19.7,1L18.9 1Q18.6 1 18.6 0.7Q18.6 0.4 18.9 0.4L19.8 0.4L19.9 -0.1L20.2 -0.3L20.5 0L20.4 0.4L21.6 0.4Q22.15 0.4 22.1 1L22 2.65L21.7 3.25L21.2 3.35L20.2 3.15L20 2.95Q20 2.55 20.3 2.55L21.2 2.75L21.4 2.65L21.5 2.4L21.6 1.2L21.4 1L20.3 1L20.2 1.5L19.5 2.65Q19.05 3.1 18.3 3.35L18.3 3.45Q18 3.4 18 3.05L18.1 2.85L19.2 2.2L19.7 1.2L19.7 1M27.5,-2.45L28.2 -1.55L28.2 -1.45L27.9 -1.15L27.7 -1.15L27.1 -1.95L26.6 -2.45L26.5 -2.75Q26.5 -2.95 26.8 -2.95L27 -2.95L27.5 -2.45M26.5,-1.25L26.7 -1.15L27.2 -0.65L27.8 0.15L27.8 0.25L27.5 0.55L27.3 0.45L26.7 -0.25L26.3 -0.75L26.2 -0.95Q26.2 -1.25 26.5 -1.25M11.1,-1.8L9.4 -1.8L9.2 -1.6L9.2 -1.5L9.4 -1.2L11.1 -1.2L11.1 -1.8M13.5,-1.5L13.5 -1.6L13.3 -1.8L11.7 -1.8L11.7 -1.2L13.3 -1.2Q13.5 -1.2 13.5 -1.5M11.7,0.6L13.6 0.6L13.6 0.3L13.5 0.1L11.7 0.1L11.7 0.6M11.7,1.1L11.7 1.5L13.5 1.5L13.6 1.4L13.6 1.1L11.7 1.1M16.9,-1.9L17.3 -2.2L17.6 -2.5L17.7 -2.7L17.6 -2.8L15.9 -2.8L15.7 -3L15.9 -3.3L17.9 -3.3L18.4 -3L18.2 -2.5L17.8 -1.9L17.3 -1.5L17.5 -1.2L17.5 -1.1L17.3 -0.8L17.1 -0.9L16.5 -1.5L16.1 -1.9L16 -2.1L16.3 -2.3L16.5 -2.3L16.9 -1.9M15.5,-0.5Q15.5 -0.8 15.8 -0.8L17.3 -0.8L18 -0.8Q18.6 -0.8 18.6 -0.2L18.5 0.1L18.3 0.9L18 1L17.7 0.8L17.7 0.7L17.9 0.1L18 -0.1L17.8 -0.2L17.4 -0.2L17.4 2.75Q17.45 3.4 16.6 3.45L15.9 3.25L15.7 2.95Q15.75 2.65 15.9 2.65L16 2.65L16.6 2.85L16.9 2.55L16.9 0.7L16.5 1.3L16.1 1.8L15.8 1.9Q15.5 1.9 15.5 1.6L15.6 1.4L16.5 0.3L16.8 -0.2L15.8 -0.2Q15.5 -0.2 15.5 -0.5M-18.6,-2.2L-18.3 -1.8L-17.9 -2.2L-17.7 -2.3L-17.5 -2.1L-17.6 -1.8L-18 -1.4L-18 0.1L-18.2 0.3L-18.5 0.1L-18.5 -1.4L-19 -1.9L-19.1 -2L-18.8 -2.3L-18.6 -2.2M-18.3,-3.5Q-18 -3.5 -18 -3.2L-18 -3L-15.8 -3Q-15.5 -3 -15.5 -2.7Q-15.5 -2.4 -15.8 -2.4L-20.5 -2.4Q-20.75 -2.4 -20.7 -2.7L-20.5 -3L-18.6 -3L-18.6 -3.2L-18.3 -3.5M-16.9,-2L-15.9 -2.2L-15.7 -1.9Q-15.7 -1.6 -15.9 -1.6L-16.1 -1.6L-16 -1.1L-15.8 -0.7L-15.6 -0.4L-15.5 -0.2Q-15.5 0.1 -15.8 0.1L-16.1 -0.3L-16.4 -0.8L-16.6 -1.5L-16.8 -1.5L-16.9 -1.4L-16.9 -0.6L-16.6 -0.6L-16.4 -0.4L-16.4 -0.2L-17.5 0.1L-17.6 0.1L-17.8 -0.1L-17.7 -0.4L-17.4 -0.4L-17.4 -1.5L-17.3 -1.9L-16.9 -2M-21.1,-2.2L-21.3 -2.3L-22 -2.8L-22 -3L-21.7 -3.3L-21.5 -3.2L-20.9 -2.7L-20.8 -2.5Q-20.8 -2.2 -21.1 -2.2M-19.4,-1.9Q-18.9 -1.95 -18.9 -1.4L-19 -0.5L-19.2 0L-19.7 0.1L-20 0L-20.1 -0.2L-20.1 -0.4L-20.5 0L-20.7 0.1L-21 -0.1L-20.9 -0.2L-20.4 -0.8L-20.2 -1.5L-20.5 -1.5L-20.7 -1.7L-20.5 -1.9L-19.4 -1.9M-19.7,-1.5L-19.9 -0.7L-20 -0.5L-19.9 -0.5L-19.7 -0.4L-19.5 -0.5L-19.4 -0.7L-19.4 -1.2Q-19.4 -1.5 -19.7 -1.5M-21.3,-0.4L-21.4 -0.5L-22.1 -1L-22.2 -1.2L-21.9 -1.5L-21.7 -1.4L-21 -0.9L-21 -0.7Q-21 -0.4 -21.3 -0.4M-20.7,0.7L-20.8 0.9L-21.3 2.4L-21.8 3.15L-22 3.25L-22.3 2.95L-22.2 2.75L-21.8 2L-21.3 0.5L-21.1 0.3L-20.7 0.7M-19.7,0.4L-19.7 0.7L-16.6 0.7L-16.6 0.3Q-16.6 0.15 -16.3 0.1L-16.1 0.3L-16.1 3.05L-16.3 3.35L-16.6 3.05L-16.6 2.2L-19.8 2.2L-20 2.55L-20.5 3.25L-20.7 3.35L-21 3.05L-20.9 2.95L-20.4 2.1L-20.3 1.5L-20.3 0.4L-20 0.1Q-19.7 0.1 -19.7 0.4M-19.7,1.2L-19.7 1.7L-16.6 1.7L-16.6 1.2L-19.7 1.2M-28.3,-3.5L-28.2 -3.3L-28.2 -3.1L-28.8 -1.9L-28.4 -1.5L-27.9 -2.6L-27.6 -2.7L-27.5 -2.6L-27.4 -2.4L-27.4 -2.2L-28.2 -0.9L-28.6 -0.4L-27.8 -0.6L-27.9 -0.8L-27.9 -0.9L-27.7 -1.1L-27.4 -1L-27.1 0L-27 0.2Q-27 0.5 -27.3 0.5L-27.5 0.2L-27.6 -0.1L-27.7 -0.1L-28.1 0.1L-28.1 3.15Q-28.1 3.45 -28.4 3.45L-28.7 3.15L-28.7 0.2L-29.5 0.3L-29.7 0L-29.5 -0.3L-29.3 -0.3L-28.7 -1L-28.8 -1L-29.3 -1.6L-29.7 -1.9L-29.7 -2.1L-29.5 -2.4L-29.3 -2.3L-28.7 -3.4L-28.5 -3.5L-28.3 -3.5M-27,-3L-26.7 -3.3L-23.4 -3.3Q-23.15 -3.3 -23.2 -3Q-23.15 -2.7 -23.4 -2.7L-26.7 -2.7L-27 -3M-29.2,0.7L-29 0.9L-29 1.1L-29.4 2.95L-29.6 3.15L-29.9 2.95L-29.9 2.75L-29.5 0.9Q-29.5 0.65 -29.2 0.7M-27,-1.3L-26.6 -2.2L-26.3 -2.4Q-26 -2.35 -26 -2.2L-26 -2L-26.4 -1.3L-26.5 -1.1L-26.4 -0.9L-25.9 0L-25.9 0.1Q-25.9 0.4 -26.2 0.4L-26.5 0.2L-26.9 -0.8L-27 -1.1L-27 -1.3M-27.8,0.9L-27.6 0.7Q-27.4 0.75 -27.3 0.9L-27.1 1.9L-27.1 2.2L-27.4 2.4L-27.6 2.2L-27.8 1L-27.8 0.9M-26.8,0.9L-26.6 0.7L-23.6 0.7Q-23.3 0.75 -23.3 0.9Q-23.3 1.2 -23.6 1.2L-24.9 1.2L-24.9 2.65L-23.4 2.65Q-23.1 2.65 -23.1 2.95Q-23.1 3.25 -23.4 3.25L-26.9 3.25L-27.2 2.95L-26.9 2.65L-25.4 2.65L-25.4 1.2L-26.6 1.2L-26.8 0.9M-23.3,-2.1L-23.3 -2L-23.7 -1.3L-23.8 -1.1L-23.7 -0.9L-23.2 0Q-23.2 0.3 -23.5 0.3L-23.7 0.1L-24.2 -0.8L-24.4 -1.1L-24.3 -1.3L-23.8 -2.2L-23.5 -2.4L-23.3 -2.1M-24.7,-2L-25.1 -1.3L-25.1 -0.9L-24.6 0L-24.6 0.1L-24.9 0.3L-25.1 0.1L-25.6 -0.8L-25.7 -1.1L-25.6 -1.3L-25.2 -2.2L-24.9 -2.4L-24.6 -2.1L-24.7 -2" />
</g>
</svg>
