<?xml version="1.0" encoding="utf-8"?>
<svg version="1.1" id="Layer_1"
xmlns="http://www.w3.org/2000/svg"
xmlns:xlink="http://www.w3.org/1999/xlink"
xmlns:author="http://www.sothink.com"
width="24px" height="45px"
xml:space="preserve">
<g id="53" transform="matrix(1, 0, 0, 1, 11.65, 22.25)">
<path style="fill:#BABB56;fill-opacity:1" d="M-3.05,-2.2Q-3.3 -1.45 -4.25 -0.5Q-5.5 0.9 -7.05 1L-8.05 0.85Q-8.8 0.4 -9.85 -1.2Q-10.8 -2.85 -11.4 -4.6Q-11.9 -6.35 -11.3 -7.1L-10.4 -7.4Q-9.25 -7.35 -7.65 -6.6Q-6 -5.8 -4.7 -4.9L-3.2 -3.6Q-2.9 -2.85 -3.05 -2.2" />
<path style="fill:#9C5D32;fill-opacity:1" d="M-3.95,-0.95L-2.25 0.6L0.65 3.15L2.5 4.95Q2.75 5.25 2.5 5.6Q2.3 5.95 1.85 5.95L1.5 5.8L-0.3 4L-3.25 1.2L-4.7 -0.2L-4.7 -0.95L-4.25 -1.1L-3.95 -0.95" />
<path style="fill:#FEDEA2;fill-opacity:1" d="M4.4,-3.35L5.2 -6.45Q5.35 -7.8 5.15 -8.45Q4.8 -9.15 4.3 -8.9L3.4 -8.15L3 -7.55L-0.55 2.7Q-1.15 2.7 -1.45 3.15L-1.85 3.9L-2 4.35L-2 4.5L-2.15 4.8L-1.85 4.8L-1.5 4.75L-1.55 4.95L-1.35 5.25L-0.95 5.25L-0.75 5.2L-0.7 5.3L-0.4 5.5L0.05 5.4L0.3 5.2L0.4 5.35L0.8 5.65L1.1 5.1L1.3 3.9L1.35 3.25L3.1 0.15L4.4 -3.35" />
<path style="fill:#3C85AE;fill-opacity:1" d="M0.55,4.45L0.55 5.6L0.5 8.4L0.4 11.85L0.35 14.95L0.25 16.75L-0.05 18.2Q-0.35 19.05 -0.95 19.6Q-1.5 20.2 -2.4 20.15Q-3.25 20.1 -3.35 20.45Q-3.45 20.75 -2.95 21.15L-1.4 21.65L0.6 21.85L2.2 21.95L2.85 22L5.3 5.95L0.55 4.45" />
<path style="fill:#F2E503;fill-opacity:1" d="M-0.4,15.5L-0.5 17.3L-0.65 18.75Q-0.7 19.2 -1.55 19.5L-3.15 20.1L-4.05 20.25Q-3.15 21.25 -1.8 21.6L0.95 21.95L3 22.25L3.65 19.2L4 16.6L4.1 15.5L-0.35 14.6L-0.4 15.5" />
<path style="fill:#3C85AE;fill-opacity:1" d="M6.55,5L6.25 3.35L0.95 4.35Q1.95 5.35 2.7 7.15L4 11.05L4.85 15.15L5.3 18.3L5.45 19.6L4.15 20.3L2.6 20.6L1.85 20.65Q2.45 21.2 3.5 21.35L5.65 21.5L7.55 21.45L8.35 21.35Q8.7 20.55 8.65 18.5L8.15 13.9L7.35 8.95L6.55 5" />
<path style="fill:#F2E503;fill-opacity:1" d="M4.85,15.95L4.95 17.75L5.05 19.25L4.25 19.95L2.7 20.45L1.85 20.65Q2.8 21.45 4.1 21.65L6.65 21.75L8.55 21.75L8.8 18.65L8.85 16L8.8 14.9L4.8 15.05L4.85 15.95" />
<path style="fill:#FEDEA2;fill-opacity:1" d="M-0.4,-14.15Q0.15 -13.05 0.85 -12.5Q1.6 -11.95 2.15 -11.95Q2.95 -11.9 3 -11.45L2.95 -10.9L4.75 -10.9L4.7 -11.5Q4.65 -12.05 5.25 -12.2L6.3 -12.7L7.7 -14.15Q8.3 -15.05 8.35 -16.55Q8.3 -18.85 6.95 -20.1Q5.65 -21.35 3.9 -21.4L1.65 -20.9Q0.55 -20.45 -0.2 -19.4Q-0.95 -18.4 -0.95 -16.8Q-0.95 -15.2 -0.4 -14.15" />
<path style="fill:#F2FAB7;fill-opacity:1" d="M2.95,-11L2.25 -9.65L1.9 -8.3L1.7 -6.55L1.35 -3.25L0.85 0.4L0.45 3.45L0.25 4.65L7.15 6.7L7.1 5.6L6.95 2.9L6.8 -0.5L6.65 -3.8L6.6 -6.1L6.2 -8.15L5.45 -9.8Q5.05 -10.6 5 -11.6L3.3 -11.6L2.95 -11" />
<path style="fill:#FEDEA2;fill-opacity:1" d="M7.4,-3.65L6.8 -6.7L5.95 -8.55L5 -8.65L4.5 -7.6L4.35 -6.9L5.25 3.85Q4.75 4.15 4.65 4.6L4.55 5.45L4.65 5.9L4.65 6.05L4.65 6.4L4.95 6.3L5.25 6.05L5.25 6.3L5.55 6.5L5.95 6.35L6.1 6.2L6.2 6.3L6.5 6.35L6.85 6.1L7.05 5.85L7.2 5.95L7.7 6.05L7.75 5.4L7.45 4.25L7.3 3.6L7.6 0.1L7.4 -3.65" />
<path style="fill:#F2FAB7;fill-opacity:1" d="M7.35,-7.3Q6.95 -8.4 6.45 -8.7L5.9 -8.9Q4.7 -9.05 4.3 -8.35Q3.85 -7.6 3.85 -6.55Q3.85 -5.5 4 -4.65L4.2 -3.75L7.4 -3.75Q7.7 -6.25 7.35 -7.3" />
<path style="fill:#000000;fill-opacity:1" d="M1.65,-16.95Q1.3 -16.9 1.25 -16.55Q1.3 -16.2 1.65 -16.15Q2.05 -16.2 2.1 -16.55L1.65 -16.95" />
<path style="fill:#000000;fill-opacity:1" d="M4.15,-16.5Q4.15 -16.1 4.45 -16.05Q4.75 -16.1 4.8 -16.5L4.45 -16.9Q4.15 -16.85 4.15 -16.5" />
<path style="fill:none;stroke-width:0.25;stroke-linecap:round;stroke-linejoin:round;stroke-miterlimit:3;stroke:#000000;stroke-opacity:1" d="M1.85,-14.45L2.15 -14Q2.4 -13.6 3 -13.5Q3.6 -13.4 4.5 -14.25" />
<path style="fill:none;stroke-width:0.25;stroke-linecap:round;stroke-linejoin:round;stroke-miterlimit:3;stroke:#000000;stroke-opacity:1" d="M3,-16.5L3 -16.1L2.8 -16.1L2.4 -15.9L2.35 -15.45Q2.45 -15.2 2.85 -15.2" />
<path style="fill:#452725;fill-opacity:1" d="M0.25,-21Q-1 -19.95 -1.5 -18.45Q-1.95 -16.95 -1.95 -15.45L-1.75 -13L-1.5 -12L0.15 -12L0.55 -18.75L6.7 -18.25L6.6 -12.9L5.5 -12.1L6.65 -12.1L9.1 -12.05L11.3 -12.05L11.65 -12.05L11.45 -12.3L11.3 -13.7L10.4 -17.45Q9.8 -19.4 8.75 -20.4Q7.65 -21.45 6.6 -21.8L4.75 -22.2L3.95 -22.25Q1.5 -22.05 0.25 -21" />
</g>
</svg>
