<?xml version="1.0" encoding="utf-8"?>
<svg version="1.1" id="Layer_1"
xmlns="http://www.w3.org/2000/svg"
xmlns:xlink="http://www.w3.org/1999/xlink"
xmlns:author="http://www.sothink.com"
width="16px" height="8px"
xml:space="preserve">
<g id="13" transform="matrix(1, 0, 0, 1, 7.65, 3.75)">
<path style="fill:#D87720;fill-opacity:1" d="M1.8,-2.5L2.5 -2.5L2.7 -2.2Q2.75 -1.9 2.5 -1.9L1.8 -1.9L1.8 -1.5L2.6 -1.5L2.8 -1.2L2.6 -0.9L1.8 -0.9L1.8 -0.6L6.45 -0.6L6.45 -1L5.55 -1Q5.3 -1 5.35 -1.3Q5.3 -1.5 5.55 -1.5L6.45 -1.5L6.45 -1.9L5.45 -1.9Q5.25 -1.9 5.25 -2.2L5.45 -2.5L6.45 -2.5L6.45 -2.7L6.25 -2.9L5.45 -2.9Q5.15 -2.9 5.15 -3.2Q5.15 -3.5 5.45 -3.5L6.55 -3.5Q7 -3.5 7.05 -2.9L7.05 -0.6L7.45 -0.4L7.65 0.2L7.55 0.75L7.25 1.05Q6.95 1.05 6.95 0.75L7.05 0.3L6.75 0L1.5 0Q1.2 -0.05 1.2 0.2L1.2 0.75L0.9 1.05Q0.6 1.05 0.6 0.75L0.6 -0.1Q0.6 -0.65 1.1 -0.6L1.2 -0.6L1.2 -2.9L1.3 -3.3L2.1 -3.5L2.8 -3.6L3.1 -3.3L2.9 -3L2.2 -2.9Q1.75 -2.9 1.8 -2.6L1.8 -2.5M-0.75,-1.95L-2.15 -0.85L-3.65 -0.05L-3.75 -0.05L-3.75 2.3L-3.55 2.7L-2.45 2.8L-1.35 2.7L-1.15 2.4L-1.15 1.6L-0.85 1.3Q-0.55 1.3 -0.55 1.7L-0.65 3L-1.15 3.3L-2.45 3.5L-3.95 3.2Q-4.4 3 -4.35 2.4L-4.35 -3.35L-4.05 -3.65Q-3.75 -3.65 -3.75 -3.35L-3.75 -0.75Q-2.7 -1.15 -2.45 -1.45L-1.15 -2.55L-0.95 -2.65Q-0.65 -2.65 -0.65 -2.25L-0.75 -1.95M2.1,0.3L5.65 0.3Q6.3 0.35 6.35 0.75L6.05 0.95L4.6 1.45L4.6 1.55L4.7 1.75L7.25 1.75L7.55 2.05L7.25 2.35L5.05 2.35L5.05 2.55Q5 3.25 4.6 3.55L3.7 3.75L2.6 3.55L2.4 3.25Q2.4 2.95 2.7 2.95L3.7 3.15L4.2 3.05L4.4 2.55L4.3 2.35L0.9 2.35Q0.6 2.35 0.6 2.05Q0.6 1.75 0.9 1.75L4 1.75L3.7 1.45L3.8 1.25L4.95 0.95L2.1 0.95Q1.8 0.95 1.8 0.65Q1.8 0.3 2.1 0.3M5.05,-1.8L4.6 -1.5L5.05 -1.2L5.05 -1L4.7 -0.8L4.5 -0.8L4.2 -1.1L4 -1L3.3 -0.7L3.2 -0.7L3 -0.8L2.9 -1L3.1 -1.2L3.7 -1.5L3.4 -1.6L3.3 -1.8Q3.3 -2.05 3.6 -2L3.7 -2Q3.95 -1.85 4.2 -1.8L4.6 -2.2L4.8 -2.3L5.05 -2.2L5.15 -2L5.05 -1.8M4.8,-3.5L4.8 -3.1L4.6 -2.9L4.8 -2.7L4.8 -2.5L4.5 -2.3Q4.3 -2.3 4.3 -2.4L4.1 -2.5L3.9 -2.4L3.3 -2L3.2 -2L3 -2.1L2.9 -2.3L3.1 -2.5L3.6 -2.8L3.4 -2.9L3.3 -3.1Q3.25 -3.4 3.5 -3.4L3.7 -3.4L4.1 -3.1L4.4 -3.5L4.8 -3.5M-5.75,-3.75Q-5.45 -3.75 -5.45 -3.45L-5.45 -3.25L-6.05 -1.45L-6.05 3.4Q-6.05 3.7 -6.35 3.7L-6.65 3.4L-6.65 -0.25L-7.05 0.35L-7.35 0.45L-7.65 0.15L-7.55 -0.05Q-7.05 -0.65 -6.75 -1.55Q-6.3 -2.3 -6.05 -3.55L-5.75 -3.75" />
</g>
</svg>
