<?xml version="1.0" encoding="utf-8"?>
<svg version="1.1" id="Layer_1"
xmlns="http://www.w3.org/2000/svg"
xmlns:xlink="http://www.w3.org/1999/xlink"
xmlns:author="http://www.sothink.com"
width="36px" height="9px"
xml:space="preserve">
<g id="48" transform="matrix(1, 0, 0, 1, 0, 0)">
<path style="fill:#7E5E2C;fill-opacity:1" d="M1,0.6L3.7 0.6L3.6 0L4.2 0L4.2 0.6L7.1 0.6L8 0.6L8 1.2L7.1 1.1L4.2 1.1L4.2 1.6L6.5 1.6L7.2 1.6L7.1 2.2L7.1 3.6L7.2 4.2L6.85 4.15L6.5 4.1L6.4 4.1L4.2 4.1L4.2 4.8L6.4 4.7L6 4.4L6.4 4.1L7.8 5.3L7.4 5.7L6.9 5.1L6 5.2L6 5.9L7.2 5.9L8 5.8L8 6.4L7.2 6.4L6 6.4L6 7.5Q6.05 8.15 5.1 8.1L4.4 8.1L4.2 7.5L5.1 7.6Q5.5 7.65 5.5 7.4L5.5 6.4L0.8 6.4L0 6.4L0 5.8L0.35 5.9L0.8 5.9L5.5 5.9L5.5 5.2L4 5.25L2.25 5.3L0.9 5.3L0.4 5.4L0.3 4.8L0.65 4.8L1.4 4.8L2.3 4.8L3.7 4.8L3.7 4.1L1.6 4.1L1.15 4.15L0.9 4.2L0.9 3.6L0.9 2.2L0.9 1.6L1.15 1.6L1.6 1.6L3.7 1.6L3.7 1.1L0.9 1.1L0.1 1.2L0.1 0.6L1 0.6M10.35,0.25L11.65 0.25L12.55 0.25L12.55 1.05L12.55 2.45L12.55 2.9L12.55 3.25L11.65 3.15L10.35 3.15L9.45 3.25L9.55 2.45L9.55 1.05L9.45 0.25L10.35 0.25M10.05,1.45L11.95 1.45L11.95 0.75L10.05 0.75L10.05 1.45M12.95,0.25L13.85 0.35L16.25 0.35L17.15 0.25L17.15 0.85L16.25 0.85L15.25 0.85L14.95 1.65L15.95 1.65L16.4 1.65L16.75 1.65L16.65 2.45L16.65 4.85L16.75 5.65L15.95 5.65L14.05 5.65L13.25 5.65L13.35 4.85L13.35 2.45L13.25 1.65L14.05 1.65L14.45 1.65L14.65 0.85L13.85 0.85L12.95 0.85L12.95 0.25M10.05,1.95L10.05 2.75L11.95 2.75L11.95 1.95L10.05 1.95M18.65,1L19.05 1L19.85 1L19.85 0.8L19.85 0L20.45 0L20.45 0.8L20.45 1L21.15 1L21.85 1L21.85 1.6L21.5 1.5L21.15 1.5L20.45 1.5L20.45 2.5L21.35 2.5L21.75 2.45L22.05 2.4L22.05 3L21.35 3L18.75 3L18.05 3L18.05 2.4L18.75 2.5L19.85 2.5L19.85 1.5L19.05 1.5L18.35 1.6L18.35 1L18.65 1M23.15,0.4L25.25 0.4L25.95 0.4L25.95 0.55L25.95 1L25.65 2.3Q25.55 2.6 24.85 2.6L23.95 2.5L23.85 1.9L24.85 2.1L25.2 1.9L25.35 0.9L22.85 0.9L22.85 3.2L24.85 3.2L25.55 3.2L25.85 3.5L25.75 3.9L24.85 6.3L25.55 7L26.35 7.6L26.15 7.85L25.95 8.1L25.2 7.5L24.55 6.8L23.35 8.1L22.95 7.7L24.25 6.3L23.65 5.25L23.15 3.7L22.85 3.7L22.85 7.3L22.95 8.2L22.25 8.2L22.35 7.3L22.35 1.2L22.25 0.3L23.15 0.4M28.85,0.8L29.15 0.1L29.75 0.3L29.65 0.4L29.55 0.7L29.25 1.3L30.95 1.3L30.95 0.9L30.95 0L31.65 0L31.55 0.9L31.55 1.3L33.45 1.3L34.05 1.3L34.45 1.3L34.45 1.9L33.45 1.8L31.55 1.8L31.55 3.4L34.25 3.4L35.15 3.4L35.15 4L34.25 3.9L28.15 3.9L27.25 4L27.25 3.4L28.15 3.4L30.95 3.4L30.95 1.8L28.95 1.8L28.5 2.45L27.85 3.1L27.7 2.9L27.35 2.7L28.25 1.8L28.85 0.8M33.95,7.3L34.05 8.2L33.45 8.2L33.45 7.7L28.95 7.7L28.95 8.2L28.35 8.2L28.35 7.3L28.35 5.6L28.35 4.8L29.25 4.9L33.15 4.9L34.05 4.8L33.95 5.6L33.95 7.3M33.45,5.4L28.95 5.4L28.95 7.2L33.45 7.2L33.45 5.4M25.25,3.7L23.65 3.7L24.05 4.95L24.55 5.8L25.25 3.7M22.05,5L21.35 5L20.45 5L20.45 5.9L21.25 5.9L21.95 5.9L21.95 6.5L21.6 6.4L21.25 6.4L20.45 6.4L20.45 7.3L20.45 8.2L19.85 8.2L19.85 7.3L19.85 6.4L18.95 6.4L18.25 6.5L18.25 5.9L18.95 5.9L19.85 5.9L19.85 5L18.75 5L18.05 5L18.05 4.4L18.75 4.5L20.45 4.5L20.8 3.75L20.95 3.1L21.45 3.2L20.95 4.5L21.35 4.5L21.75 4.5L22.05 4.4L22.05 5M19.15,4.4L18.85 3.2L19.25 3.1L19.45 3.6L19.65 4.2L19.15 4.4M16.15,2.05L13.85 2.05L13.85 2.85L16.15 2.85L16.15 2.05M16.15,3.25L13.85 3.25L13.85 4.05L16.15 4.05L16.15 3.25M15.65,5.85L16.45 6.35L17.25 6.75L16.95 7.25L16.05 6.8L15.25 6.15L15.65 5.85M14.45,6.15L13.75 6.8L12.85 7.25L12.45 6.85L13.4 6.4L14.05 5.85L14.45 6.15M15.05,7.95L12.65 7.85L11.35 7.65Q10.45 7.25 9.95 6.45L9.15 8.05L8.75 7.65L9.45 6.35L9.6 5.65L9.65 4.95L9.55 4.75L10.15 4.75L10.15 5.05L10.05 5.5L10.05 5.85L10.85 6.75L10.85 4.25L9.85 4.25L8.95 4.25L8.95 3.75L9.85 3.75L12.15 3.75L12.95 3.75L12.95 4.25L12.15 4.25L11.45 4.25L11.45 5.25L11.95 5.25L12.65 5.15L12.65 5.75L11.95 5.75L11.45 5.75L11.45 7.05L12.05 7.25L12.85 7.35L13.75 7.4L14.75 7.45L17.45 7.25Q17.2 7.55 17.25 7.95L16.25 7.95L15.05 7.95M16.15,4.45L13.85 4.45L13.85 5.25L16.15 5.25L16.15 4.45M6.6,3.1L4.2 3.1L4.2 3.7L6.6 3.7L6.6 3.1M6.6,2L4.2 2L4.2 2.6L6.6 2.6L6.6 2M3.7,2L1.5 2L1.5 2.6L3.7 2.6L3.7 2M1.5,3.7L3.7 3.7L3.7 3.1L1.5 3.1L1.5 3.7M2.75,7L3.4 7.5L3 8L2.4 7.4L1.7 6.9L2.1 6.5L2.75 7" />
</g>
</svg>
