<?xml version="1.0" encoding="utf-8"?>
<svg version="1.1" id="Layer_1"
xmlns="http://www.w3.org/2000/svg"
xmlns:xlink="http://www.w3.org/1999/xlink"
xmlns:author="http://www.sothink.com"
width="15px" height="8px"
xml:space="preserve">
<g id="18" transform="matrix(1, 0, 0, 1, 7.4, 3.7)">
<path style="fill:#D87720;fill-opacity:1" d="M-6.8,-1.35Q-6.9 -1.05 -7.1 -1.05L-7.4 -1.35L-7.4 -1.95Q-7.4 -2.6 -6.8 -2.65L-4.4 -2.65L-4.4 -2.95L-6.6 -2.95L-6.9 -3.25L-6.6 -3.45L-1.5 -3.45L-1.2 -3.25Q-1.2 -2.95 -1.5 -2.95L-3.8 -2.95L-3.8 -2.65L-1.3 -2.65Q-1 -2.65 -0.8 -2.35L-0.7 -1.85L-0.7 -1.35Q-0.8 -1.1 -1.1 -1.15L-1.4 -1.45L-1.3 -1.75Q-1.25 -2.05 -1.5 -2.05L-3.8 -2.05L-3.8 -0.65Q-3.8 -0.35 -4.1 -0.35L-4.4 -0.65L-4.4 -2.05L-6.5 -2.05L-6.8 -1.75L-6.8 -1.35M-6.5,-1.55L-6.3 -1.75L-5 -1.75L-4.8 -1.55Q-4.8 -1.25 -5 -1.25L-6.3 -1.25Q-6.5 -1.25 -6.5 -1.55M-3.2,-1.75L-1.9 -1.75L-1.7 -1.55Q-1.7 -1.3 -1.9 -1.35L-3.2 -1.35L-3.4 -1.55L-3.2 -1.75M-5,-0.95L-4.8 -0.75Q-4.8 -0.45 -5 -0.45L-6.3 -0.45Q-6.5 -0.45 -6.5 -0.75L-6.3 -0.95L-5 -0.95M-4.4,1.45L-6.3 1.45L-6.3 1.65L-6.1 1.95L-4.4 1.95L-4.4 1.45M-3.8,1.95L-2.1 1.95L-1.9 1.65L-1.9 1.45L-3.8 1.45L-3.8 1.95M-4.4,0.45L-6.1 0.45L-6.3 0.65L-6.3 0.95L-4.4 0.95L-4.4 0.45M-3.8,0.95L-1.9 0.95L-1.9 0.65L-2.1 0.45L-3.8 0.45L-3.8 0.95M-3.4,-0.75L-3.2 -0.95L-1.9 -0.95L-1.7 -0.75Q-1.65 -0.45 -1.9 -0.45L-3.2 -0.45L-3.4 -0.75M-6.3,-0.15L-1.9 -0.15Q-1.3 -0.15 -1.3 0.45L-1.3 1.85Q-1.3 2.45 -1.9 2.45L-3.8 2.45L-3.6 2.95L-2.6 3.05L-1.4 2.95L-1.1 2.85L-1 2.25L-0.7 1.95L-0.4 2.35L-0.5 2.85Q-0.55 3.3 -0.9 3.45L-2.4 3.65L-4 3.45Q-4.4 3.2 -4.4 2.65L-4.4 2.45L-6.3 2.45Q-6.9 2.45 -6.9 1.85L-6.9 0.45Q-6.9 -0.15 -6.3 -0.15M3.8,-3.7L4.2 -3.4L4.1 -3.2L3.4 -2.3L3.3 -2.1L3.4 -1.8L3.9 -0.8L4 -0.7L3.7 -0.4Q3.4 -0.4 3.4 -0.7L2.8 -1.7L2.6 -2.1L2.7 -2.3L3.5 -3.5L3.8 -3.7M4.1,-2.2L4.2 -2.4L5.1 -3.6L5.4 -3.7Q5.7 -3.7 5.7 -3.5L5.6 -3.3L4.9 -2.4L4.8 -2.2L4.9 -1.9L5.6 -0.9L5.6 -0.8L5.3 -0.5L5.1 -0.5L5.2 -0.4L5.1 -0.2L5 -0.1L6.7 -0.1Q7.2 -0.1 7.2 0.5L7.2 3Q7.2 3.55 6.7 3.5L3.4 3.5Q2.8 3.55 2.8 3L2.8 0.5Q2.8 -0.1 3.4 -0.1L4.4 -0.1L4.6 -0.6L4.9 -0.7L5 -0.7L4.3 -1.8L4.1 -2.2M7,-3.7L7.4 -3.4L7.3 -3.2L6.5 -2.3L6.4 -2.1L6.5 -1.9L7.3 -0.9L7.3 -0.8L7 -0.5L6.7 -0.7L6 -1.8L5.8 -2.1L5.9 -2.3L6.7 -3.5L7 -3.7M1.4,-3.1L1.3 -2.8L1.3 -1.6L1.9 -1.6L1.9 -2.8L1.7 -3.1L1.4 -3.1M2,-3.7Q2.45 -3.7 2.4 -3.2L2.4 3.1Q2.4 3.7 1.8 3.7L1.4 3.6L1.2 3.3Q1.2 3 1.5 3L1.7 3L1.9 2.8L1.9 1.1L1.3 1.1L1.2 2.1L1 3.4L0.7 3.7Q0.4 3.7 0.4 3.4L0.4 3.3L0.6 2L0.7 0.4L0.7 -3.2Q0.75 -3.7 1.2 -3.7L2 -3.7M1.3,-1L1.3 0.5L1.9 0.5L1.9 -1L1.3 -1M5.2,1.4L5.8 0.8L5.9 0.7L6.1 0.8L6.2 1L6.2 1.2L5.6 1.8L6.3 2.3L6.4 2.5L6.1 2.8Q5.95 2.85 5.9 2.7L5.1 2.2L4.9 2.3L4 2.7L3.7 2.7L3.6 2.4L3.7 2.2L4.6 1.8L3.8 1.3L3.7 1.1Q3.7 0.8 4 0.8L4.2 0.9L5.1 1.5L5.2 1.4M6.4,0.5L3.6 0.5L3.4 0.7L3.4 2.7L3.6 3L6.4 3L6.6 2.7L6.6 0.7L6.4 0.5" />
</g>
</svg>
