<?xml version="1.0" encoding="utf-8"?>
<svg version="1.1" id="Layer_1"
xmlns="http://www.w3.org/2000/svg"
xmlns:xlink="http://www.w3.org/1999/xlink"
xmlns:author="http://www.sothink.com"
width="87px" height="26px"
xml:space="preserve">
<g id="2" transform="matrix(1, 0, 0, 1, 43.25, 12.95)">
<path style="fill:#1A883C;fill-opacity:1" d="M42.85,-10.55L41.65 -10.55L41.65 -10.35L40.45 -7.55L39.15 -5.85Q39.8 -5.25 40.75 -4.85Q41.55 -4.25 42.95 -3.85L43.25 -3.35Q43.3 -2.9 42.85 -2.85L42.55 -2.95L39.85 -4.25L38.45 -5.15L37.15 -4.25Q36 -3.45 34.25 -2.85L33.95 -2.85L33.65 -2.95L33.55 -3.25Q33.55 -3.55 33.85 -3.65Q35.5 -4.25 36.55 -4.95Q37.15 -5.25 37.75 -5.85L36.25 -7.75Q35.5 -9.1 35.15 -10.55L34.05 -10.55Q33.65 -10.6 33.65 -11.05Q33.65 -11.5 34.05 -11.45L37.95 -11.45L37.95 -12.45Q37.9 -12.85 38.35 -12.85Q38.85 -12.85 38.85 -12.45L38.85 -11.45L42.85 -11.45L43.25 -11.05Q43.2 -10.6 42.85 -10.55M35.95,-10.55L37.15 -7.95L38.45 -6.45L39.75 -8.05Q40.4 -9.1 40.85 -10.55L35.95 -10.55M31.95,-2.75L31.65 -2.95Q30.45 -3.85 29.55 -4.95L28.35 -6.85Q27.75 -7.75 27.45 -8.85L26.65 -6.95Q26.25 -5.95 25.35 -4.95L23.35 -2.95L23.05 -2.75Q22.6 -2.9 22.55 -3.35L22.75 -3.75L24.55 -5.55L26.05 -7.75L26.85 -9.65L27.05 -11.35L27.05 -12.55Q27.05 -12.95 27.45 -12.95Q27.95 -12.95 27.95 -12.55L27.95 -11.35L28.15 -9.55Q28.45 -8.5 29.05 -7.45L30.55 -5.35L32.25 -3.75L32.45 -3.35Q32.45 -2.9 31.95 -2.75M3.25,-10.85L1.45 -10.15L0.95 -10.05Q0.55 -10.05 0.55 -10.55L0.85 -10.95L3.25 -11.75Q4.25 -12.15 5.25 -12.85L5.55 -12.95L5.85 -12.85L8.15 -11.55L10.15 -10.95L10.55 -10.55Q10.45 -10.05 10.05 -10.05L9.55 -10.15Q8.5 -10.4 7.45 -10.95L7.45 -10.85Q7.45 -10.5 7.15 -10.45L3.85 -10.45Q3.5 -10.5 3.45 -10.85L3.45 -10.95L3.25 -10.85M5.55,-12.05L5.25 -11.95L4.15 -11.25L6.95 -11.25L5.85 -11.85L5.55 -12.05M-3.4,-12.85Q-2.95 -12.8 -2.9 -12.35L-2.9 -9.95L-1.5 -9.95Q-1.05 -9.9 -1.1 -9.45Q-1.05 -9.1 -1.5 -9.05L-2.9 -9.05L-2.9 -4.05L-0.9 -4.05Q-0.45 -4.1 -0.4 -3.65Q-0.45 -3.15 -0.9 -3.15L-5.7 -3.15Q-6.15 -3.15 -6.1 -3.65Q-6.15 -4.1 -5.7 -4.05L-3.9 -4.05L-3.9 -9.05L-5.2 -9.05Q-5.65 -9.1 -5.6 -9.45Q-5.65 -9.9 -5.2 -9.95L-3.9 -9.95L-3.9 -12.35Q-3.9 -12.8 -3.4 -12.85M-6.6,-11.65L-9.4 -11.65Q-9.85 -11.65 -9.8 -12.15L-9.4 -12.55L-6.6 -12.55Q-6.2 -12.5 -6.2 -12.15Q-6.2 -11.65 -6.6 -11.65M-5.8,-10.15Q-5.85 -9.7 -6.2 -9.75L-7.5 -9.75L-7.5 -3.15Q-7.5 -2.7 -7.9 -2.75Q-8.35 -2.7 -8.3 -3.15L-8.3 -9.75L-9.7 -9.75Q-10.15 -9.7 -10.1 -10.15Q-10.15 -10.6 -9.7 -10.55L-6.2 -10.55Q-5.85 -10.6 -5.8 -10.15M1.25,-9.25Q1.3 -9.95 2.05 -9.95L8.95 -9.95Q9.75 -9.95 9.75 -9.25L9.75 -7.85Q9.75 -7.1 8.95 -7.05L2.05 -7.05Q1.3 -7.05 1.25 -7.85L1.25 -9.25M-6.6,-8.85Q-6.35 -8.85 -6.2 -8.55L-6 -5.55L-6 -4.95Q-6 -4.65 -6.3 -4.65Q-6.65 -4.65 -6.7 -4.95L-6.9 -8.25L-6.9 -8.55L-6.6 -8.85M8.05,-8.65L7.95 -8.45L7.65 -7.85L8.65 -7.85Q8.9 -7.85 8.85 -8.15L8.85 -8.95L8.65 -9.25L5.95 -9.25L5.95 -7.85L6.65 -7.85L6.85 -8.05L7.35 -8.95L7.65 -9.15L7.95 -8.95L8.05 -8.65M8.25,-4.45L2.75 -4.45L2.75 -4.05Q2.75 -3.7 3.05 -3.65L7.95 -3.65Q8.25 -3.7 8.25 -4.05L8.25 -4.45M8.25,-5.45L7.95 -5.75L3.05 -5.75Q2.75 -5.75 2.75 -5.45L2.75 -5.15L8.25 -5.15L8.25 -5.45M9.05,-5.75L9.05 -3.65Q9 -3 8.35 -2.95L2.65 -2.95Q1.9 -3 1.95 -3.65L1.95 -5.75Q1.95 -6.45 2.65 -6.45L8.35 -6.45Q9 -6.45 9.05 -5.75M5.05,-7.85L5.05 -9.25L2.35 -9.25Q2.1 -9.25 2.15 -8.95L2.15 -8.15Q2.1 -7.85 2.35 -7.85L3.65 -7.85L3.05 -8.55L2.95 -8.75Q3 -9.15 3.35 -9.15L3.65 -9.05L4.15 -8.35L4.25 -8.15Q4.25 -7.85 4.05 -7.85L5.05 -7.85M14.55,-11.55L14.45 -9.65L17.95 -9.65L18.45 -11.35L18.25 -11.55L14.55 -11.55M12.25,-12.45L18.65 -12.45Q19.45 -12.4 19.45 -11.65L18.85 -9.65L20.35 -9.65Q20.95 -9.6 20.95 -8.85L20.65 -8.05L19.45 -6.15L18.45 -5.25L19.45 -4.65L21.15 -3.95L21.45 -3.45Q21.5 -2.95 21.05 -2.95L20.75 -2.95Q19.4 -3.5 18.65 -3.95Q18.1 -4.2 17.65 -4.65L17.55 -4.55Q16.2 -3.6 14.25 -2.95L13.85 -2.85Q13.4 -2.9 13.45 -3.35L13.65 -3.75Q15.6 -4.45 16.65 -5.05L16.95 -5.25L15.85 -6.65Q15.25 -7.6 14.95 -8.85L14.35 -8.85Q14.25 -7.8 13.95 -7.05Q13.45 -4.95 12.35 -3.05L11.85 -2.85Q11.5 -2.9 11.45 -3.35L11.55 -3.55Q12.65 -5.3 13.15 -7.25L13.75 -11.55L12.25 -11.55Q11.85 -11.5 11.85 -11.95Q11.85 -12.4 12.25 -12.45M19.95,-8.55L19.75 -8.85L15.75 -8.85L16.65 -6.95L17.65 -5.75L18.65 -6.55L19.75 -8.15L19.95 -8.55M31.4,4.25L28.7 4.25Q28.4 4.25 28.4 3.85Q28.4 3.5 28.7 3.45L32.8 3.45L32.8 3.25Q32.75 2.75 33.2 2.75Q33.65 2.75 33.7 3.25L33.7 3.45L37.7 3.45L38.1 3.85L37.7 4.25L35.6 4.25L36.5 4.95L37.9 6.25L37.9 6.55L37.5 6.85L37.2 6.75L36.3 5.85L36.2 5.85L28.8 6.45Q28.35 6.45 28.4 5.85Q28.35 5.5 28.8 5.45L30.2 5.45L31.4 4.25M29.9,8.55L36.5 8.55L36.5 7.95L36.3 7.55L30.2 7.55Q29.9 7.6 29.9 7.95L29.9 8.55M29.9,6.75L36.6 6.75Q37.35 6.8 37.4 7.45L37.4 11.95Q37.35 12.85 36.1 12.85L34.4 12.65L34.1 12.25Q34.05 11.75 34.5 11.75L34.8 11.85L36 11.95Q36.45 12 36.5 11.45L36.5 10.95L29.9 10.95L29.9 12.55Q29.9 12.95 29.5 12.95Q29.05 12.95 29.1 12.55L29.1 7.45Q29.05 6.8 29.9 6.75M26.2,5.15L26.1 6.85L25.6 9.15L25.2 9.95L25.7 10.55Q26 11.05 27 11.95L27.1 12.35L26.7 12.75Q26.4 12.75 26 12.35Q25.25 11.65 24.8 10.75L24.4 11.25L22.6 12.75L22.3 12.85Q21.8 12.8 21.8 12.35L22 11.95Q23.2 11.35 23.8 10.45L24.2 9.85L23.9 9.25L23.3 7.05L22.8 8.25L22.4 8.35Q21.95 8.4 22 7.95L22.1 7.65L22.9 5.35L23 3.25Q23.05 2.9 23.4 2.85Q23.8 2.85 23.8 3.35L23.8 4.25L26.6 4.25Q27 4.25 27 4.75Q27 5.15 26.6 5.15L26.2 5.15M23.7,5.25Q23.8 6.75 24.4 8.25L24.7 9.05L24.9 8.55L25.4 5.15L23.7 5.15L23.7 5.25M22.2,3.75L21.3 5.85L22 5.85Q22.45 5.9 22.4 6.25Q22.45 6.65 22 6.65L20.8 6.65L20.2 7.35L21.3 7.35Q21.75 7.35 21.8 7.95L21.7 8.35L20.7 9.35L20.7 9.45L20.8 9.65L22.1 9.15L22.3 9.15L22.7 9.45L22.4 9.85L21.2 10.35L21.2 10.45L21.4 11.25Q21.35 12.15 20.9 12.55L19.7 12.85L18.5 12.65L18.2 12.25Q18.35 11.8 18.6 11.85L19.7 12.05L20.4 11.95L20.6 11.25L20.5 10.55L20.2 10.65L17.7 11.25Q17.4 11.15 17.4 10.75Q17.4 10.4 17.7 10.35L19.8 9.85L20.1 9.85L19.9 9.65L19.8 9.35L20 9.05L20.9 8.25L20.7 8.15L19.5 8.15L17.9 9.35L17.7 9.45L17.4 9.25L17.3 8.95L17.5 8.65L19.1 7.45L19.8 6.65L17.7 6.65Q17.35 6.65 17.3 6.25Q17.35 5.9 17.7 5.85L19.2 5.85L19.2 4.65L17.9 4.65Q17.55 4.65 17.5 4.25Q17.55 3.95 17.9 3.95L19.2 3.95L19.2 3.25Q19.15 2.75 19.6 2.75Q20 2.75 20 3.25L20 3.95L20.9 3.95L21.3 4.05L21.5 3.45Q21.6 3.15 21.9 3.15L22.2 3.25L22.3 3.45L22.2 3.75M29.9,10.15L36.5 10.15L36.5 9.25L29.9 9.25L29.9 10.15M20,4.65L20 5.85L20.3 5.85L20.5 5.65L21 4.65L20 4.65M15.9,5.25L15.9 5.55Q15.95 6 15.5 5.95L15.2 5.65L14.5 4.25L14.5 3.95Q14.45 3.65 14.9 3.65L15.2 3.85L15.9 5.25M13.8,3.05Q14.15 3.05 14.2 3.35L14.3 6.65L15.8 6.65L16.2 6.95L15.8 7.45L14.4 7.45L14.5 8.75L14.6 9.65L15.1 7.95Q15.15 7.65 15.5 7.65L15.7 7.75L15.8 7.95L15.8 8.25L15.2 10.15L14.9 10.95L15 11.35L15.2 11.55L15.3 11.55L15.3 10.65L15.7 10.15Q16.1 10.2 16.1 10.65L15.8 12.25Q15.65 12.85 15.2 12.85L14.6 12.35L14.4 11.95L13.7 12.85L13.5 12.85L13.2 12.75L13.1 12.45L13.2 12.15L14 11.15L14.1 10.85L14.1 10.75Q13.7 9.25 13.6 7.45L9.6 7.45Q9.15 7.45 9.2 6.95Q9.15 6.65 9.6 6.65L11.4 6.65L11.7 6.25L12.2 5.15L12.5 4.95L12.8 5.05L12.9 5.35L12.9 5.65L12.5 6.45L12.4 6.65L13.5 6.65L13.5 4.65L13.1 4.75L9.8 4.75Q9.35 4.8 9.4 4.35Q9.35 4 9.8 3.95L11 3.95L11 3.55Q11.05 3.1 11.4 3.05Q11.8 3.1 11.8 3.55L11.8 3.95L13.1 3.95Q13.4 3.95 13.4 4.15L13.4 3.35Q13.35 3.05 13.8 3.05M12.3,10.65L10.5 10.65L10.5 11.55Q10.5 11.85 10.8 11.85L12 11.85L12.3 11.55L12.3 10.65M12.3,9.15L12 8.85L10.8 8.85Q10.5 8.85 10.5 9.15L10.5 9.85L12.3 9.85L12.3 9.15M12.4,12.65L10.4 12.65Q9.8 12.65 9.8 11.85L9.8 8.75Q9.8 8.05 10.4 8.05L12.4 8.05Q13.05 8.05 13.1 8.75L13.1 11.85Q13.05 12.65 12.4 12.65M10.5,5.05L10.9 5.85L10.9 6.05Q10.95 6.5 10.5 6.45L10.3 6.45L9.9 5.65L9.8 5.35Q9.8 4.9 10.3 4.95L10.5 5.05M8.7,3.25L9.1 3.65L8.7 4.05L7 4.05Q6.55 4 6.6 3.65Q6.55 3.25 7 3.25L8.7 3.25M6.7,5.35Q6.35 5.35 6.3 4.85Q6.35 4.5 6.7 4.45L8.9 4.45Q9.3 4.5 9.3 4.85Q9.3 5.35 8.9 5.35L6.7 5.35M6.9,7.95Q6.6 8 6.6 7.55Q6.6 7.2 6.9 7.15L8.7 7.15L9.1 7.55L8.7 7.95L6.9 7.95M6.9,5.85L8.7 5.85L9.1 6.25L8.7 6.65L6.9 6.65Q6.6 6.7 6.6 6.25Q6.6 5.9 6.9 5.85M2.55,5.25L2.55 5.45L3.95 5.45Q4.75 5.5 4.75 6.25L4.75 10.35Q4.7 11.25 3.75 11.25L2.85 11.25L2.65 10.85Q2.65 10.4 2.95 10.35L3.15 10.45L3.65 10.45Q3.95 10.5 3.95 10.05L3.95 9.45L1.95 9.45L1.95 10.55Q2 11 1.55 10.95Q1.15 11 1.15 10.55L1.15 9.45L-0.65 9.45L-0.65 10.85Q-0.65 11.3 -1.15 11.25L-1.55 10.85L-1.55 6.25Q-1.55 5.5 -0.65 5.45L1.65 5.45L0.25 5.05Q-0.15 4.95 -0.15 4.65Q-0.15 4.25 0.25 4.25L1.35 4.55L2.65 4.05L2.75 3.95L2.65 3.85L-0.95 3.85L-1.35 3.45L-0.95 3.05L3.55 3.05Q4.15 3.1 4.15 3.45L3.95 4.05L2.35 4.95L2.55 5.25M1.95,7.85L1.95 8.75L3.95 8.75L3.95 7.85L1.95 7.85M3.65,6.25L1.95 6.25L1.95 7.05L3.95 7.05L3.95 6.55L3.65 6.25M4.75,12.75L0.15 12.75L-1.35 12.55L-2.45 12.05L-2.65 11.95L-2.75 12.05L-3.65 12.75L-4.05 12.85L-4.55 12.45Q-4.55 12.05 -4.25 11.95Q-3.6 11.75 -3.45 11.55Q-3.15 11.25 -3.15 10.65L-3.15 8.85L-3.35 8.65L-4.15 8.65Q-4.6 8.7 -4.55 8.25Q-4.55 7.85 -4.15 7.85L-2.95 7.85Q-2.3 7.85 -2.25 8.55L-2.25 10.65Q-2.3 11.15 -1.75 11.45L-0.05 11.85L4.75 11.85Q5.2 11.85 5.15 12.25Q5.2 12.75 4.75 12.75M7.1,8.65L8.6 8.65Q9.25 8.7 9.3 9.35L9.3 11.95Q9.25 12.7 8.6 12.65L7.1 12.65Q6.5 12.65 6.5 11.95L6.5 9.35Q6.5 8.7 7.1 8.65M7.5,9.45Q7.25 9.45 7.3 9.75L7.3 11.55Q7.25 11.85 7.5 11.85L8.2 11.85L8.5 11.55L8.5 9.75L8.2 9.45L7.5 9.45M-3.45,4.05L-3.95 3.75L-4.05 3.45Q-4.05 3.05 -3.65 3.05L-3.35 3.05L-2.85 3.45Q-2.5 3.6 -2.05 4.05L-2.05 4.25Q-2 4.7 -2.45 4.65L-2.75 4.55L-3.45 4.05M-2.45,6.25L-2.35 6.45Q-2.4 6.9 -2.75 6.85L-3.15 6.75L-3.75 6.25L-4.35 5.95L-4.45 5.65Q-4.45 5.25 -4.05 5.25L-3.75 5.35L-3.15 5.65Q-2.85 5.8 -2.45 6.25M-0.65,7.85L-0.65 8.75L1.15 8.75L1.15 7.85L-0.65 7.85M-0.65,6.55L-0.65 7.05L1.15 7.05L1.15 6.25L-0.45 6.25L-0.65 6.55M34.9,4.75L34.8 4.45L34.8 4.25L32.4 4.25L31.2 5.35L35.4 5.15L34.9 4.75M-33.8,-11.65L-33.8 -3.85Q-33.75 -3 -34.6 -3.05L-39.85 -3.05Q-40.7 -3 -40.65 -3.85L-40.65 -11.65Q-40.7 -12.55 -39.85 -12.55L-34.6 -12.55Q-33.75 -12.55 -33.8 -11.65M-36.85,-11.65L-36.85 -10.65L-35.2 -10.65Q-34.9 -10.6 -34.9 -10.25Q-34.9 -9.8 -35.2 -9.75L-36.85 -9.75L-36.85 -8.45L-35.9 -8.45Q-35.2 -8.45 -35.2 -7.75L-35.2 -5.45Q-35.2 -4.7 -35.9 -4.75L-38.55 -4.75Q-39.3 -4.75 -39.25 -5.45L-39.25 -7.75Q-39.3 -8.5 -38.55 -8.45L-37.65 -8.45L-37.65 -9.75L-39.25 -9.75Q-39.55 -9.8 -39.55 -10.25L-39.25 -10.65L-37.65 -10.65L-37.65 -11.65L-39.45 -11.65Q-39.9 -11.7 -39.85 -11.25L-39.85 -4.25Q-39.9 -3.85 -39.45 -3.85L-35 -3.85Q-34.55 -3.85 -34.6 -4.25L-34.6 -11.25Q-34.55 -11.7 -35 -11.65L-36.85 -11.65M-41.65,-12.55L-41.35 -12.85Q-40.9 -12.85 -40.85 -12.45L-40.95 -12.25L-41.45 -10.25L-41.45 -3.15Q-41.45 -2.7 -41.85 -2.75Q-42.25 -2.7 -42.25 -3.15L-42.25 -8.15L-42.55 -7.65L-42.85 -7.55Q-43.25 -7.5 -43.25 -7.95L-43.25 -8.15L-42.35 -10.05L-41.65 -12.55M-36.25,-7.65L-38.25 -7.65L-38.45 -7.35L-38.45 -5.85Q-38.45 -5.45 -38.25 -5.45L-36.25 -5.45Q-35.9 -5.45 -35.9 -5.85L-35.9 -7.35L-36.25 -7.65M-31.75,-2.75Q-32.35 -2.9 -32.35 -3.35L-32.15 -3.75L-30.25 -5.55L-28.75 -7.75Q-28.25 -8.8 -28.05 -9.65L-27.85 -11.35L-27.85 -12.55Q-27.8 -12.95 -27.35 -12.95Q-26.95 -12.95 -26.95 -12.55L-26.95 -11.35L-26.65 -9.55Q-26.5 -8.5 -25.85 -7.45L-24.35 -5.35L-22.65 -3.75L-22.45 -3.35Q-22.45 -2.9 -22.95 -2.75L-23.25 -2.95L-25.35 -4.95L-26.55 -6.85L-27.35 -8.85L-28.15 -6.95L-29.45 -4.95L-31.45 -2.95L-31.75 -2.75M-9,-8.45L-9.1 -6.25L-9.5 -4.35L-9.8 -4.15Q-10.2 -4.1 -10.2 -4.55L-10.2 -4.75L-9.9 -6.45L-9.8 -8.45L-9.4 -8.85Q-9 -8.8 -9 -8.45M-16.85,-9.05Q-15.8 -8.15 -15.35 -7.25L-15.05 -6.65Q-15.1 -6.2 -15.55 -6.25L-15.85 -6.45Q-16.45 -7.8 -17.65 -8.55L-17.85 -8.85Q-17.8 -9.3 -17.35 -9.35L-16.85 -9.05M-9.7,4.4L-9.7 4.6L-11.4 12.3L-11.5 12.6L-11.8 12.7L-12.2 12.2L-12.1 12L-10.4 4.2L-10 3.9Q-9.7 3.9 -9.7 4.4M-17.85,6.85L-18.15 6.75L-19.05 5.85L-19.15 5.85L-26.55 6.45Q-26.95 6.45 -26.95 5.85Q-26.95 5.5 -26.55 5.45L-25.15 5.45L-23.95 4.25L-26.65 4.25Q-27.1 4.25 -27.05 3.85Q-27.05 3.5 -26.65 3.45L-22.65 3.45L-22.65 3.25Q-22.6 2.75 -22.15 2.75Q-21.7 2.75 -21.75 3.25L-21.75 3.45L-17.65 3.45Q-17.35 3.5 -17.35 3.85Q-17.35 4.25 -17.65 4.25L-19.75 4.25L-18.85 4.95L-17.55 6.25L-17.45 6.55L-17.85 6.85M-17.95,7.45L-17.95 11.95Q-17.95 12.85 -19.35 12.85L-20.95 12.65L-21.25 12.25Q-21.25 11.75 -20.85 11.75L-20.55 11.85L-19.35 11.95Q-18.85 12 -18.85 11.45L-18.85 10.95L-25.45 10.95L-25.45 12.55Q-25.4 12.95 -25.85 12.95Q-26.25 12.95 -26.25 12.55L-26.25 7.45Q-26.25 6.8 -25.55 6.75L-18.75 6.75Q-17.95 6.8 -17.95 7.45M-20.45,4.75L-20.55 4.45L-20.55 4.25L-22.95 4.25L-24.15 5.35L-19.95 5.15L-20.45 4.75M-18.85,7.95Q-18.85 7.6 -19.15 7.55L-25.25 7.55L-25.45 7.95L-25.45 8.55L-18.85 8.55L-18.85 7.95M-28.75,5.15L-29.15 5.15L-29.25 6.85L-29.75 9.15L-30.15 9.95L-29.75 10.55L-28.35 11.95L-28.25 12.35Q-28.2 12.7 -28.65 12.75L-29.35 12.35L-30.65 10.75L-30.95 11.25L-32.75 12.75L-33.05 12.85Q-33.5 12.8 -33.55 12.35L-33.35 11.95Q-32.15 11.35 -31.55 10.45L-31.15 9.85L-31.45 9.25L-32.05 7.05L-32.65 8.25L-32.95 8.35Q-33.35 8.4 -33.35 7.95L-33.25 7.65Q-32.75 6.65 -32.55 5.35L-32.35 3.25Q-32.35 2.9 -31.95 2.85Q-31.5 2.85 -31.55 3.35L-31.55 4.25L-28.75 4.25Q-28.3 4.25 -28.35 4.75Q-28.3 5.15 -28.75 5.15M-25.45,10.15L-18.85 10.15L-18.85 9.25L-25.45 9.25L-25.45 10.15M-33.45,3.15L-33.25 3.25L-33.05 3.45L-33.15 3.75L-34.05 5.85L-33.35 5.85Q-32.9 5.9 -32.95 6.25Q-32.9 6.65 -33.35 6.65L-34.55 6.65L-35.15 7.35L-34.05 7.35Q-33.55 7.35 -33.55 7.95Q-33.5 8.15 -33.75 8.35L-34.65 9.35L-34.65 9.65L-34.55 9.65L-33.25 9.15L-33.05 9.15Q-32.75 9.15 -32.75 9.45L-32.95 9.85L-34.15 10.35L-34.15 10.45L-33.95 11.25Q-33.95 12.15 -34.45 12.55L-35.65 12.85L-36.9 12.65L-37.2 12.25Q-37.15 11.8 -36.8 11.85L-35.65 12.05L-35.05 11.95Q-34.75 11.65 -34.75 11.25L-34.85 10.55L-35.15 10.65L-37.7 11.25L-38 10.75Q-38 10.4 -37.7 10.35L-35.55 9.85L-35.25 9.85L-35.45 9.65L-35.55 9.35L-35.45 9.05L-34.55 8.25L-34.65 8.15L-35.85 8.15L-37.5 9.35L-37.7 9.45L-38 9.25L-38.1 8.95L-38 8.65Q-36.95 8.15 -36.4 7.45L-35.65 6.65L-37.7 6.65Q-38.15 6.65 -38.1 6.25Q-38.1 5.9 -37.7 5.85L-36.2 5.85L-36.2 4.65L-37.5 4.65Q-37.9 4.65 -37.9 4.25L-37.5 3.95L-36.2 3.95L-36.2 3.25Q-36.2 2.75 -35.75 2.75Q-35.3 2.75 -35.35 3.25L-35.35 3.95L-34.45 3.95Q-34.15 3.9 -34.15 4.05L-33.85 3.45Q-33.8 3.15 -33.45 3.15M-31.65,5.25Q-31.6 6.75 -30.95 8.25L-30.65 9.05L-30.55 8.55Q-30.1 7.35 -29.95 5.15L-31.65 5.15L-31.65 5.25M-35.35,4.65L-35.35 5.85L-35.05 5.85L-34.85 5.65L-34.35 4.65L-35.35 4.65" />
</g>
</svg>
