<?xml version="1.0" encoding="utf-8"?>
<svg version="1.1" id="Layer_1"
xmlns="http://www.w3.org/2000/svg"
xmlns:xlink="http://www.w3.org/1999/xlink"
xmlns:author="http://www.sothink.com"
width="40px" height="18px"
xml:space="preserve">
<g id="11" transform="matrix(1, 0, 0, 1, 19.6, 8.55)">
<path style="fill:#1B3C22;fill-opacity:1" d="M-19.3,-7.25L-16.5 -7.25L-16.3 -6.95Q-16.3 -6.65 -16.5 -6.65L-19.3 -6.65L-19.6 -6.95L-19.3 -7.25M-19.5,4.65L-19 4.05L-18.4 3.25L-18.1 2.35L-17.8 2.05L-17.6 2.15L-17.5 2.35L-17.5 2.55L-17.9 3.65L-18.5 4.55L-19.1 5.15L-19.3 5.25L-19.6 5.15L-19.6 4.85L-19.5 4.65M6.8,-7.7L6.8 -1.2L6.5 -1L6.2 -1.2L6.2 -4.8L4.7 -4.6Q4.4 -4.6 4.4 -4.9Q4.4 -5.2 4.7 -5.2L4.9 -5.2L4.9 -7.7L4.7 -7.7Q4.55 -7.7 4.5 -8L4.7 -8.2L6.9 -8.2L7.1 -8Q7.1 -7.7 6.9 -7.7L6.8 -7.7M6.2,-7.7L5.5 -7.7L5.5 -7.2L6.2 -7.2L6.2 -7.7M7.1,-7.6Q7.1 -7.9 7.4 -7.9L8.9 -7.9L8.9 -8.1Q8.9 -8.4 9.2 -8.4L9.5 -8.1L9.5 -7.9L11.2 -7.9L11.4 -7.6L11.2 -7.4L9.5 -7.4L9.5 -6.9L10.7 -6.9Q11.15 -6.95 11.1 -6.5L11.1 -5.4Q11.15 -4.95 10.7 -4.9L7.6 -4.9Q7.25 -4.95 7.2 -5.4L7.2 -6.5Q7.25 -6.95 7.6 -6.9L8.9 -6.9L8.9 -7.4L7.4 -7.4L7.1 -7.6M1.6,-8.15L2.6 -6.75L3.4 -5.95L3.6 -5.75L3.3 -5.45L3.1 -5.45L2.4 -6.15Q1.8 -6.6 1.4 -7.35L1.3 -7.45L1.2 -7.35Q0.6 -6.3 -0.4 -5.55L-0.6 -5.45L-0.9 -5.75L-0.8 -6.05L0.1 -6.85L1 -8.15L1.3 -8.35L1.6 -8.15M5.5,-5.3L6.2 -5.4L6.2 -5.9L5.5 -5.9L5.5 -5.3M4.5,-4Q4.45 -4.2 4.7 -4.2L5.9 -4.2L6.1 -4L5.9 -3.7L5.6 -3.7L5.6 -3.2L5.8 -3.2L6.1 -2.9L5.8 -2.7L5.6 -2.7L5.6 -2L5.7 -2L5.8 -2.1L6.1 -1.8L5.9 -1.6L5.3 -1.4L4.6 -1.2Q4.35 -1.2 4.4 -1.5Q4.35 -1.8 4.6 -1.8L5 -1.9L5 -2.7L4.7 -2.7L4.5 -2.9L4.7 -3.2L5 -3.2L5 -3.7L4.7 -3.7Q4.45 -3.7 4.5 -4M3.4,-3.85L3.2 -3.05Q3.05 -2.45 2.7 -2.15L1.8 -1.45L0.3 -1.05Q-0.1 -1 -0.1 -1.45L0.2 -1.75L1.2 -1.85L1.9 -2.25L2.6 -3.05L2.7 -3.65L2.6 -3.75L-0.4 -3.75L-0.6 -4.05L-0.4 -4.35L2.8 -4.35Q3.4 -4.3 3.4 -3.85M2.6,-5.45L2.3 -5.15L0.4 -5.15Q0.1 -5.15 0.1 -5.45Q0.1 -5.75 0.4 -5.75L2.3 -5.75L2.6 -5.45M10.6,-6.1L10.4 -6.4L10 -6.4L10 -5.5L10.4 -5.5L10.6 -5.7L10.6 -6.1M8.9,-5.5L9.5 -5.5L9.5 -6.4L8.9 -6.4L8.9 -5.5M9.5,-3.5L9.8 -2.7L9.8 -2.4L9.5 -2.1L9.2 -2.4L9 -3.2L9 -3.4Q9 -3.6 9.3 -3.6L9.5 -3.5M10.9,-3.5L11.4 -1.8L11.5 -1.6Q11.45 -1.3 11.1 -1.3L10.9 -1.5L10.4 -3.2L10.4 -3.4Q10.4 -3.6 10.7 -3.6L10.9 -3.5M8.4,-5.5L8.4 -6.4L8 -6.4Q7.7 -6.4 7.7 -6.1L7.7 -5.7Q7.7 -5.45 8 -5.5L8.4 -5.5M7.3,-4.5L11.1 -4.5L11.4 -4.2L11.1 -4L7.3 -4Q7.05 -4.05 7.1 -4.2Q7.05 -4.5 7.3 -4.5M8.1,-3.4L8.3 -3.6Q8.6 -3.6 8.6 -3.4L8.6 -2.1L8.7 -1.7L9 -1.6L9.7 -1.6L9.9 -1.7L9.9 -2.1Q10 -2.3 10.2 -2.3L10.5 -2L10.4 -1.6L10.2 -1.2L9.2 -1.1L8.3 -1.2Q8.05 -1.4 8.1 -2L8.1 -3.4M7,-1.8L7.3 -3.4L7.5 -3.6L7.8 -3.3L7.6 -1.6Q7.55 -1.3 7.2 -1.3Q7.05 -1.3 7 -1.6L7 -1.8M6.2,-6.4L6.2 -6.8L5.5 -6.8L5.5 -6.4L6.2 -6.4M17.2,-7.45L14.5 -7.45L14.4 -6.05L17 -6.05L17.4 -7.25L17.2 -7.45M18.1,-7.55L17.6 -6.05L18.7 -6.05Q19.2 -6 19.2 -5.55L19 -4.85L18.1 -3.55L17.3 -2.85L18.1 -2.45Q18.55 -2.15 19.3 -1.95L19.6 -1.55L19.2 -1.15L19 -1.15L17.5 -1.95L16.7 -2.45L16.7 -2.35Q15.65 -1.6 14.3 -1.15L14 -1.15Q13.7 -1.15 13.7 -1.45L13.9 -1.75Q15.25 -2.3 16 -2.75L16.2 -2.85L15.4 -3.85L14.8 -5.45L14.3 -5.45L14.1 -4.15Q13.75 -2.6 12.9 -1.25L12.6 -1.15Q12.3 -1.15 12.3 -1.45L12.3 -1.65Q13.2 -2.85 13.5 -4.35L14 -7.45L12.8 -7.45Q12.5 -7.45 12.5 -7.75Q12.5 -8.05 12.8 -8.05L17.5 -8.05Q18.1 -8 18.1 -7.55M16.1,-4.05L16.8 -3.25L17.5 -3.85L18.3 -4.95L18.4 -5.25L18.3 -5.45L15.4 -5.45Q15.7 -4.6 16.1 -4.05M-12.9,-8.35Q-12.6 -8.35 -12.6 -8.05L-12.6 -1.35Q-12.6 -1.05 -12.9 -1.05L-13.2 -1.35L-13.2 -8.05L-12.9 -8.35M-10,-8.15L-10 -8.05L-10.6 -6.65L-10.7 -6.65L-10.3 -6.25L-9.8 -7.25L-9.6 -7.35L-9.4 -7.25L-9.3 -7.05L-9.4 -6.85L-10 -5.55L-10.4 -4.85L-9.6 -4.95L-9.7 -5.25L-9.8 -5.45L-9.5 -5.65L-9.3 -5.55L-9 -4.45L-9 -4.25Q-9 -4 -9.3 -4.05L-9.5 -4.25L-9.5 -4.45L-9.8 -4.35L-9.8 -1.35Q-9.8 -1.05 -10.1 -1.05L-10.4 -1.35L-10.4 -4.25L-11.3 -4.15L-11.5 -4.55L-11.3 -4.85L-11.2 -4.85L-10.6 -5.65L-11.1 -6.25L-11.4 -6.55L-11.5 -6.75L-11.2 -7.05L-11.1 -7.05L-10.6 -8.25L-10.3 -8.45L-10.1 -8.35L-10 -8.15M-19,-8.25L-17 -8.25Q-16.7 -8.25 -16.7 -7.95Q-16.7 -7.65 -17 -7.65L-19 -7.65Q-19.2 -7.65 -19.2 -7.95L-19 -8.25M-15.6,-8.15Q-15.3 -8.15 -15.3 -7.85L-15.3 -4.35L-15.5 -2.55L-15.9 -1.15L-16.2 -1.15L-16.5 -1.45L-16.5 -1.65Q-16.1 -2.4 -16 -3.15L-15.9 -4.35L-15.9 -7.85L-15.6 -8.15M-14.3,-7.95Q-14 -7.95 -14 -7.65L-14 -1.75Q-14 -1.45 -14.3 -1.45L-14.6 -1.75L-14.6 -7.65L-14.3 -7.95M-19,-6.15L-16.8 -6.15L-16.6 -5.85Q-16.65 -5.55 -16.8 -5.55L-19 -5.55Q-19.2 -5.55 -19.2 -5.85L-19 -6.15M-19.2,-4.75L-19 -5.05L-16.8 -5.05L-16.6 -4.75Q-16.65 -4.45 -16.8 -4.45L-19 -4.45Q-19.2 -4.45 -19.2 -4.75M-17.1,-3.95Q-16.5 -3.95 -16.5 -3.35L-16.5 -1.85Q-16.5 -1.25 -17.1 -1.25L-18.7 -1.25Q-19.15 -1.25 -19.2 -1.85L-19.2 -3.35Q-19.15 -3.95 -18.7 -3.95L-17.1 -3.95M-17.4,-3.35L-18.4 -3.35Q-18.7 -3.35 -18.7 -3.15L-18.7 -2.15L-18.4 -1.85L-17.4 -1.85Q-17.1 -1.85 -17.1 -2.15L-17.1 -3.15Q-17.1 -3.35 -17.4 -3.35M-11.1,-3.85Q-10.8 -3.85 -10.8 -3.55L-10.8 -3.35L-11 -1.35L-11.3 -1.25L-11.6 -1.45L-11.5 -1.65L-11.4 -3.65L-11.1 -3.85M-9.1,-3.65L-8.9 -2.75L-8.9 -2.55Q-8.9 -2.25 -9.2 -2.25L-9.4 -2.55L-9.6 -3.55L-9.6 -3.65Q-9.6 -3.85 -9.3 -3.85L-9.1 -3.65M-2.5,-7.55L-2.5 -6.35L-1.6 -6.35L-1.6 -7.55L-2.5 -7.55M-3.3,-7.55L-3.6 -7.85L-3.3 -8.15L-0.7 -8.15Q-0.4 -8.15 -0.4 -7.85Q-0.4 -7.55 -0.7 -7.55L-1 -7.55L-1 -1.35Q-1 -1.05 -1.3 -1.05L-1.6 -1.35L-1.6 -2.15L-2.3 -1.95L-3.3 -1.75L-3.6 -2.15L-3.3 -2.45L-3.1 -2.45L-3.1 -7.55L-3.3 -7.55M-6.8,-8.55Q-6.5 -8.55 -6.5 -8.15L-6.5 -7.75L-4.6 -7.75L-4.4 -7.45L-4.6 -7.15L-6.5 -7.15L-6.5 -6.65L-5.3 -6.65Q-4.7 -6.65 -4.7 -6.05L-4.7 -4.45Q-4.7 -3.85 -5.3 -3.85L-6.4 -3.85L-5.6 -2.95L-4.6 -1.95L-4.5 -1.65Q-4.5 -1.35 -4.8 -1.35L-5 -1.45L-5.7 -2.15L-6.5 -3.15L-6.5 -1.25Q-6.5 -0.95 -6.8 -0.95L-7.1 -1.25L-7.1 -3.05L-8.4 -1.45L-8.7 -1.35Q-9.05 -1.35 -9.1 -1.65L-9 -1.85L-7.7 -3.05L-7.2 -3.85L-8.2 -3.85Q-8.8 -3.85 -8.8 -4.45L-8.8 -6.05Q-8.8 -6.65 -8.2 -6.65L-7.1 -6.65L-7.1 -7.15L-8.7 -7.15L-9 -7.45L-8.7 -7.75L-7.1 -7.75L-7.1 -8.15Q-7.1 -8.55 -6.8 -8.55M-6.5,-6.05L-6.5 -4.45L-5.5 -4.45L-5.3 -4.75L-5.3 -5.75L-5.5 -6.05L-6.5 -6.05M-6,-5.65L-5.8 -5.75L-5.6 -5.65L-5.5 -5.55L-5.5 -5.45L-5.8 -4.75L-6 -4.65Q-6.2 -4.65 -6.2 -4.95L-6.2 -5.05L-6 -5.65M-7.6,-5.65L-7.3 -5.15L-7.3 -4.85L-7.6 -4.65L-7.8 -4.85L-8 -5.45L-8.1 -5.55L-7.8 -5.75L-7.6 -5.65M-8.2,-5.75L-8.2 -4.75L-8 -4.45L-7.1 -4.45L-7.1 -6.05L-8 -6.05L-8.2 -5.75M-2.5,-3.95L-2.5 -2.55L-1.7 -2.75L-1.6 -2.75L-1.6 -3.95L-2.5 -3.95M-1.6,-5.75L-2.5 -5.75L-2.5 -4.45L-1.6 -4.45L-1.6 -5.75M-0.8,1.85L-0.5 2.35L0 3.25L0 3.45Q0 3.75 -0.3 3.75L-0.5 3.65L-0.7 3.25L-0.8 3.25L-3.3 3.55L-3.6 3.25L-3.3 2.95L-3.2 2.85L-2.9 2.45L-2.4 1.35L-2.1 1.15L-1.9 1.25L-1.8 1.55L-1.8 1.75L-2.3 2.55L-2.4 2.85L-1 2.65L-1.2 2.25L-1.3 2.05L-1 1.75L-0.8 1.85M0.5,1.35L0.8 1.65L0.8 2.35L1.8 2.05L2.8 1.55L3.1 1.85L2.9 2.25L2.1 2.65L1.4 2.85L0.8 2.95L0.8 3.65L0.9 4.15L1.5 4.25L2.5 4.15L2.7 4.05L2.8 3.55Q2.8 3.25 3.1 3.25Q3.4 3.2 3.4 3.65L3.3 4.15L3 4.65L1.7 4.85L0.5 4.65Q0.2 4.4 0.2 3.85L0.2 1.65Q0.2 1.35 0.5 1.35M-2.8,5.15L-0.9 5.15L-0.9 4.75Q-0.85 4.45 -1.1 4.45L-2.7 4.45L-2.8 4.75L-2.8 5.15M-2.9,3.95L-0.8 3.95Q-0.35 3.95 -0.3 4.35L-0.3 7.85Q-0.3 8.45 -1 8.45L-1.9 8.35L-2.1 8.15L-1.9 7.75L-1.7 7.85L-1.1 7.95Q-0.85 7.9 -0.9 7.55L-0.9 6.95L-2.8 6.95L-2.8 8.25Q-2.8 8.55 -3.1 8.55L-3.4 8.25L-3.4 4.35Q-3.45 3.95 -2.9 3.95M0.5,5.05L0.8 5.35L0.8 6.05L1.8 5.85L2.8 5.25L3.1 5.65L2.9 5.95L2.1 6.35L1.4 6.65L0.8 6.75L0.8 7.35L0.9 7.85L1.4 7.95L2.5 7.85L2.7 7.75L2.8 7.25Q2.8 6.95 3.1 6.95L3.4 7.35L3.3 7.85L3 8.35L1.6 8.45L0.5 8.35Q0.2 8.05 0.2 7.45L0.2 5.35Q0.2 5.05 0.5 5.05M-2.8,5.65L-2.8 6.35L-0.9 6.35L-0.9 5.65L-2.8 5.65M-5,1.35Q-4.8 1.35 -4.8 1.65Q-4.8 1.95 -5.1 1.95L-7.6 2.15Q-7.8 2.15 -7.8 2.45L-7.8 3.35L-4.6 3.35Q-4.3 3.35 -4.3 3.65Q-4.3 3.95 -4.6 3.95L-5.5 3.95L-5.5 8.25Q-5.55 8.55 -5.9 8.55L-6.2 8.25L-6.2 3.95L-7.8 3.95L-7.8 4.65L-7.9 6.25Q-8.05 7.15 -8.5 8.05L-8.8 8.25L-9.1 7.95L-9.1 7.75L-8.5 6.15L-8.4 4.65L-8.4 2.05Q-8.4 1.55 -7.8 1.55L-5.4 1.35L-5 1.35M-9,3.35L-9.6 3.35L-9.6 3.65L-8.7 5.15L-8.6 5.45Q-8.55 5.75 -9 5.75L-9.2 5.65L-9.6 4.65L-9.6 8.25Q-9.55 8.55 -10 8.55L-10.3 8.25L-10.3 4.85L-10.7 5.95L-11.1 6.75L-11.4 6.95L-11.7 6.65L-11.6 6.35L-10.7 4.55L-10.4 3.35L-11.2 3.35L-11.5 3.05L-11.2 2.75L-10.3 2.75L-10.3 1.45L-10 1.15Q-9.55 1.15 -9.6 1.45L-9.6 2.75L-9 2.75Q-8.7 2.75 -8.7 3.05Q-8.7 3.35 -9 3.35M-13,3.95L-12.5 4.45L-12.4 4.75Q-12.4 5.05 -12.7 5.05L-12.9 4.95L-13.6 4.35L-14.3 3.45L-14.7 2.25Q-14.85 2 -15 2.05L-17 2.05L-17.3 1.75L-17 1.45L-14.8 1.45Q-14.4 1.4 -14.1 1.95L-13.6 3.25L-13 3.95M-17.9,4.85L-18.2 4.55L-17.9 4.25L-14.3 4.25Q-13.7 4.2 -13.7 4.95L-13.8 7.05Q-13.8 7.95 -14.1 8.25L-15 8.45L-16.4 8.25L-16.6 7.95L-16.4 7.55L-15.1 7.85Q-14.7 7.85 -14.6 7.65L-14.4 6.85L-14.3 5.15Q-14.3 4.85 -14.6 4.85L-16.2 4.85L-16.5 6.45Q-16.8 7.2 -17.4 7.65L-19 8.45L-19.1 8.45L-19.4 8.15Q-19.45 7.85 -19.2 7.85Q-18.25 7.6 -17.8 7.15Q-17.4 6.75 -17.1 6.15L-16.8 4.85L-17.9 4.85M8.15,1.55L8.05 2.55L10.55 2.55Q11.2 2.55 11.25 3.25L11.15 6.45L10.65 8.05Q10.25 8.5 9.55 8.45L7.95 8.25L7.75 7.85Q7.75 7.5 8.05 7.45L9.45 7.75Q10 7.75 10.15 7.45L10.45 6.15L10.55 3.55Q10.55 3.2 10.15 3.15L8.05 3.15L7.65 5.15L6.65 7.05L5.15 8.45L4.85 8.45Q4.55 8.45 4.55 8.15L4.65 7.85Q5.7 7.25 6.15 6.45Q6.75 5.8 7.05 4.65L7.35 3.15L4.85 3.15Q4.55 3.15 4.55 2.85Q4.55 2.55 4.85 2.55L7.45 2.55L7.55 1.45Q7.55 1.3 7.85 1.25L8.15 1.55" />
</g>
</svg>
