<?xml version="1.0" encoding="utf-8"?>
<svg version="1.1" id="Layer_1"
xmlns="http://www.w3.org/2000/svg"
xmlns:xlink="http://www.w3.org/1999/xlink"
xmlns:author="http://www.sothink.com"
width="19px" height="48px"
xml:space="preserve">
<g id="57" transform="matrix(1, 0, 0, 1, 9.4, 23.95)">
<path style="fill:#F2DDA2;fill-opacity:1" d="M-1.55,-9L-1.05 -8.25L2.75 3.05Q3.35 3.1 3.65 3.5L4.05 4.3L4.15 4.75L4.2 4.9L4.35 5.25L4.2 5.3L3.85 5.3L3.65 5.25L3.7 5.45L3.55 5.75L3.35 5.75L2.85 5.65L2.75 5.8L2.55 6.05L2.1 5.9L1.85 5.75L1.25 6.15L1.2 6.15Q1 6.1 0.9 5.5L0.7 4.3L0.65 3.65Q-0.65 1.7 -1.6 -0.95Q-2.6 -3.65 -3.05 -5.95Q-3.5 -8.25 -3.15 -9.15L-2.6 -9.7Q-2.05 -9.6 -1.55 -9" />
<path style="fill:#2C3936;fill-opacity:1" d="M1.55,6.7L1.6 10.75L1.7 15.05L1.75 17.6L2.1 19.05Q2.4 19.9 2.95 20.5Q3.5 21.1 4.35 21.1L4.55 21.1L4.8 21.1Q5.8 21.15 5.45 21.8Q5.05 22.5 3.55 22.7L0.55 22.9L-0.85 23L-3.45 6.5L1.55 4.9L1.55 6.7" />
<path style="fill:#EFEEE5;fill-opacity:1" d="M3.95,22.6L1.1 23.05L-1 23.35L-1.6 21.2L-1.8 20.45L-1.8 20.35L2.7 19.45L2.7 19.75L3.7 20.5L5.4 21.05L6.3 21.25Q5.4 22.25 3.95 22.6M2.75,19.35L2.8 19.45L2.7 19.45L2.7 19.25L2.75 19.35" />
<path style="fill:#DDDDD3;fill-opacity:1" d="M6.7,21.65Q5.45 22.9 3.7 23.15L0.5 23.55L-0.9 23.75L-1.4 23.95L-1.5 23.45L-2.05 21.5L-2.2 20.65L-2.3 20.35L-2.3 20.25L-2.1 20.05L-1.9 19.9L-1.9 19.85L2.3 19.05L2.4 18.85L2.7 18.75L3 18.85L3.3 19.15L3.3 19.35L3.5 19.8L4.1 20.15L5 20.45L5.8 20.65L6.4 20.85L7.2 20.95L6.7 21.65M3.5,20.95Q2.95 20.8 2.5 20.35L2.3 20.05L-1.2 20.75L-1.2 20.85L-0.65 22.75L0.4 22.55L2.4 22.35Q4.05 22.25 5.25 21.55L3.5 20.95" />
<path style="fill:#2C3936;fill-opacity:1" d="M1.15,4.75Q-0.2 6.05 -1.1 8.6Q-2 11.15 -2.55 13.9L-3.35 18.55L-3.55 20.55Q-3.05 21 -2.2 21.25L-0.6 21.55L0.15 21.65Q-0.45 22.15 -1.55 22.35L-3.75 22.5L-5.7 22.45L-6.55 22.35Q-6.95 21.5 -6.85 19.4L-6.35 14.7L-5.5 9.55L-4.7 5.45L-4.35 3.75L1.15 4.75" />
<path style="fill:#EFEEE5;fill-opacity:1" d="M0.15,21.6Q-0.85 22.5 -2.2 22.65L-4.85 22.8L-5.95 22.75L-6.75 22.8L-7.1 20.25L-7.05 19.8L-3.15 19.9L-3.15 20.1Q-3.1 20.55 -2.3 20.9L-0.7 21.4L0.15 21.6M-2.9,19.8L-2.85 19.9L-3.15 19.9L-3.05 19.7Q-3 19.7 -2.9 19.8" />
<path style="fill:#DDDDD3;fill-opacity:1" d="M0.2,21.15L1.2 21.35L0.5 22.05Q-0.4 22.85 -1.55 23.05L-3.8 23.25L-6 23.25L-6.7 23.25L-7.2 23.45L-7.3 22.85L-7.55 20.95L-7.6 20.05L-7.6 19.85L-7.5 19.55Q-7.4 19.35 -7.1 19.35L-3.5 19.45L-3.4 19.35L-3.1 19.25L-2.8 19.35L-2.6 19.45L-2.5 19.65L-2.5 19.85L-2.35 20.4L-1.7 20.65L-0.65 20.95L0.1 21.15L0.2 21.15M-2.5,21.45L-3.4 20.85L-3.65 20.45L-6.6 20.35L-6.4 22.25L-6 22.25L-3.8 22.25L-1.15 21.85L-2.5 21.45" />
<path style="fill:#F2DDA2;fill-opacity:1" d="M2.65,-17.6Q2.55 -15.2 1.5 -14Q0.45 -12.8 -0.45 -12.8Q-1.05 -12.75 -1.2 -12.3L-1.3 -11.4L-1.25 -10.9L-3.05 -10.9L-3 -11.4L-3 -12.4Q-3.1 -12.9 -3.55 -13L-4.6 -13.5L-5.95 -14.95Q-6.6 -15.9 -6.65 -17.4Q-6.6 -19.6 -5.25 -20.9Q-3.95 -22.15 -2.25 -22.2Q-0.45 -22.2 1.05 -21.1Q2.55 -20 2.65 -17.6" />
<path style="fill:#F2F470;fill-opacity:1" d="M0.35,-7.1L0.75 -3.55L1.25 0.45L1.65 3.75L1.85 5.1L-5.15 7.2L-5.1 5.4L-4.95 1.2L-4.8 -3.5L-4.75 -6.8L-4.35 -8.9L-3.55 -10.2Q-3.2 -10.7 -3.15 -11.1L-1.35 -11.1L-0.95 -10.8L-0.25 -10.1L0.15 -9L0.35 -7.1" />
<path style="fill:#EB1569;fill-opacity:1" d="M6.5,6.5L9.4 6.9L0.3 11.2L0.3 13.4L0.35 14.15Q0.4 14.85 0.05 15.55Q-0.3 16.25 -1.3 16.3L-4.4 16.2Q-6.25 16.1 -7.8 15.5Q-9.3 14.95 -9.4 13.6L-9.1 10.65L-8.6 8.05L-8.3 6.9L-8.15 6.25Q-8 5.65 -6.85 5.05Q-5.75 4.45 -3 4.4Q-1.15 4.5 -0.55 5.5Q0.05 6.5 0 7.4L0.1 8.45L0.2 8.7L6.5 7.1L6.5 6.5M-1.7,5.75Q-2.25 5.25 -3.8 5.2Q-5.95 5.25 -6.75 5.9L-7.5 6.8L-6.3 7.25L-3.85 7.9L-1.65 8.2Q-1.1 8.2 -1.1 8L-1.1 6.9Q-1.1 6.25 -1.7 5.75" />
<path style="fill:#000000;fill-opacity:1" d="M0.45,-17.35Q0.4 -17 -0.05 -16.95L-0.45 -17.35L-0.05 -17.75Q0.4 -17.7 0.45 -17.35" />
<path style="fill:#000000;fill-opacity:1" d="M-2.55,-17.25Q-2.55 -16.9 -2.85 -16.85L-3.15 -17.25L-2.85 -17.75Q-2.55 -17.75 -2.55 -17.25" />
<path style="fill:#F24618;fill-opacity:1" d="M-0.5,-14.75Q-0.8 -14.35 -1.4 -14.3Q-1.95 -14.25 -2.8 -15.05L-0.2 -15.25L-0.5 -14.75" />
<path style="fill:#000000;fill-opacity:1" d="M-0.55,-16.75L-0.55 -16.65L-0.65 -16.15Q-0.85 -15.95 -1.15 -15.85L-1.35 -15.95L-1.15 -16.15L-0.85 -16.35L-0.8 -16.5L-1.05 -16.45L-1.35 -16.65L-1.45 -16.85L-1.45 -17.35L-1.35 -17.45L-1.25 -17.35L-1.25 -16.85L-1.05 -16.65L-0.65 -16.85L-0.55 -16.75" />
<path style="fill:#373123;fill-opacity:1" d="M2.15,-21.85Q2.25 -21.4 2.6 -21.25L2.95 -20.85L2.75 -20.25L2.7 -19.75L2.85 -19.15Q2.85 -18.8 3.1 -18.75L3.25 -18.2L3.15 -17.2Q3.05 -16.7 3.2 -16.55Q3.35 -16.25 3 -15.8L2.6 -15.25L2.35 -14.8Q2.1 -14.35 2.2 -14.15Q2.3 -14 1.8 -13.4L0.9 -12.55L0.5 -12.45Q0.3 -12.45 0.4 -12.7L0.4 -12.95L0.55 -13.2L1.2 -13.7L1.6 -14.05L1.95 -15.2L2.25 -16L2.2 -15.95L2.1 -15.9L2.2 -16.45L2.55 -16.95L2.5 -17.75L2.45 -18.45L2.3 -18.75L2.2 -18.7L1.9 -19.05L1.8 -19.4L1.8 -19.25L1.75 -19.1L1.3 -19.45L0.8 -19.75L0.7 -19.55Q0.7 -19.25 0.55 -19.3L-0.1 -19.55L-0.55 -19.95L-0.6 -19.85Q-0.6 -19.6 -0.75 -19.6L-1.2 -19.85L-1.55 -20L-1.6 -19.95Q-1.6 -19.8 -1.85 -19.8L-2.4 -19.85L-2.95 -19.95L-2.9 -19.75Q-2.65 -19.45 -3.1 -19.4L-4 -19.3Q-4.5 -19.3 -4.4 -19.15Q-4.3 -19 -4.65 -18.85L-5.35 -18.6Q-5.65 -18.45 -5.4 -18.35Q-5.15 -18.2 -5.25 -17.85L-5.45 -17.1Q-5.55 -16.7 -5.2 -16.45Q-4.9 -16.15 -5.1 -15.95L-5.5 -15.65L-5.6 -15.45Q-5.4 -15.3 -5.3 -14.8L-5.05 -13.85L-4.5 -13.35Q-3.9 -13.3 -3.95 -12.9Q-4 -12.5 -4.7 -12.45L-4.75 -12.15Q-4.65 -11.85 -4.9 -11.75L-5 -11.75L-5.6 -12.15L-6.15 -12.85L-6.4 -13.25L-6.45 -13.6L-7 -14.15Q-7.5 -14.35 -7.75 -15.05L-8.3 -16.05L-8.3 -16.4L-8 -16.9Q-7.9 -17.2 -8.2 -17.55Q-8.55 -17.95 -8.4 -18.1L-8.1 -18.4L-8.2 -18.75L-8.15 -19.55L-7.55 -20.6L-7 -21.55L-6.45 -22.15L-5.65 -22.65Q-5.35 -22.85 -5.5 -23.25Q-5.65 -23.75 -4.85 -23.7L-3.7 -23.6L-3.1 -23.45L-3.2 -23.7Q-3.3 -23.9 -2.9 -23.95L-2.55 -23.85Q-2.45 -23.75 -2.35 -23.75L-2 -23.85L-1.85 -23.9L-1.6 -23.75L-1.4 -23.7L-0.9 -23.75L-0.65 -23.8L-0.55 -23.65L-0.45 -23.4L0.5 -23.25Q1.45 -23.2 1.75 -22.8L2.15 -21.85" />
<path style="fill:#F2DDA2;fill-opacity:1" d="M-2.9,-9.1L-2.6 -8.15L-2.5 -7.65L-3.5 4.25Q-2.7 4.75 -2.75 5.5L-2.8 6.35L-2.8 6.55L-2.8 6.95L-2.8 7L-3.15 6.75L-3.4 6.55L-3.45 6.8L-3.8 7.05L-4.15 6.85L-4.3 6.65L-4.45 6.75L-4.8 6.85L-5.1 6.6L-5.3 6.35L-5.45 6.45L-6 6.55L-6.05 5.9L-5.8 4.7L-5.6 4.05Q-6 1.75 -5.9 -1.1L-5.3 -6.25Q-4.8 -8.55 -4.2 -9.25Q-3.85 -9.6 -3.55 -9.6Q-3.15 -9.55 -2.9 -9.1" />
<path style="fill:#F2F470;fill-opacity:1" d="M-1.9,-6.95L-2.1 -5.1L-2.25 -4.25L-5.55 -4.25Q-5.85 -6.8 -5.45 -7.95Q-5.05 -9.05 -4.55 -9.35L-3.95 -9.55L-3.55 -9.6Q-2.55 -9.55 -2.25 -8.75Q-1.9 -7.95 -1.9 -6.95" />
</g>
</svg>
