<?xml version="1.0" encoding="utf-8"?>
<svg version="1.1" id="Layer_1"
xmlns="http://www.w3.org/2000/svg"
xmlns:xlink="http://www.w3.org/1999/xlink"
xmlns:author="http://www.sothink.com"
width="79px" height="19px"
xml:space="preserve">
<g id="32" transform="matrix(1, 0, 0, 1, 39.5, 9.45)">
<path style="fill:#4EA7A3;fill-opacity:1" d="M-35.2,-8.7L-35.2 -5.2L-35.3 -3.45L-35.8 -2.05L-36 -1.95L-36.4 -2.35L-36.3 -2.55L-35.8 -4.05L-35.8 -5.2L-35.8 -8.7L-35.5 -9Q-35.2 -9 -35.2 -8.7M-36.5,-8.8Q-36.5 -8.5 -36.8 -8.5L-38.8 -8.5L-39.1 -8.8L-38.8 -9.1L-36.8 -9.1Q-36.5 -9.1 -36.5 -8.8M-39.1,-8.1L-36.4 -8.1Q-36.1 -8.1 -36.1 -7.8Q-36.1 -7.5 -36.4 -7.5L-39.1 -7.5L-39.4 -7.8L-39.1 -8.1M-38.8,-6.9L-36.7 -6.9Q-36.4 -6.95 -36.4 -6.7Q-36.4 -6.4 -36.7 -6.4L-38.8 -6.4L-39.1 -6.7Q-39.1 -6.95 -38.8 -6.9M-39.1,-5.6L-38.8 -5.9L-36.7 -5.9Q-36.4 -5.9 -36.4 -5.6Q-36.4 -5.3 -36.7 -5.3L-38.8 -5.3L-39.1 -5.6M-37.2,-4.25L-38.3 -4.25L-38.5 -3.95L-38.5 -2.95L-38.3 -2.75L-37.2 -2.75L-37 -2.95L-37 -3.95L-37.2 -4.25M-36.4,-2.75Q-36.4 -2.15 -37 -2.15L-38.5 -2.15Q-39.1 -2.15 -39.1 -2.75L-39.1 -4.25Q-39.1 -4.8 -38.5 -4.8L-37 -4.8Q-36.4 -4.8 -36.4 -4.25L-36.4 -2.75M-35.8,2.55L-35.5 2.25L-33 2.25Q-32.45 2.25 -32.5 2.85L-32.6 4.05Q-32.6 4.4 -32.9 4.45L-33.5 4.55L-34 4.45L-34.2 4.15L-34 3.85L-33.5 3.95L-33.2 3.95L-33.1 3.75L-33 3.05Q-33 2.8 -33.2 2.85L-34.2 2.85Q-34.3 3.6 -34.6 3.95L-35.3 4.65L-35.5 4.65L-35.8 4.35L-35.8 4.15L-35.1 3.65Q-34.8 3.3 -34.8 2.85L-35.5 2.85L-35.8 2.55M-36.9,2.85L-37.9 2.85L-38.2 2.95L-38.9 3.85L-39.1 4.05Q-39.55 4.05 -39.5 3.75L-39.4 3.55L-38.6 2.55Q-38.5 2.25 -38.1 2.25L-36.5 2.25Q-36.3 2.25 -36.3 2.55L-36.4 3.05L-37 3.85L-36.5 3.85Q-35.95 3.85 -36 4.45L-36 8.65Q-35.95 9.35 -36.7 9.35L-37.3 9.25L-37.6 8.95L-37.3 8.65L-36.7 8.75L-36.5 8.45L-36.5 7.45L-38.5 7.45L-38.6 8.25L-38.9 9.15L-39.1 9.35L-39.4 9.05L-39.1 7.85L-39 6.55L-39 4.45Q-38.95 3.85 -38.5 3.85L-37.6 3.85L-36.9 2.85M-38.3,4.45L-38.4 4.65L-38.4 5.35L-37.7 5.35L-37.7 4.45L-38.3 4.45M-38.4,5.95L-38.4 6.55L-38.4 6.95L-37.7 6.95L-37.7 5.95L-38.4 5.95M-36.5,4.65L-36.6 4.45L-37.2 4.45L-37.2 5.35L-36.5 5.35L-36.5 4.65M-37.2,5.95L-37.2 6.95L-36.5 6.95L-36.5 5.95L-37.2 5.95M-35.9,6.65L-35.8 6.45L-35.5 5.85L-35.4 5.15Q-35.4 5 -35.1 4.95Q-34.8 4.95 -34.8 5.15L-34.8 5.65L-34.2 5.65L-34.2 5.05L-33.9 4.75Q-33.6 4.75 -33.6 5.05L-33.6 5.65L-32.7 5.65Q-32.4 5.65 -32.4 5.95Q-32.4 6.25 -32.7 6.25L-33.6 6.25L-33.6 7.25L-32.6 7.25Q-32.3 7.25 -32.3 7.55Q-32.3 7.85 -32.6 7.85L-33.6 7.85L-33.6 9.05Q-33.6 9.4 -33.9 9.45L-34.2 9.05L-34.2 7.85L-35.5 7.85L-35.8 7.55L-35.5 7.25L-34.2 7.25L-34.2 6.25L-35 6.25L-35.3 6.85L-35.6 6.95L-35.9 6.65M-19.4,-8.5L-19.2 -8.3L-19.2 -8.1L-19.4 -7.9L-19.7 -7.9L-19.8 -8.1L-20 -7.9L-20.6 -7.6L-20.8 -7.6L-20.9 -7.7L-21 -7.9L-20.9 -8.1L-20.3 -8.4L-20.6 -8.5L-20.7 -8.7L-20.4 -9L-20.3 -8.9Q-20 -8.9 -19.9 -8.7L-19.5 -9.1L-19.2 -9.1L-19.1 -8.9L-19.2 -8.7L-19.4 -8.5M-17.5,-9Q-17 -9.05 -17 -8.5L-17 -6.2L-16.5 -5.9L-16.4 -5.4L-16.4 -4.9L-16.8 -4.65L-17.1 -4.9L-17 -5.3L-17.2 -5.6L-22.5 -5.6L-22.7 -5.4L-22.7 -4.9L-23 -4.65L-23.3 -4.9L-23.3 -5.7Q-23.3 -6.15 -22.9 -6.2L-22.8 -6.2L-22.8 -8.5L-22.6 -8.9L-21.9 -9.1L-21.1 -9.2Q-20.85 -9.2 -20.9 -8.9L-21 -8.6L-21.8 -8.5L-22.2 -8.2L-22.2 -8L-21.5 -8Q-21.2 -8.05 -21.2 -7.8Q-21.2 -7.5 -21.5 -7.5L-22.2 -7.5L-22.2 -7.1L-21.4 -7.1Q-21.1 -7.1 -21.1 -6.8Q-21.1 -6.5 -21.4 -6.5L-22.2 -6.5L-22.2 -6.2L-17.6 -6.2L-17.6 -6.6L-18.5 -6.6L-18.7 -6.9L-18.5 -7.1L-17.6 -7.1L-17.6 -7.5L-18.5 -7.5L-18.8 -7.8L-18.5 -8.1L-17.6 -8.1L-17.6 -8.3L-17.7 -8.5L-18.5 -8.5L-18.8 -8.8L-18.5 -9L-17.5 -9M-19,-7.8L-18.9 -7.6L-19 -7.4L-19.3 -7.1L-19 -6.8L-19 -6.6Q-18.95 -6.35 -19.2 -6.4L-19.5 -6.4L-19.8 -6.7L-19.9 -6.6L-20.6 -6.3L-20.8 -6.3L-20.9 -6.4L-21 -6.6L-20.9 -6.8L-20.3 -7L-20.5 -7.2L-20.6 -7.4L-20.4 -7.6L-20.2 -7.6L-19.8 -7.4L-19.3 -7.8L-19.1 -7.9L-19 -7.8M-15.3,-6.35L-14.5 -7.45L-14.2 -8.85L-13.9 -9.15Q-13.6 -9.15 -13.6 -8.85L-13.7 -7.95L-12.1 -7.95L-12.1 -9.05L-11.8 -9.35Q-11.5 -9.35 -11.5 -9.05L-11.5 -7.95L-9.1 -7.95Q-8.8 -7.95 -8.8 -7.65Q-8.8 -7.35 -9.1 -7.35L-11.5 -7.35L-11.5 -5.45L-9.3 -5.45Q-9 -5.45 -9 -5.15Q-9 -4.85 -9.3 -4.85L-11.5 -4.85L-11.5 -2.9L-8.7 -2.9Q-8.4 -2.9 -8.4 -2.6Q-8.4 -2.3 -8.7 -2.3L-15.1 -2.3L-15.4 -2.6L-15.1 -2.9L-12.1 -2.9L-12.1 -4.85L-14.4 -4.85L-14.7 -5.15L-14.4 -5.45L-12.1 -5.45L-12.1 -7.35L-13.9 -7.35L-13.9 -7.25Q-14.15 -6.6 -14.7 -5.95L-15 -5.85L-15.3 -6.15L-15.3 -6.35M-24.6,-5.35Q-24.6 -4.8 -25.2 -4.8L-26.2 -4.8L-25.5 -3.9L-24.4 -2.9L-24.3 -2.6L-24.6 -2.3L-24.9 -2.4L-25.6 -3.1L-26.3 -4.1L-26.3 -2.2Q-26.3 -1.9 -26.6 -1.9L-26.9 -2.2L-26.9 -4L-28.3 -2.4L-28.5 -2.3Q-28.9 -2.3 -28.9 -2.6L-28.9 -2.8L-27.6 -4L-27 -4.8L-28.1 -4.8Q-28.55 -4.8 -28.6 -5.35L-28.6 -6.95Q-28.55 -7.55 -28.1 -7.55L-26.9 -7.55L-26.9 -8.05L-28.6 -8.05L-28.9 -8.35L-28.6 -8.65L-26.9 -8.65L-26.9 -9.05Q-26.9 -9.5 -26.6 -9.45Q-26.3 -9.5 -26.3 -9.05L-26.3 -8.65L-24.5 -8.65Q-24.2 -8.65 -24.2 -8.35Q-24.2 -8.05 -24.5 -8.05L-26.3 -8.05L-26.3 -7.55L-25.2 -7.55Q-24.6 -7.55 -24.6 -6.95L-24.6 -5.35M-22.1,-5L-21.8 -5.3L-18.4 -5.3Q-17.65 -5.25 -17.7 -4.9Q-17.7 -4.8 -17.9 -4.75L-19.3 -4.25L-19.4 -4.15L-19.2 -3.95L-16.7 -3.95L-16.5 -3.65Q-16.5 -3.35 -16.7 -3.35L-19 -3.35L-19 -3.05Q-18.95 -2.45 -19.4 -2.15L-20.3 -1.95L-21.3 -2.15L-21.6 -2.45L-21.2 -2.75L-20.3 -2.55L-19.8 -2.65Q-19.55 -2.85 -19.6 -3.05L-19.6 -3.35L-23.1 -3.35L-23.4 -3.65L-23.1 -3.95L-20 -3.95L-20.3 -4.25L-20.1 -4.45L-19 -4.75L-21.8 -4.75L-22.1 -5M-29.8,-9.05L-29.9 -8.95L-30.5 -7.55L-30.2 -7.15L-29.7 -8.15L-29.4 -8.25L-29.2 -8.15L-29.2 -7.75L-29.9 -6.35L-30.3 -5.75L-29.5 -5.85L-29.6 -6.15L-29.6 -6.35L-29.3 -6.55L-29.1 -6.45L-28.8 -5.35L-28.8 -5.15Q-28.8 -4.9 -29.1 -4.95L-29.3 -5.15L-29.4 -5.35L-29.7 -5.25L-29.7 -2.3Q-29.7 -2 -30 -2L-30.3 -2.3L-30.3 -5.15L-31.1 -5.05Q-31.4 -5 -31.4 -5.45L-31.1 -5.75L-31 -5.75L-30.5 -6.55L-30.9 -7.15L-31.3 -7.45L-31.4 -7.65L-31.1 -7.95L-31 -7.95L-30.4 -9.15L-30.2 -9.35Q-30 -9.4 -30 -9.25L-29.8 -9.05M-27.9,-6.35L-27.9 -6.45L-27.7 -6.65L-27.5 -6.55L-27.1 -5.95L-27.1 -5.75L-27.4 -5.55L-27.6 -5.75L-27.9 -6.35M-27.8,-5.35L-26.9 -5.35L-26.9 -6.95L-27.8 -6.95L-28.1 -6.65L-28.1 -5.65L-27.8 -5.35M-25.4,-6.55L-25.3 -6.45L-25.4 -6.35L-25.6 -5.65L-25.8 -5.55L-26.1 -5.85L-26.1 -5.95L-25.8 -6.55L-25.6 -6.65L-25.4 -6.55M-25.1,-5.65L-25.1 -6.65Q-25.1 -6.95 -25.4 -6.95L-26.3 -6.95L-26.3 -5.35L-25.4 -5.35Q-25.1 -5.35 -25.1 -5.65M-33.9,-8.5L-33.9 -2.65Q-33.95 -2.35 -34.1 -2.35L-34.4 -2.65L-34.4 -8.5L-34.1 -8.8L-33.9 -8.5M-32.8,-9.2Q-32.5 -9.2 -32.5 -8.9L-32.5 -2.25Q-32.5 -1.95 -32.8 -1.95L-33.1 -2.25L-33.1 -8.9L-32.8 -9.2M-30.9,-4.8L-30.7 -4.5L-30.7 -4.3L-30.9 -2.3Q-30.95 -2.2 -31.1 -2.2L-31.4 -2.4L-31.4 -2.6L-31.2 -4.6Q-31.2 -4.8 -30.9 -4.8M-29.2,-4.8L-28.9 -4.6L-28.8 -3.6L-28.8 -3.5Q-28.75 -3.2 -29 -3.2L-29.3 -3.5L-29.4 -4.5L-29.4 -4.6L-29.2 -4.8M-25.1,2.2L-25 2.4L-25 2.6L-25.3 3.4L-24.7 3.4Q-24.4 3.4 -24.4 3.7Q-24.4 4 -24.7 4L-25.4 4L-25.4 5L-24.8 5Q-24.5 5 -24.5 5.3Q-24.5 5.6 -24.8 5.6L-25.4 5.6L-25.4 6.8L-24.7 6.8L-24.5 7L-24.7 7.3L-25.4 7.3L-25.4 8.6L-24.7 8.6Q-24.4 8.6 -24.4 8.9Q-24.4 9.2 -24.7 9.2L-26.7 9.2Q-27.3 9.25 -27.3 8.5L-27.3 4.5L-27.5 4.8L-27.7 4.9L-27.8 4.9L-27.8 5.5Q-27.85 5.95 -28.3 6L-29.2 6L-29.2 6.4L-28 6.4L-27.8 6.6L-28 6.9L-29.2 6.9L-29.2 7.3L-27.9 7.3Q-27.6 7.3 -27.6 7.6Q-27.6 7.9 -27.9 7.9L-29.3 7.9L-29.3 8Q-28.65 8.3 -28.1 8.7L-27.9 9L-28.2 9.2L-28.4 9.2Q-28.9 8.7 -29.6 8.4L-29.9 8.7L-30.8 9.3L-31 9.4L-31.3 9L-31.2 8.7L-30.3 8.2L-30 7.9L-31.2 7.9L-31.4 7.6L-31.2 7.3L-29.8 7.3L-29.8 6.9L-31.1 6.9L-31.3 6.6L-31.1 6.4L-29.8 6.4L-29.8 6L-30.7 6Q-31.1 5.95 -31.1 5.5L-31.1 4.9Q-31.1 4.35 -30.7 4.4L-29.8 4.4L-29.8 4L-30.1 4Q-30.7 4 -30.7 3.4L-30.7 3L-31.1 3L-31.4 2.8L-31.1 2.5L-30.7 2.5L-30.7 2.3L-30.4 2Q-30.1 2 -30.1 2.3L-30.1 2.5L-28.8 2.5L-28.8 2.3L-28.5 2Q-28.2 2 -28.2 2.3L-28.2 2.5L-27.9 2.5Q-27.6 2.5 -27.6 2.8L-27.9 3L-28.2 3L-28.2 3.4Q-28.2 4 -28.8 4L-29.2 4L-29.2 4.4L-28.3 4.4L-28 4.5L-27.4 3.5L-27 2.2Q-27 2 -26.7 2Q-26.4 2 -26.4 2.3L-26.5 2.4Q-26.5 2.95 -26.8 3.4L-25.9 3.4L-25.6 2.3L-25.4 2.2L-25.1 2.2M-29,3.4Q-28.8 3.45 -28.8 3.3L-28.8 3L-30.1 3L-30.1 3.3L-30 3.4L-29 3.4M-28.4,5.2L-28.4 5.1L-28.6 4.9L-29.2 4.9L-29.2 5.4L-28.6 5.4L-28.4 5.2M-29.8,4.9L-30.4 4.9L-30.6 5.1L-30.6 5.2L-30.4 5.4L-29.8 5.4L-29.8 4.9M-25.9,4L-26.7 4L-26.7 5L-25.9 5L-25.9 4M-26.7,6.8L-25.9 6.8L-25.9 5.6L-26.7 5.6L-26.7 6.8M-26.5,8.6L-25.9 8.6L-25.9 7.3L-26.7 7.3L-26.7 8.3L-26.5 8.6M-17,3L-17.7 3.4L-18.5 3.6L-19 3.7L-19 4.5L-18.9 4.9L-18.3 5L-17.4 5L-17.1 4.9L-17.1 4.4L-16.8 4Q-16.5 4.1 -16.5 4.4L-16.5 5L-16.9 5.5L-18.1 5.6L-19.3 5.4Q-19.6 5.2 -19.6 4.6L-19.6 2.4L-19.3 2.1Q-19 2.1 -19 2.4L-19 3.1L-18.1 2.9L-17.1 2.3Q-16.8 2.3 -16.8 2.7L-17 3M-15,3.3L-12.5 3.3L-12.4 2.3L-12.1 2Q-11.8 2 -11.8 2.3L-11.8 3.3L-9.3 3.3Q-8.7 3.3 -8.7 4.1L-8.8 7.2Q-8.9 8.5 -9.3 8.9Q-9.65 9.25 -10.4 9.3L-11.9 9L-12.2 8.7Q-12.2 8.3 -11.9 8.3L-10.4 8.5Q-9.95 8.5 -9.7 8.2L-9.4 6.9L-9.4 4.4Q-9.4 3.95 -9.7 4L-11.9 4L-12.3 6L-13.3 7.9Q-13.9 8.7 -14.8 9.2L-15 9.3Q-15.4 9.35 -15.4 8.9L-15.2 8.6Q-14.3 8 -13.7 7.2L-12.8 5.5L-12.5 4L-15 4Q-15.3 4.05 -15.3 3.6L-15 3.3M-19.9,4.3L-20.2 4.5L-20.4 4.4L-20.6 4L-20.7 4L-23.2 4.4L-23.5 4L-23.2 3.7L-23 3.7L-22.7 3.2L-22.2 2.1L-22 2L-21.7 2.1L-21.6 2.3L-21.7 2.5L-22.1 3.4L-22.3 3.7L-20.8 3.5L-21.1 3L-21.2 2.8L-20.9 2.5L-20.7 2.6L-20.3 3.2L-19.9 4.1L-19.9 4.3M-19,6.2L-19 6.9L-18.1 6.6L-17.1 6.1L-16.7 6.4L-17 6.8L-17.7 7.2L-18.5 7.4L-19 7.5L-19 8.2L-18.9 8.6L-18.4 8.7L-17.4 8.7L-17.1 8.6L-17.1 8L-16.8 7.7Q-16.5 7.65 -16.5 8.1L-16.5 8.6L-16.9 9.2L-18.2 9.3L-19.4 9.1L-19.6 8.3L-19.6 6.2L-19.3 5.9Q-19 5.9 -19 6.2M-22.7,5.9L-20.7 5.9L-20.7 5.5L-20.9 5.3L-22.5 5.3L-22.7 5.5L-22.7 5.9M-22.7,4.7L-20.7 4.7Q-20.1 4.75 -20.1 5.2L-20.1 8.7Q-20.1 9.3 -20.9 9.3L-21.8 9.2L-21.9 8.9Q-21.95 8.6 -21.7 8.6L-21.5 8.6L-20.9 8.7L-20.7 8.4L-20.7 7.7L-22.7 7.7L-22.7 9L-23 9.4L-23.3 9L-23.3 5.2Q-23.3 4.75 -22.7 4.7M-22.7,6.5L-22.7 7.2L-20.7 7.2L-20.7 6.5L-22.7 6.5M2,-7.55L4.2 -7.55L5.1 -8.15L5.5 -8.45L5.4 -8.55L3 -8.55L2.7 -8.45Q2.15 -7.8 1.65 -7.5L2 -7.55M2,-6.75L2 -5.95L4 -5.95L4 -6.95L2.2 -6.95Q1.95 -6.95 2 -6.75M1.6,-7.4L1.3 -7.25L0.8 -7.05Q0.5 -7.05 0.5 -7.35L0.7 -7.65L2.4 -8.85L2.9 -9.15L5.9 -9.15L6.3 -8.75L6 -8.25L5.1 -7.55L6.7 -7.55Q7.2 -7.55 7.2 -6.95L7.2 -2.8Q7.2 -2 6.3 -2L5 -2.2Q4.7 -2.2 4.7 -2.5Q4.7 -2.8 5 -2.8L6.3 -2.7L6.6 -3L6.6 -3.9L1.9 -3.9L1.8 -3.7L1.5 -2.8L1.2 -2.2L0.9 -2Q0.6 -2.05 0.6 -2.4L0.6 -2.5L0.9 -3L1.3 -3.9L1.4 -4.95L1.4 -6.85L1.6 -7.4M4.6,-5.95L6.6 -5.95L6.6 -6.55L6.4 -6.95L4.6 -6.95L4.6 -5.95M2,-5.35L2 -4.95L2 -4.5L4 -4.5L4 -5.35L2 -5.35M-2.1,-8.5L-4.3 -8.5L-4.7 -8.3L-5.2 -7.9L-4.8 -7.5L-4 -6.7L-2.8 -7.5Q-2.3 -7.8 -2 -8.4L-2.1 -8.5M-1.3,-8.6L-1.5 -8.1Q-1.8 -7.5 -2.3 -7.2L-3.6 -6.2Q-4.35 -5.85 -5.4 -5.6L-7.1 -5.2Q-7.55 -5.2 -7.5 -5.6L-7.2 -5.9L-5.4 -6.2L-4.6 -6.5L-5.2 -7.1L-5.8 -7.5L-6.5 -7.2L-6.8 -7.2L-7.1 -7.5L-6.8 -7.9L-5.8 -8.2L-5 -8.7L-4.4 -9L-1.7 -9Q-1.25 -9.05 -1.3 -8.6M-3.3,-5.9L-1 -5.9Q-0.5 -5.85 -0.5 -5.5Q-0.5 -5.2 -0.8 -4.65Q-1.25 -3.75 -2 -3.15Q-2.65 -2.6 -3.6 -2.35L-5 -2.05L-6.3 -2.05Q-6.7 -2.05 -6.7 -2.35L-6.4 -2.75L-3.9 -2.95L-3.4 -3.05L-4.1 -3.75L-4.8 -4.35L-4.8 -4.45Q-5.25 -4.2 -5.9 -4.05L-6.3 -3.95L-6.6 -4.25L-6.3 -4.65L-5.1 -4.9Q-4.35 -5.15 -3.9 -5.7L-3.3 -5.9M-3.2,-5.3L-3.5 -5.2L-4.2 -4.65L-3.7 -4.25L-2.8 -3.35L-2.3 -3.65Q-1.7 -4.15 -1.4 -4.75L-1.2 -5.2L-1.3 -5.3L-3.2 -5.3M4.6,-4.5L6.6 -4.5L6.6 -5.35L4.6 -5.35L4.6 -4.5M25.35,-8.75L27.45 -8.75L27.45 -8.95Q27.45 -9.35 27.75 -9.35L28.15 -8.95L28.15 -8.75L29.75 -8.75L30.05 -8.45L30 -8.25L30.65 -8.95L30.85 -8.95L31.15 -8.95L31.15 -8.65L31.15 -8.45L30.05 -7.35L31.25 -7.35L31.55 -7.05L31.25 -6.75L29.25 -6.75L28.15 -5.95L30.75 -5.95L31.05 -5.65L30.75 -5.35L27.35 -5.35L27.25 -4.85L27.45 -4.7L30.05 -4.7Q30.65 -4.7 30.65 -4L30.45 -2.9L29.85 -2.2L28.55 -2L26.15 -2.4Q25.95 -2.4 25.95 -2.7Q25.95 -3 26.25 -3L28.65 -2.7L29.55 -2.8L29.85 -3.2L30.05 -3.8L29.95 -4L29.75 -4.1L27.15 -4.1Q26.65 -4.1 26.65 -4.6L26.85 -5.25Q25.9 -4.8 24.95 -4.5L24.75 -4.5L24.55 -4.6L24.45 -4.8L24.65 -5.05Q26.1 -5.5 27.15 -6.15L28.15 -6.75L24.85 -6.75Q24.55 -6.75 24.55 -7.05Q24.55 -7.35 24.85 -7.35L27.45 -7.35L27.45 -8.15L25.35 -8.15Q25.05 -8.15 25.05 -8.45Q25.05 -8.75 25.35 -8.75M23,-8.4L23 -5.9Q23 -5.3 22.4 -5.3L17.6 -5.3Q17.15 -5.3 17.1 -5.9L17.1 -8.4Q17.15 -9 17.6 -9L22.4 -9Q23 -9 23 -8.4M22.4,-8.2L22.2 -8.4L20.3 -8.4L20.3 -7.5L22.4 -7.5L22.4 -8.2M22.4,-6.2L22.4 -6.9L20.3 -6.9L20.3 -5.9L22.2 -5.9Q22.4 -5.9 22.4 -6.2M17.7,-6.2Q17.65 -5.9 17.9 -5.9L19.7 -5.9L19.7 -6.9L17.7 -6.9L17.7 -6.2M17.7,-7.5L19.7 -7.5L19.7 -8.4L17.9 -8.4Q17.65 -8.4 17.7 -8.2L17.7 -7.5M20,-5L20.9 -3.65L20.9 -3.45L20.6 -3.15L20.3 -3.45Q20 -4.3 19.5 -4.8L19.5 -4.9Q19.5 -5.2 19.8 -5.2L20 -5M18.5,-5L18.8 -4.75L18.8 -3.15Q18.75 -2.9 19 -2.75L19.9 -2.65L21.1 -2.75L21.4 -2.85L21.5 -3.55Q21.5 -3.85 21.8 -3.85Q22.1 -3.9 22.1 -3.45L22 -2.85Q21.95 -2.4 21.6 -2.25L20.1 -2.05L18.6 -2.25Q18.2 -2.45 18.2 -3.05L18.2 -4.75L18.5 -5M17.7,-4.45L17.1 -2.35L16.8 -2.25Q16.5 -2.25 16.5 -2.55L16.5 -2.65L17.2 -4.65L17.4 -4.8L17.7 -4.75L17.8 -4.55L17.7 -4.45M23.2,-2.35L22.9 -2.55L22 -4.55L22 -4.65L22.3 -4.9L22.5 -4.75L23.5 -2.85L23.5 -2.55L23.2 -2.35M15.4,-8.55L15.1 -8.25L14.2 -8.25L14.2 -7.45L15.2 -7.45L15.5 -7.15L15.2 -6.85L14.2 -6.85L14.2 -6.15Q14.2 -5.55 13.6 -5.55L11.1 -5.55Q10.65 -5.55 10.6 -6.15L10.6 -6.85L9.4 -6.85L9.4 -5.55L9.3 -3.5L9.1 -2.4L8.8 -2.1Q8.5 -2.2 8.5 -2.5L8.7 -3.9L8.8 -5.55L8.8 -8.25Q8.8 -8.85 9.4 -8.85L11.9 -8.85L11.9 -8.95Q11.9 -9.35 12.3 -9.35L12.6 -8.95L12.6 -8.85L15.1 -8.85L15.4 -8.55M10.6,-8.25L9.6 -8.25L9.4 -8.05L9.4 -7.45L10.6 -7.45L10.6 -8.25M11.1,-6.35Q11.15 -6.05 11.3 -6.05L13.4 -6.05L13.6 -6.35L13.6 -6.85L11.1 -6.85L11.1 -6.35M11.1,-7.45L13.6 -7.45L13.6 -8.25L11.1 -8.25L11.1 -7.45M9.85,-2.7L11.5 -3.1L10.5 -3.7L10.4 -4L10.6 -4.3L10.8 -4.2Q11.45 -3.75 12.2 -3.5L12.3 -3.4L14 -4.4L14 -4.5L10.1 -4.5Q9.8 -4.5 9.8 -4.8Q9.8 -5 10.1 -4.95L14.4 -4.95L14.7 -4.7L14.4 -4L13.2 -3.1L13.8 -3L15.3 -2.7L15.5 -2.4Q15.5 -1.95 15.2 -2L13.8 -2.3L12.3 -2.8L10.8 -2.3L9.8 -2.1Q9.5 -2.05 9.5 -2.5Q9.5 -2.65 9.8 -2.7L9.85 -2.7M37.3,-8.9L38.4 -8.9Q38.9 -8.9 38.9 -8.3L38.9 -4.25L39.2 -4.25L39.5 -3.95L39.2 -3.65L32.5 -3.65Q32.2 -3.65 32.2 -3.95Q32.2 -4.25 32.5 -4.25L32.7 -4.25L32.7 -8.1L32.9 -8.6Q33 -8.75 33.6 -8.9L34.3 -9L34.6 -8.7L34.4 -8.4L33.7 -8.3L33.3 -7.8L33.3 -7.3L34.4 -7.3L34.6 -7L34.4 -6.7L33.3 -6.7L33.3 -5.7L34.4 -5.7L34.6 -5.5L34.4 -5.2L33.3 -5.2L33.3 -4.25L34.9 -4.25L34.9 -5.8Q34.9 -6.1 35.2 -6.1L35.5 -5.8L35.5 -4.25L36.3 -4.25L36.3 -6.5L36.1 -6.7L35.3 -6.7Q34.85 -6.7 34.9 -7.1L34.9 -8.9L35.1 -9.2L35.4 -8.9L35.4 -8.5L36.7 -8.5L36.9 -8.2Q36.9 -7.9 36.7 -7.9L35.4 -7.9L35.4 -7.5Q35.4 -7.25 35.7 -7.3L36.4 -7.3Q36.85 -7.3 36.8 -6.8L36.8 -4.25L38.3 -4.25L38.3 -5.2L37.3 -5.2L37.1 -5.5L37.3 -5.7L38.3 -5.7L38.3 -6.7L37.3 -6.7Q37 -6.7 37 -7Q37 -7.3 37.3 -7.3L38.3 -7.3L38.3 -8.1L38.2 -8.3L37.3 -8.3L37.1 -8.6L37.3 -8.9M39.4,-2.45Q39.4 -2 39.1 -1.95L38.9 -2.05L36.9 -2.95Q36.65 -2.95 36.7 -3.15Q36.7 -3.45 37 -3.45L37.3 -3.45L39.2 -2.65L39.4 -2.45M28.15,-7.35L28.95 -7.35L29.95 -8.2L29.75 -8.15L28.15 -8.15L28.15 -7.35M34.8,-3.45L35.1 -3.15L35 -2.95Q34.25 -2.45 32.9 -2.05L32.7 -1.95Q32.4 -2 32.4 -2.45L32.5 -2.65L34.6 -3.45L34.8 -3.45" />
</g>
</svg>
