<?xml version="1.0" encoding="utf-8"?>
<svg version="1.1" id="Layer_1"
xmlns="http://www.w3.org/2000/svg"
xmlns:xlink="http://www.w3.org/1999/xlink"
xmlns:author="http://www.sothink.com"
width="37px" height="17px"
xml:space="preserve">
<g id="12" transform="matrix(1, 0, 0, 1, 18.5, 8.1)">
<path style="fill:#1B3C22;fill-opacity:1" d="M-16,-7.8Q-15.7 -7.8 -15.7 -7.6Q-15.7 -7.3 -16 -7.3L-17.9 -7.3L-18.1 -7.6L-17.9 -7.8L-16 -7.8M-17.9,-5.8L-15.9 -5.8Q-15.6 -5.8 -15.6 -5.5L-15.9 -5.3L-17.9 -5.3L-18.1 -5.5L-17.9 -5.8M-18.2,-6.9L-15.6 -6.9Q-15.3 -6.9 -15.3 -6.6Q-15.3 -6.3 -15.6 -6.3L-18.2 -6.3L-18.4 -6.6L-18.2 -6.9M-18.1,-4.5L-17.9 -4.8L-15.9 -4.8Q-15.6 -4.8 -15.6 -4.5Q-15.6 -4.2 -15.9 -4.2L-17.9 -4.2L-18.1 -4.5M-17.6,-3.8L-16.1 -3.8Q-15.6 -3.8 -15.6 -3.2L-15.6 -1.8Q-15.6 -1.2 -16.1 -1.2L-17.6 -1.2Q-18.15 -1.2 -18.1 -1.8L-18.1 -3.2Q-18.15 -3.8 -17.6 -3.8M-17.4,-1.8L-16.4 -1.8Q-16.1 -1.75 -16.1 -2L-16.1 -3Q-16.1 -3.2 -16.4 -3.2L-17.4 -3.2L-17.6 -3L-17.6 -2L-17.4 -1.8M-17.9,2.85L-17.7 2.65L-15.4 2.65L-15.4 2.05L-17.9 2.05L-18.2 1.75L-17.9 1.45L-15.4 1.45L-15.4 1.25L-15.1 0.95Q-14.8 0.95 -14.8 1.25L-14.8 1.45L-12.3 1.45Q-12 1.45 -12 1.75Q-12 2.05 -12.3 2.05L-14.8 2.05L-14.8 2.65L-12.6 2.65Q-12.3 2.65 -12.3 2.85Q-12.3 3.15 -12.6 3.15L-14.8 3.15L-14.8 3.85L-12 3.85Q-11.7 3.85 -11.7 4.15L-12 4.35L-14.6 4.35L-14.1 5.65Q-13.35 5.2 -12.9 4.75L-12.7 4.65Q-12.4 4.65 -12.4 4.95L-12.5 5.25L-13.7 6.05L-13.1 6.65L-11.9 7.35L-11.7 7.65Q-11.65 8 -12.1 8.05L-12.3 7.95L-13.5 7.25L-14.5 6.05L-15.2 4.35L-15.7 4.35L-15.7 4.45L-16.4 5.25L-16.4 7.05L-15.2 6.65L-15 6.65L-14.7 6.85L-14.9 7.25L-16.3 7.65L-17.8 7.95L-18.1 7.65L-17.8 7.25L-16.9 7.15L-16.9 5.75L-18.1 6.35L-18.2 6.45Q-18.5 6.5 -18.5 6.05L-18.4 5.85Q-17.35 5.4 -16.9 4.95L-16.4 4.35L-18.1 4.35L-18.4 4.15L-18.1 3.85L-15.4 3.85L-15.4 3.15L-17.7 3.15L-17.9 2.85M-1.4,-6.95L-1.4 -6.75L-1.8 -5.75L-2.3 -4.85L-2.9 -4.25L-3.1 -4.25L-3.3 -4.35L-3.4 -4.55L-3.3 -4.85L-2.8 -5.35L-2.3 -6.05L-1.9 -6.95Q-1.9 -7.2 -1.6 -7.15L-1.5 -7.15L-1.4 -6.95M-1.2,-7.55L-0.9 -7.85L1.2 -7.85L1.8 -7.35L2.3 -6.05L2.8 -5.45L3.4 -4.95L3.5 -4.65L3.2 -4.35L2.9 -4.45L2.3 -5.05L1.7 -5.85L1.2 -7.05L1 -7.25L-0.9 -7.25L-1.2 -7.55M-1.8,-5.15L1.7 -5.15Q2.15 -5.15 2.2 -4.55L2.1 -2.45Q2.1 -1.65 1.8 -1.35L0.9 -1.15L-0.4 -1.35L-0.6 -1.65L-0.3 -2.05Q0.45 -1.75 0.9 -1.75Q1.25 -1.8 1.4 -1.95L1.6 -2.75L1.6 -4.25L1.4 -4.55L-0.1 -4.55L-0.5 -3.05Q-0.75 -2.25 -1.3 -1.95Q-1.9 -1.45 -2.8 -1.15L-2.9 -1.15L-3.2 -1.45L-3 -1.75Q-2.15 -2 -1.6 -2.45L-1 -3.35L-0.7 -4.55L-1.8 -4.55Q-2.05 -4.55 -2 -4.85L-1.8 -5.15M-4.1,-7.1L-4.3 -6.8L-6.1 -6.8L-6.1 -6.3L-5 -6.3Q-4.4 -6.3 -4.4 -5.7L-4.4 -4.3Q-4.4 -3.7 -5 -3.7L-6 -3.7L-5.3 -2.8L-4.2 -1.9L-4.2 -1.6Q-4.2 -1.3 -4.5 -1.3L-4.7 -1.4L-5.4 -2.1L-6.1 -3L-6.1 -1.3Q-6.1 -1 -6.4 -1L-6.6 -1.3L-6.6 -3L-7.9 -1.4L-8.1 -1.3Q-8.55 -1.3 -8.5 -1.6L-8.5 -1.8Q-7.6 -2.4 -7.3 -3L-6.7 -3.7L-7.7 -3.7Q-8.25 -3.7 -8.2 -4.3L-8.2 -5.7Q-8.25 -6.3 -7.7 -6.3L-6.6 -6.3L-6.6 -6.8L-8.2 -6.8L-8.5 -7.1L-8.2 -7.4L-6.6 -7.4L-6.6 -7.8L-6.4 -8.1Q-6.1 -8.1 -6.1 -7.8L-6.1 -7.4L-4.3 -7.4L-4.1 -7.1M-5.1,-5.2L-5.4 -4.6L-5.6 -4.5L-5.8 -4.7L-5.8 -4.8L-5.6 -5.4L-5.4 -5.5L-5.2 -5.4L-5.1 -5.3L-5.1 -5.2M-5.2,-5.7L-6.1 -5.7L-6.1 -4.2L-5.2 -4.2Q-4.9 -4.2 -4.9 -4.5L-4.9 -5.5Q-4.9 -5.75 -5.2 -5.7M4.2,-3.15L5 -4.85L5.4 -6.05L4.5 -6.05Q4.2 -6.05 4.2 -6.35Q4.2 -6.65 4.5 -6.65L5.4 -6.65L5.4 -7.75Q5.4 -8.05 5.7 -8.05L6 -7.75L6 -6.65L6.6 -6.65L6.9 -6.35L6.6 -6.05L6 -6.05L6 -5.75L6.9 -4.25L7 -4.05L6.7 -3.75Q6.55 -3.75 6.5 -3.85L6 -4.85L6 -1.35L5.7 -1.05Q5.4 -1.05 5.4 -1.35L5.4 -4.65L5 -3.55L4.6 -2.75L4.4 -2.65Q4.1 -2.65 4.1 -2.95L4.2 -3.15M-9.5,-8L-9.4 -7.8L-9.4 -7.6L-10 -6.3L-9.7 -5.9L-9.2 -6.9L-9 -7L-8.8 -6.9L-8.7 -6.7L-8.8 -6.5L-9.4 -5.2L-9.8 -4.7L-9.1 -4.8L-9.1 -5L-9.2 -5.2L-8.9 -5.3L-8.7 -5.3L-8.4 -4.3L-8.4 -4.1Q-8.4 -3.8 -8.7 -3.8L-8.9 -4L-8.9 -4.2L-9 -4.2L-9.3 -4.2L-9.3 -1.3Q-9.25 -1 -9.5 -1L-9.8 -1.3L-9.8 -4.1L-10.6 -4Q-10.85 -4 -10.8 -4.3L-10.6 -4.6L-10.5 -4.6L-10 -5.4L-10.4 -5.9L-10.7 -6.2L-10.8 -6.4L-10.6 -6.7L-10.5 -6.7L-9.9 -7.9L-9.7 -8L-9.5 -8M-13.5,-7.6Q-13.2 -7.6 -13.2 -7.3L-13.2 -1.7Q-13.2 -1.4 -13.5 -1.4L-13.7 -1.7L-13.7 -7.3L-13.5 -7.6M-15,-4.2L-15 -7.5L-14.7 -7.8Q-14.4 -7.8 -14.4 -7.5L-14.4 -4.2L-14.6 -2.4L-15 -1.2L-15.2 -1.1Q-15.6 -1.1 -15.6 -1.4L-15.5 -1.6Q-15.15 -2.3 -15.1 -3L-15 -4.2M-7.7,-5.5L-7.7 -4.5L-7.5 -4.2L-6.6 -4.2L-6.6 -5.7L-7.5 -5.7L-7.7 -5.5M-7.1,-5.4L-6.8 -4.9L-6.8 -4.7Q-6.8 -4.45 -7.1 -4.5L-7.3 -4.6L-7.5 -5.2L-7.6 -5.3Q-7.6 -5.5 -7.3 -5.5L-7.1 -5.4M-9,-3.5L-8.8 -3.7L-8.5 -3.5L-8.4 -2.6L-8.4 -2.4Q-8.35 -2.25 -8.6 -2.2L-8.9 -2.4L-9 -3.4L-9 -3.5M-10.1,-3.4L-10.2 -3.2L-10.3 -1.3L-10.6 -1.2L-10.9 -1.4L-10.8 -1.6L-10.7 -3.5Q-10.7 -3.7 -10.4 -3.7Q-10.1 -3.7 -10.1 -3.4M-12.2,-7.9Q-11.9 -7.9 -11.9 -7.6L-11.9 -1.3L-12.2 -1.1L-12.4 -1.3L-12.4 -7.6L-12.2 -7.9M-7.1,1.4L-6.8 1.1Q-6.5 1.1 -6.5 1.4L-6.5 1.6L-4.8 1.6Q-4.5 1.6 -4.5 1.8Q-4.5 2.1 -4.8 2.1L-6.5 2.1L-6.5 2.7L-4.5 2.7Q-4.2 2.7 -4.2 2.9Q-4.2 3.2 -4.5 3.2L-5.5 3.2L-5.6 4L-4.7 4Q-4.4 4 -4.4 4.2Q-4.4 4.5 -4.7 4.5L-6.5 4.5L-6.5 4.9L-5 4.9Q-4.7 4.9 -4.7 5.2Q-4.7 5.5 -5 5.5L-6.5 5.5L-6.5 6L-4.6 6Q-4.3 5.95 -4.3 6.2Q-4.3 6.5 -4.6 6.5L-6.5 6.5L-6.5 6.9Q-6.5 7.2 -6.8 7.2L-7.1 6.9L-7.1 6.5L-8.9 6.5L-9.1 6.2L-8.9 6L-7.1 6L-7.1 5.5L-8.5 5.5L-8.8 5.2L-8.5 4.9L-7.1 4.9L-7.1 4.5L-8.9 4.5L-9.1 4.2L-8.9 4L-7.9 4L-8.1 3.2L-8.9 3.2L-9.2 2.9Q-9.2 2.7 -8.9 2.7L-7.1 2.7L-7.1 2.1L-8.7 2.1L-8.9 1.8L-8.7 1.6L-7.1 1.6L-7.1 1.4M-10.3,1.3L-9.9 1.6L-9.4 2L-9.4 2.2L-9.7 2.4L-9.9 2.4L-10.3 2Q-10.45 1.8 -10.7 1.8L-10.7 1.5L-10.5 1.3L-10.3 1.3M-10.3,2.9L-10 3.1L-9.5 3.5L-9.5 3.7L-9.8 3.9L-10 3.9L-10.4 3.5L-10.7 3.3L-10.8 3.1L-10.5 2.8L-10.3 2.9M-10,4.6Q-9.5 4.6 -9.5 5.1L-9.5 6.4Q-9.55 6.75 -9.1 7L-7.9 7.3L-4.4 7.3Q-4.1 7.3 -4.1 7.6Q-4.1 7.9 -4.4 7.9L-7.7 7.9L-8.8 7.8L-9.6 7.3L-9.8 7.3L-10.3 7.9L-10.6 8L-10.9 7.7L-10.7 7.4L-10.2 7.1L-10.1 6.4L-10.1 5.3L-10.2 5.2L-10.5 5.2L-10.8 4.9L-10.5 4.6L-10 4.6M-6.2,4L-6 3.2L-7.6 3.2L-7.4 4L-6.2 4M0.8,1.5L0.8 2.2L1.8 1.9L2.7 1.4L3 1.7L2.8 2.1L2.1 2.4L1.4 2.6L0.9 2.7L0.8 2.7L0.8 3.4L0.9 3.8L1.5 3.9L2.4 3.9L2.6 3.8L2.7 3.3Q2.7 3 3 3Q3.3 3.05 3.3 3.4L3.2 3.9L2.9 4.4L1.7 4.5L0.5 4.4L0.3 3.6L0.3 1.5Q0.35 1.2 0.5 1.2L0.8 1.5M-0.7,3L-3.1 3.3L-3.4 3L-3.1 2.7L-2.9 2.7L-2.7 2.2L-2.2 1.2L-1.9 1.1L-1.7 1.2L-1.6 1.4L-1.7 1.6L-2.1 2.4L-2.2 2.7L-0.9 2.5L-1.1 2.1L-1.2 1.9L-0.9 1.6L-0.7 1.7L-0.4 2.2L0 3.1L0 3.2L-0.2 3.5L-0.4 3.4L-0.6 3L-0.7 3M-0.2,4.1L-0.2 7.4Q-0.15 8 -0.9 8L-1.7 7.9L-1.9 7.6L-1.7 7.3L-1.5 7.3L-0.9 7.4L-0.8 7.1L-0.8 6.5L-2.6 6.5L-2.6 7.7Q-2.6 8.05 -2.9 8.1Q-3.2 8.05 -3.2 7.7L-3.2 4.1Q-3.15 3.65 -2.7 3.7L-0.7 3.7Q-0.2 3.65 -0.2 4.1M-2.6,4.4L-2.6 4.8L-0.8 4.8L-0.8 4.4L-0.9 4.2L-2.5 4.2L-2.6 4.4M-0.8,5.3L-2.6 5.3L-2.6 6L-0.8 6L-0.8 5.3M3,6.5Q3.3 6.45 3.3 6.9L3.2 7.4L2.9 7.9L1.6 8L0.5 7.8Q0.25 7.6 0.3 7L0.3 5Q0.35 4.7 0.5 4.7L0.8 5L0.8 5.7L1.8 5.5L2.7 4.9L3 5.3L2.8 5.6L2.1 6L1.4 6.2L0.9 6.3L0.8 6.3L0.8 6.9L0.9 7.3L1.4 7.4L2.4 7.4L2.6 7.3L2.7 6.8Q2.7 6.5 3 6.5M18,-4.65L17.1 -3.45L16.4 -2.75L17.1 -2.35L18.3 -1.95L18.5 -1.55Q18.5 -1.2 18.2 -1.15L18 -1.25L16.6 -1.95L15.9 -2.35L15.8 -2.35Q14.85 -1.65 13.6 -1.25L13.3 -1.15Q13 -1.15 13 -1.45L13.2 -1.75L15.2 -2.65L15.4 -2.75L14.7 -3.75L14 -5.25L13.6 -5.25L13.4 -4.05Q13.1 -2.55 12.2 -1.35L12 -1.15Q11.7 -1.15 11.7 -1.45L11.7 -1.65Q12.5 -2.8 12.8 -4.15L13.2 -7.15L12.2 -7.15Q11.9 -7.15 11.9 -7.45Q11.9 -7.75 12.2 -7.75L16.6 -7.75Q17.15 -7.7 17.1 -7.25L16.7 -5.85L17.7 -5.85Q18.15 -5.8 18.2 -5.35L18 -4.65M17.5,-5.05L17.4 -5.25L14.6 -5.25L15.2 -3.95L15.9 -3.15L16.6 -3.75L17.3 -4.75L17.5 -5.05M16.5,-6.95L16.3 -7.15L13.8 -7.15L13.7 -5.85L16.1 -5.85L16.5 -6.95M10.4,-7.95L10.6 -7.55L10.3 -7.35L8 -7.05L7.8 -6.85L7.8 -5.95L10.8 -5.95L11.1 -5.65L10.8 -5.35L9.9 -5.35L9.9 -1.35L9.6 -1.05Q9.3 -1.05 9.3 -1.35L9.3 -5.35L7.8 -5.35L7.8 -4.75L7.7 -3.25L7.1 -1.55L6.8 -1.35Q6.5 -1.35 6.5 -1.65L6.6 -1.85L7.1 -3.35L7.2 -4.75L7.2 -7.25Q7.2 -7.65 7.8 -7.65L10.1 -7.85L10.4 -7.95M9.75,3L7.65 3L7.25 4.8L6.35 6.6L4.85 7.9L4.65 8Q4.35 8 4.35 7.6L4.45 7.4L5.95 6L6.75 4.4L7.05 3L4.65 3Q4.35 3 4.35 2.6Q4.35 2.35 4.65 2.4L7.15 2.4L7.15 1.3Q7.15 1.1 7.45 1.1L7.75 1.4L7.75 2.4L10.05 2.4Q10.65 2.35 10.65 3.1L10.55 6L10.15 7.6L9.05 8L7.65 7.7Q7.35 7.7 7.35 7.4Q7.35 6.95 7.65 7L9.05 7.3Q9.5 7.3 9.65 7L9.95 5.7L10.05 3.3L9.75 3" />
</g>
</svg>
