<?xml version="1.0" encoding="utf-8"?>
<svg version="1.1" id="Layer_1"
xmlns="http://www.w3.org/2000/svg"
xmlns:xlink="http://www.w3.org/1999/xlink"
xmlns:author="http://www.sothink.com"
width="27px" height="48px"
xml:space="preserve">
<g id="58" transform="matrix(1, 0, 0, 1, 13.6, 23.9)">
<path style="fill:#F2DDA2;fill-opacity:1" d="M-1.6,-8.95L-1.1 -8.2L2.7 3.1Q3.35 3.15 3.65 3.55L4.05 4.35L4.15 4.8L4.2 4.95L4.35 5.3L4.2 5.35L3.85 5.35L3.65 5.3L3.7 5.5L3.55 5.8L3.35 5.8L2.8 5.7L2.7 5.85L2.5 6.1L2.05 5.95L1.8 5.8L1.2 6.2L1.15 6.2Q0.95 6.15 0.85 5.55L0.65 4.35L0.6 3.7Q-0.7 1.75 -1.65 -0.9Q-2.65 -3.6 -3.1 -5.9Q-3.55 -8.2 -3.2 -9.1L-2.65 -9.65Q-2.1 -9.55 -1.6 -8.95" />
<path style="fill:#2C3936;fill-opacity:1" d="M1.25,6.75L3.15 10.3L5.25 14.1L6.45 16.35L7.4 17.5L8.8 18.4L10.35 18.25L10.55 18.15L10.75 18.05Q11.65 17.65 11.65 18.4Q11.6 19.2 10.35 20.05L7.75 21.6L6.55 22.3L-3.25 8.8L0.45 5.15L1.25 6.75" />
<path style="fill:#EFEEE5;fill-opacity:1" d="M10.7,19.85L8.35 21.55Q7.15 22.2 6.55 22.75L5.1 21.1L4.55 20.5L4.5 20.45L8.1 17.6L8.25 17.85Q8.5 18.15 9.45 18.05L11.25 17.8L12.15 17.55Q11.8 18.85 10.7 19.85M8.1,17.5L8.2 17.55L8.1 17.6L8 17.4L8.1 17.5" />
<path style="fill:#DDDDD3;fill-opacity:1" d="M12.65,17.75Q12.1 19.45 10.65 20.45L8 22.25L6.85 23.05L6.45 23.5L6.15 23.1L4.75 21.6L4.25 20.9L4.05 20.65L4 20.6L4.1 20.3L4.15 20.05L7.55 17.4L7.55 17.2L7.75 17L8.1 16.95L8.5 17.05L8.55 17.25L9 17.55L9.65 17.6L10.55 17.45L11.4 17.25L12 17.15L12.8 16.9L12.65 17.75M9.5,18.55L8.35 18.45L8 18.3L5.2 20.55L5.25 20.6L6.55 22.05L7.45 21.4L9.15 20.3Q10.55 19.45 11.35 18.3L9.5 18.55" />
<path style="fill:#2C3936;fill-opacity:1" d="M1.1,6.25Q-0.65 6.95 -2.45 8.95Q-4.25 11 -5.75 13.4L-8.2 17.4L-9.1 19.15L-8.1 20.3L-6.7 21.2L-6.05 21.55L-7.9 21.6L-10 20.9L-11.85 20.1L-12.55 19.75Q-12.65 18.8 -11.75 16.9L-9.6 12.7L-6.9 8.25L-4.65 4.75L-3.65 3.25L1.1 6.25" />
<path style="fill:#EFEEE5;fill-opacity:1" d="M-6.05,21.45L-8.65 21.6L-11.15 20.8L-12.15 20.3L-12.9 20.1L-12.3 17.55L-12.1 17.15L-8.45 18.7L-8.55 18.85Q-8.65 19.3 -8.05 19.9L-6.8 21L-6.05 21.45M-8.25,18.7L-8.2 18.8L-8.45 18.7L-8.3 18.55L-8.25 18.7" />
<path style="fill:#DDDDD3;fill-opacity:1" d="M-5.9,22L-8.15 22.2L-10.3 21.55L-12.35 20.75L-13 20.5L-13.6 20.5L-13.45 19.9L-13 18.05L-12.7 17.2L-12.6 17L-12.4 16.8L-12 16.75L-8.65 18.15L-8.55 18.1L-8.2 18.1L-7.95 18.3L-7.8 18.5L-7.8 18.65L-7.85 18.85L-7.9 19.45L-7.4 19.9L-6.55 20.6L-5.9 21.05L-5.85 21.05L-4.95 21.65L-5.9 22M-8.45,20.35L-9.1 19.5L-9.15 19L-11.85 17.8L-12.4 19.7L-12 19.85L-9.95 20.65L-7.35 21.2L-8.45 20.35" />
<path style="fill:#F2DDA2;fill-opacity:1" d="M2.65,-17.55Q2.55 -15.15 1.5 -13.95Q0.45 -12.75 -0.5 -12.75Q-1.1 -12.7 -1.25 -12.25L-1.35 -11.35L-1.3 -10.85L-3.1 -10.85L-3.05 -11.35L-3.05 -12.35Q-3.15 -12.85 -3.6 -12.95L-4.65 -13.45L-6 -14.9Q-6.65 -15.85 -6.7 -17.35Q-6.65 -19.55 -5.3 -20.85Q-4 -22.1 -2.3 -22.15Q-0.5 -22.15 1.05 -21.05Q2.55 -19.95 2.65 -17.55" />
<path style="fill:#F2F470;fill-opacity:1" d="M0.3,-7.05L0.7 -3.5L1.2 0.5L1.65 3.8L1.85 5.15L-5.2 7.25L-5.15 5.45L-5 1.25L-4.85 -3.45L-4.8 -6.75L-4.4 -8.85L-3.6 -10.15Q-3.25 -10.65 -3.2 -11.05L-1.4 -11.05L-1 -10.75L-0.3 -10.05Q0.05 -9.55 0.1 -8.95L0.3 -7.05" />
<path style="fill:#EB1569;fill-opacity:1" d="M6.5,6.55L9.4 6.95L0.3 11.25L0.3 13.45L0.35 14.2Q0.4 14.9 0.05 15.6Q-0.3 16.3 -1.3 16.35L-4.45 16.25Q-6.3 16.15 -7.85 15.55Q-9.35 15 -9.45 13.65L-9.15 10.7L-8.65 8.1L-8.35 6.95L-8.2 6.3Q-8.05 5.7 -6.9 5.1Q-5.8 4.5 -3.05 4.45Q-1.15 4.55 -0.55 5.55Q0.05 6.55 0 7.45L0.1 8.5L0.2 8.75L6.5 7.15L6.5 6.55M-1.7,5.8Q-2.25 5.3 -3.85 5.25Q-6 5.3 -6.8 5.95Q-7.6 6.55 -7.55 6.85L-6.35 7.3L-3.9 7.95L-1.65 8.25Q-1.1 8.25 -1.1 8.05L-1.1 6.95Q-1.1 6.3 -1.7 5.8" />
<path style="fill:#000000;fill-opacity:1" d="M0.4,-17.3Q0.35 -16.95 -0.1 -16.9L-0.5 -17.3L-0.1 -17.7Q0.35 -17.65 0.4 -17.3" />
<path style="fill:#000000;fill-opacity:1" d="M-2.6,-17.2Q-2.6 -16.85 -2.9 -16.8Q-3.2 -16.85 -3.2 -17.2Q-3.2 -17.7 -2.9 -17.7Q-2.6 -17.7 -2.6 -17.2" />
<path style="fill:#F24618;fill-opacity:1" d="M-0.55,-14.7Q-0.85 -14.3 -1.45 -14.25Q-2 -14.2 -2.85 -15L-0.25 -15.2L-0.55 -14.7" />
<path style="fill:#000000;fill-opacity:1" d="M-0.6,-16.7L-0.6 -16.6L-0.7 -16.1Q-0.9 -15.9 -1.2 -15.8L-1.4 -15.9L-1.2 -16.1L-0.9 -16.3L-0.85 -16.45L-1.1 -16.4L-1.4 -16.6L-1.5 -16.8L-1.5 -17.3L-1.4 -17.4L-1.3 -17.3L-1.3 -16.8L-1.1 -16.6L-0.7 -16.8L-0.6 -16.7" />
<path style="fill:#373123;fill-opacity:1" d="M2.15,-21.8Q2.25 -21.35 2.6 -21.2L2.95 -20.8L2.75 -20.2L2.7 -19.7L2.85 -19.1Q2.85 -18.75 3.1 -18.7L3.25 -18.15L3.15 -17.15Q3.05 -16.65 3.2 -16.5Q3.35 -16.2 3 -15.75L2.6 -15.2L2.35 -14.75Q2.1 -14.3 2.2 -14.1Q2.3 -13.95 1.8 -13.35L0.9 -12.5L0.5 -12.4Q0.3 -12.4 0.4 -12.65L0.4 -12.9L0.55 -13.15L1.2 -13.65L1.6 -14L1.95 -15.15L2.25 -15.95L2.2 -15.9L2.1 -15.85L2.2 -16.4L2.55 -16.9L2.5 -17.7L2.45 -18.4L2.3 -18.7L2.2 -18.65L1.9 -19L1.8 -19.35L1.8 -19.2L1.75 -19.05L1.3 -19.4L0.8 -19.7L0.7 -19.5Q0.7 -19.2 0.55 -19.25L-0.1 -19.5L-0.55 -19.9L-0.6 -19.8Q-0.6 -19.55 -0.75 -19.55L-1.2 -19.8L-1.55 -19.95L-1.6 -19.9Q-1.6 -19.75 -1.9 -19.75L-2.45 -19.8L-3 -19.9L-2.95 -19.7Q-2.7 -19.4 -3.15 -19.35L-4.05 -19.25Q-4.55 -19.25 -4.45 -19.1L-4.7 -18.8L-5.4 -18.55Q-5.7 -18.4 -5.45 -18.3Q-5.2 -18.15 -5.3 -17.8L-5.5 -17.05Q-5.6 -16.65 -5.25 -16.4Q-4.95 -16.1 -5.15 -15.9L-5.55 -15.6Q-5.8 -15.5 -5.65 -15.4L-5.35 -14.75L-5.1 -13.8L-4.55 -13.3Q-3.95 -13.25 -4 -12.85Q-4.05 -12.45 -4.75 -12.4L-4.8 -12.1Q-4.7 -11.8 -4.95 -11.7L-5.05 -11.7L-5.65 -12.1L-6.2 -12.8L-6.45 -13.2L-6.5 -13.55L-7.05 -14.1Q-7.55 -14.3 -7.8 -15L-8.35 -16L-8.35 -16.35L-8.05 -16.85Q-7.95 -17.15 -8.25 -17.5Q-8.6 -17.9 -8.45 -18.05L-8.15 -18.35L-8.25 -18.7L-8.2 -19.5L-7.6 -20.55L-7.05 -21.5L-6.5 -22.1L-5.7 -22.6Q-5.4 -22.8 -5.55 -23.2Q-5.7 -23.7 -4.9 -23.65L-3.75 -23.55L-3.15 -23.4L-3.25 -23.65L-2.95 -23.9L-2.6 -23.8L-2.4 -23.7L-2.05 -23.8L-1.9 -23.85L-1.6 -23.7L-1.4 -23.65L-0.9 -23.7L-0.65 -23.75L-0.55 -23.6L-0.45 -23.35L0.5 -23.2Q1.45 -23.15 1.75 -22.75L2.15 -21.8" />
<path style="fill:#F2DDA2;fill-opacity:1" d="M-2.95,-9.05L-2.65 -8.1L-2.55 -7.6L-3.55 4.3Q-2.75 4.8 -2.8 5.55L-2.85 6.4L-2.85 6.6L-2.85 7L-2.85 7.05L-3.2 6.8L-3.45 6.6L-3.5 6.85L-3.85 7.1L-4.2 6.9L-4.35 6.7L-4.5 6.8L-4.85 6.9L-5.15 6.65L-5.35 6.4L-5.5 6.5L-6.05 6.6L-6.1 5.95L-5.85 4.75L-5.65 4.1Q-6.05 1.8 -5.95 -1.05L-5.35 -6.2Q-4.85 -8.5 -4.25 -9.2L-3.6 -9.55Q-3.2 -9.5 -2.95 -9.05" />
<path style="fill:#F2F470;fill-opacity:1" d="M-1.95,-6.9L-2.15 -5.05L-2.3 -4.2L-5.6 -4.2Q-5.9 -6.75 -5.5 -7.9Q-5.1 -9 -4.6 -9.3L-4 -9.5L-3.6 -9.55Q-2.6 -9.5 -2.3 -8.7Q-1.95 -7.9 -1.95 -6.9" />
</g>
</svg>
